<?xml version="1.0" encoding="UTF-8"?>
<svg xmlns="http://www.w3.org/2000/svg" viewBox="0 0 198.425 202.618">
  <defs>
    <style>
      .cls-1 {
        fill: #007fc6;
      }

      .cls-2 {
        stroke: #1dff1b;
        stroke-width: .567px;
      }

      .cls-2, .cls-3 {
        fill: none;
        stroke-miterlimit: 10;
      }

      .cls-3 {
        stroke: #007fc6;
        stroke-width: 1.984px;
      }
    </style>
  </defs>
  <g id="GRABADO">
    <g>
      <path class="cls-1" d="M184.299,117.18c-.77,3.93-1.82,7.81-3.12,11.58,3.1-2.93,7.67-4.07,11.97-2.58l1.78,.62-.62,1.79c-2.14,6.15-8.86,9.4-15.01,7.26-.28-.1-.51-.26-.71-.45l-.01,.03c-1.49,3.36-3.19,6.61-5.06,9.71,3.81-2.02,8.56-1.97,12.43,.55l1.64,1.07-1.07,1.64c-3.69,5.67-11.27,7.28-16.94,3.59-.15-.1-.27-.21-.38-.34-2.32,3.17-4.86,6.18-7.59,9.01,4.38-1.43,9.39-.42,12.87,3.05l1.44,1.44-1.43,1.43c-2.48,2.49-5.73,3.73-8.98,3.73-3.23,0-6.47-1.23-8.94-3.69-.21-.21-.36-.45-.46-.71-3.2,2.8-6.63,5.35-10.21,7.65,4.75-.47,9.59,1.69,12.3,6.01l1.12,1.76-1.77,1.11c-6.09,3.84-14.13,2.01-17.96-4.08-.19-.29-.28-.61-.31-.93-.01,0-.02,.01-.04,.02-3.82,2-7.79,3.69-11.81,5.08,5.12,1.13,9.43,5.04,10.79,10.48l.56,2.22-2.22,.55c-5.96,1.49-11.98-.99-15.27-5.78-.79-1.16-1.43-2.45-1.86-3.85-.08-.25-.15-.51-.22-.77-.13-.52-.06-1.03,.14-1.48l-.11-.49c-.51-.3-.92-.8-1.07-1.42-.1-.39-.18-.78-.23-1.17-.11-.6-.17-1.22-.19-1.82-.01-.12-.01-.25-.01-.37h1.47c.93,0,1.7-.7,1.79-1.61h7.91c.35,0,.69-.07,.99-.2-.44,.77-.94,1.5-1.52,2.18-.53,.63-1.13,1.22-1.77,1.76,3.83-1.31,7.62-2.92,11.29-4.81-.06-.08-.13-.15-.18-.23-3.83-6.09-2-14.13,4.08-17.97l1.77-1.11,1.11,1.77c2.67,4.24,2.58,9.43,.23,13.48,3.37-2.17,6.57-4.55,9.58-7.15-.09-.07-.18-.14-.26-.22-4.96-4.94-4.98-12.96-.04-17.92l1.43-1.43,1.44,1.43c3.45,3.43,4.5,8.36,3.16,12.71,2.61-2.71,5.04-5.59,7.26-8.61-.18-.05-.37-.12-.54-.23-5.67-3.69-7.27-11.28-3.58-16.95l1.06-1.64,1.65,1.07c4.04,2.63,6,7.24,5.47,11.73,1.87-3.07,3.58-6.29,5.07-9.62-.04-.01-.08-.01-.12-.03-6.15-2.14-9.4-8.86-7.26-15.01l.62-1.78,1.78,.62c4.21,1.46,7.05,5.07,7.75,9.17,1.23-3.58,2.23-7.27,2.97-11.01-.15,.01-.31,.02-.48,0-6.19-.91-10.47-6.66-9.56-12.84l.26-1.79,1.79,.26c4.34,.63,7.73,3.65,9.06,7.52,.38-3.25,.58-6.54,.58-9.8,0-.76-.02-1.51-.04-2.26-.11,.03-.21,.05-.32,.06-5.85,.53-11.01-3.78-11.54-9.62l-.15-1.69,1.69-.16c4.08-.36,7.82,1.63,9.89,4.84-.37-3.6-.97-7.23-1.81-10.77-4.94,1.41-10.12-1.39-11.61-6.32l-.44-1.44,1.44-.44c3.18-.97,6.48-.16,8.84,1.84-1.07-3.32-2.32-6.55-3.76-9.66-.08,.07-.18,.13-.28,.18-4.5,2.14-9.89,.24-12.04-4.27l-.62-1.3,1.3-.62c2.99-1.43,6.37-1.06,8.93,.66-1.75-3.17-3.71-6.26-5.86-9.19-.06,.06-.1,.13-.17,.19-3.8,2.76-9.12,1.92-11.89-1.88l-.8-1.1,1.1-.8c2.44-1.77,5.49-2.05,8.1-1.04-2.52-2.99-5.24-5.81-8.15-8.43q-.01,.01-.01,.02c-2.45,2.59-6.53,2.71-9.13,.27l-.75-.71,.71-.75c1.46-1.55,3.49-2.21,5.45-1.98-2.81-2.26-5.76-4.34-8.8-6.19l-.14-.05-.09-.09c-.09-.06-.19-.11-.28-.17-1.48,2.47-4.68,3.27-7.15,1.8l-.72-.43,.43-.72c1.24-2.07,3.68-2.95,5.89-2.32-1.64-1.65-2.04-4.25-.79-6.35l.42-.71,.72,.42c2.29,1.37,3.13,4.2,2.08,6.58,.17,.1,.34,.2,.51,.3l.03,.02c3.25,1.98,6.35,4.18,9.3,6.56-.43-2.01,.1-4.18,1.61-5.79l.71-.75,.75,.71c2.51,2.36,2.7,6.25,.5,8.85,3.09,2.78,5.94,5.74,8.54,8.85-.26-2.87,.95-5.81,3.46-7.64l1.1-.8,.8,1.1c2.75,3.78,1.93,9.06-1.81,11.83,2.2,3,4.2,6.14,5.98,9.37,.31-3.03,2.14-5.84,5.09-7.24l1.3-.63,.63,1.31c2.14,4.49,.24,9.87-4.24,12.02,1.56,3.35,2.91,6.89,4.05,10.5,.66-3.29,3.06-6.12,6.5-7.16l1.44-.44,.44,1.44c.28,.91,.41,1.83,.41,2.74,0,4.04-2.62,7.78-6.69,9.01-.18,.06-.36,.07-.53,.06,0,.01,0,.02,.01,.03,.84,3.5,1.46,7.1,1.85,10.73,1.56-3.28,4.76-5.67,8.63-6.03l1.7-.15,.15,1.69c.53,5.85-3.78,11.01-9.62,11.54-.12,.01-.24,0-.36-.01,.03,.85,.05,1.71,.05,2.58,0,3.18-.19,6.38-.53,9.55,2.42-3.11,6.39-4.87,10.57-4.26l1.79,.26-.26,1.79c-.91,6.19-6.65,10.47-12.84,9.57-.13-.02-.25-.05-.37-.1Z"/>
      <path class="cls-1" d="M80.869,178.63c0,.12,0,.25-.01,.37-.02,.6-.08,1.22-.19,1.82-.05,.39-.13,.78-.23,1.17-.14,.57-.5,1.04-.95,1.34l-.16,.72c.15,.41,.19,.87,.07,1.33-.07,.26-.14,.52-.21,.77-.56,1.77-1.43,3.37-2.54,4.74-3.38,4.2-9.02,6.29-14.6,4.89l-2.22-.55,.56-2.22c1.33-5.31,5.46-9.17,10.42-10.41-3.97-1.36-7.83-2.99-11.52-4.9-.05,.23-.13,.45-.27,.66-3.83,6.09-11.87,7.92-17.96,4.08l-1.76-1.11,1.11-1.76c2.59-4.11,7.1-6.27,11.63-6.07-3.4-2.18-6.67-4.6-9.72-7.24-.08,.13-.17,.25-.28,.36-4.96,4.94-12.98,4.92-17.92-.04l-1.43-1.43,1.44-1.44c3.27-3.26,7.88-4.34,12.06-3.28-2.54-2.65-4.94-5.48-7.14-8.45q-.01,0-.02,.01c-5.67,3.69-13.25,2.08-16.94-3.59l-1.07-1.64,1.64-1.07c3.59-2.34,7.95-2.54,11.6-.94-1.71-2.87-3.29-5.9-4.69-9.03-.08,.05-.17,.09-.26,.13-6.15,2.14-12.87-1.11-15.01-7.26l-.62-1.79,1.78-.62c3.93-1.36,8.08-.52,11.13,1.86-1.18-3.53-2.15-7.13-2.86-10.74-6.1,.78-11.73-3.47-12.63-9.59l-.26-1.79,1.79-.26c3.81-.56,7.45,.86,9.9,3.47-.29-2.88-.45-5.81-.45-8.76,0-.87,.01-1.74,.05-2.61-5.72-.64-9.91-5.73-9.39-11.5l.15-1.69,1.7,.15c3.5,.32,6.45,2.31,8.13,5.11,.41-3.35,1.01-6.68,1.79-9.91-4.95-1.53-7.75-6.77-6.24-11.74l.44-1.44,1.44,.44c3.08,.93,5.33,3.3,6.24,6.15,1.08-3.32,2.36-6.59,3.84-9.74-4.14-2.3-5.83-7.44-3.77-11.77l.63-1.31,1.3,.63c2.68,1.27,4.43,3.71,4.97,6.41,1.74-3.07,3.66-6.04,5.73-8.84-3.42-2.84-4.09-7.88-1.44-11.53l.8-1.1,1.1,.8c2.29,1.67,3.5,4.27,3.5,6.9,2.51-2.94,5.29-5.79,8.24-8.42-1.93-2.59-1.65-6.27,.76-8.54l.75-.71,.71,.75c1.38,1.46,1.94,3.4,1.7,5.25,2.8-2.22,5.76-4.29,8.83-6.14,.42-.26,.8-.49,1.17-.71-1.04-2.37-.2-5.2,2.08-6.56l.72-.43,.43,.71c1.24,2.1,.84,4.7-.8,6.35,2.21-.63,4.66,.26,5.89,2.33l.43,.71-.72,.43c-2.47,1.48-5.67,.67-7.15-1.8-.33,.19-.67,.4-1.04,.63-3.24,1.95-6.35,4.13-9.27,6.5,2.17-.52,4.56,.1,6.2,1.85l.71,.75-.75,.71c-1.25,1.17-2.84,1.75-4.43,1.75-1.72,0-3.43-.67-4.7-2.02-.1-.11-.17-.23-.22-.36l-.28,.24c-3.11,2.79-6.02,5.82-8.67,9.01,2.8-1.54,6.35-1.44,9.11,.56l1.1,.8-.8,1.1c-2.77,3.8-8.09,4.64-11.89,1.88-.22-.17-.35-.39-.44-.63-.02,.03-.03,.04-.05,.07-2.25,3.02-4.32,6.25-6.16,9.6l-.12,.23c-.1,.17-.18,.35-.28,.52,2.63-2.38,6.54-3.08,9.95-1.45l1.3,.62-.62,1.3c-2.15,4.51-7.54,6.41-12.04,4.27-.29-.14-.52-.37-.66-.64-.01,.03-.03,.06-.04,.09-1.65,3.51-3.06,7.16-4.2,10.87,2.37-2.6,6.11-3.77,9.7-2.68l1.44,.44-.44,1.44c-1.23,4.07-4.97,6.69-9.01,6.69-.91,0-1.83-.13-2.74-.41-.14-.04-.27-.11-.39-.19-.86,3.59-1.5,7.26-1.89,10.96-.04,.46-.07,.92-.11,1.37,1.82-3.98,6-6.58,10.61-6.17l1.69,.16-.15,1.69c-.53,5.84-5.69,10.15-11.53,9.62-.35-.03-.66-.16-.91-.36-.04,.86-.05,1.71-.05,2.56,0,3.38,.2,6.75,.59,10.01l.01,.07c.05,.41,.11,.82,.17,1.23,.89-4.58,4.58-8.32,9.46-9.03l1.79-.26,.26,1.79c.08,.56,.12,1.11,.12,1.66,0,5.52-4.05,10.35-9.68,11.18-.09,.01-.17,.02-.25,.02-.32,0-.62-.09-.88-.23,.81,4.14,1.95,8.27,3.38,12.27,.03,.09,.07,.17,.1,.25,.26-4.62,3.24-8.85,7.89-10.47l1.78-.62,.62,1.78c2.14,6.15-1.11,12.87-7.26,15.01-.23,.08-.46,.11-.69,.1,1.56,3.47,3.35,6.84,5.32,10,.18,.28,.37,.57,.55,.85-1.13-4.87,.81-10.15,5.24-13.03l1.65-1.07,1.07,1.64c3.68,5.67,2.08,13.26-3.59,16.95-.34,.22-.72,.32-1.09,.31,2.49,3.37,5.23,6.56,8.14,9.49-1.81-4.57-.87-9.98,2.84-13.67l1.43-1.43,1.43,1.43c4.94,4.96,4.92,12.98-.04,17.92-.18,.19-.39,.32-.62,.42,3.25,2.79,6.71,5.33,10.33,7.58-2.72-4.14-2.97-9.65-.16-14.11l1.11-1.77,1.77,1.11c6.09,3.84,7.91,11.88,4.08,17.97-.1,.16-.23,.3-.37,.43,3.81,1.94,7.8,3.61,11.9,4.96-.81-.63-1.55-1.33-2.2-2.11-.55-.65-1.04-1.36-1.47-2.1,.24,.08,.5,.12,.77,.12h7.18c.09,.91,.86,1.61,1.79,1.61h2.38Z"/>
    </g>
    <g>
      <g>
        <path class="cls-1" d="M80.866,31.537h-2.36l-.488,1.11h-.653l2.011-4.44h.628l2.017,4.44h-.666l-.488-1.11Zm-.222-.507l-.958-2.176-.958,2.176h1.916Z"/>
        <path class="cls-1" d="M84.745,32.403c-.357-.197-.637-.467-.84-.812-.203-.345-.304-.733-.304-1.164s.101-.819,.304-1.164c.203-.345,.484-.615,.844-.812,.359-.197,.761-.295,1.205-.295,.347,0,.664,.058,.951,.174,.288,.116,.533,.289,.736,.517l-.412,.4c-.334-.351-.751-.526-1.249-.526-.33,0-.628,.074-.894,.222-.266,.148-.475,.352-.625,.612-.15,.26-.225,.551-.225,.872s.075,.612,.225,.872c.15,.26,.358,.464,.625,.612,.266,.148,.564,.222,.894,.222,.495,0,.911-.178,1.249-.533l.412,.4c-.203,.228-.449,.402-.739,.52-.29,.118-.608,.178-.955,.178-.444,0-.845-.098-1.202-.295Z"/>
        <path class="cls-1" d="M92.613,31.537h-2.36l-.488,1.11h-.653l2.011-4.44h.628l2.017,4.44h-.666l-.488-1.11Zm-.222-.507l-.958-2.176-.958,2.176h1.916Z"/>
        <path class="cls-1" d="M95.772,28.207h1.871c.469,0,.886,.093,1.25,.279,.364,.186,.646,.447,.847,.783,.201,.336,.301,.722,.301,1.158s-.1,.821-.301,1.158c-.201,.336-.483,.597-.847,.783-.364,.186-.78,.279-1.25,.279h-1.871v-4.44Zm1.833,3.888c.359,0,.675-.07,.948-.209,.273-.14,.483-.335,.631-.587,.148-.252,.222-.542,.222-.872s-.074-.621-.222-.872c-.148-.252-.358-.447-.631-.587-.273-.14-.589-.209-.948-.209h-1.199v3.336h1.199Z"/>
        <path class="cls-1" d="M105.577,32.096v.552h-3.222v-4.44h3.133v.552h-2.499v1.364h2.226v.539h-2.226v1.433h2.588Z"/>
        <path class="cls-1" d="M112.066,32.647l-.006-3.235-1.605,2.696h-.292l-1.605-2.677v3.216h-.609v-4.44h.52l1.852,3.121,1.827-3.121h.52l.006,4.44h-.609Z"/>
        <path class="cls-1" d="M115.351,28.207h.634v4.44h-.634v-4.44Z"/>
        <path class="cls-1" d="M121.491,31.537h-2.36l-.488,1.11h-.653l2.011-4.44h.628l2.017,4.44h-.666l-.488-1.11Zm-.222-.507l-.958-2.176-.958,2.176h1.915Z"/>
      </g>
      <path class="cls-1" d="M66.258,37.251h-2.594v13.549h2.943v-7.954l2.686,4.414c.008-.019,.017-.038,.025-.056l.029-.056,.129-.214,1.292-2.198-4.51-7.486Z"/>
      <path class="cls-1" d="M78.899,37.251h-2.575l-4.995,8.421-.003-.005-1.035,1.758-.109,.182-.005,.01c-.076,.159-.117,.336-.117,.524,0,.646,.497,1.176,1.127,1.228h.209c.367-.03,.687-.222,.892-.503l.111-.187s.002-.002,.002-.003l3.575-6.004,.021,8.131h2.942l-.038-13.551Zm-7.589,11.248c-.219,0-.397-.178-.397-.397s.178-.397,.397-.397,.397,.178,.397,.397-.178,.397-.397,.397Z"/>
      <path class="cls-1" d="M87.249,41.148l-1.211-3.064-5.668,12.716h3.213l.851-2.061c-.852-.286-1.46-1.089-1.46-2.036,0-1.179,.958-2.142,2.137-2.147l1.074,.006,1.238-2.991-.175-.424Z"/>
      <path class="cls-1" d="M89.507,37.251h-2.774l1.395,3.534,1.96,4.733h-4.297l.002-.005-.666-.005h-.01c-.659,.003-1.19,.538-1.19,1.196,0,.639,.503,1.163,1.135,1.193h6.014l1.201,2.904h3.291l-6.06-13.551Zm-4.287,9.79c-.219,0-.397-.178-.397-.397s.178-.397,.397-.397,.397,.178,.397,.397-.178,.397-.397,.397Z"/>
      <path class="cls-1" d="M104.587,44.076l-.067-.084c-.271-.314-.673-.513-1.12-.513-.819,0-1.482,.665-1.482,1.482,0,.306,.092,.592,.252,.83,.003,.003,.006,.008,.01,.013l.141,.175,3.93,4.824h3.659l-5.324-6.726Zm-1.168,1.247c-.219,0-.397-.178-.397-.397s.178-.397,.397-.397,.397,.178,.397,.397-.178,.397-.397,.397Z"/>
      <path class="cls-1" d="M106.096,37.251l-6.001,6.33v-6.33h-3.116v13.549h3.116v-3.424l1.179-1.23c-.203-.359-.308-.768-.308-1.187,0-1.341,1.092-2.432,2.434-2.432,.37,0,.73,.084,1.054,.241l5.127-5.517h-3.485Z"/>
      <path class="cls-1" d="M114.42,48.285v-2.204c-1.057-.154-1.863-1.071-1.863-2.156,0-1.077,.798-1.999,1.863-2.155v-2.004h7.124v-2.515h-10.241v13.549h10.492v-2.515h-7.375Z"/>
      <path class="cls-1" d="M114.574,42.711c-.601,.079-1.065,.593-1.065,1.215,0,.649,.505,1.181,1.142,1.223h6.06v-2.439h-6.138Zm.136,1.553c-.219,0-.397-.178-.397-.397,0-.221,.178-.397,.397-.397,.221,0,.397,.176,.397,.397,0,.219-.176,.397-.397,.397Z"/>
      <path class="cls-1" d="M135.327,39.555c-.478-.736-1.158-1.303-2.042-1.704-.884-.4-1.926-.6-3.126-.6h-.919v.002h-3.681c-.351,.003-.668,.146-.897,.376-.228,.23-.37,.547-.37,.901,0,.7,.565,1.269,1.266,1.274l3.805,.002h.62c.941,0,1.658,.203,2.148,.609,.49,.408,.736,.99,.736,1.752,0,.749-.246,1.33-.736,1.742-.49,.413-1.208,.619-2.148,.619h-2.556v-3.767l-1.869-.002c-.487-.003-.931-.189-1.266-.49v10.532h3.135v-3.775h2.377c.105-1.188,1.106-2.125,2.321-2.125,.763,0,1.479,.374,1.914,1.003l.059,.084c.493-.332,.9-.738,1.219-1.217,.484-.728,.725-1.598,.725-2.604s-.238-1.877-.716-2.612Zm-9.722-.633c-.219,0-.397-.178-.397-.397s.178-.397,.397-.397,.397,.178,.397,.397-.178,.397-.397,.397Z"/>
      <path class="cls-1" d="M133.826,47.262l-.52-.746s-.006-.011-.01-.014c-.006-.01-.013-.019-.019-.029l-.021-.029h.002c-.248-.357-.662-.592-1.131-.592-.762,0-1.379,.617-1.379,1.379,0,.251,.067,.484,.184,.687l.041,.059,.089,.129s0,.002,.002,.003l1.863,2.691h3.369l-2.469-3.538Zm-1.679,.263c-.217,0-.397-.179-.397-.397,0-.221,.179-.397,.397-.397,.221,0,.397,.176,.397,.397,0,.217-.176,.397-.397,.397Z"/>
    </g>
    <g>
      <path class="cls-1" d="M99.217,61.632c-23.728,0-43.032,19.304-43.032,43.023,0,15.277,8.215,29.542,21.431,37.228l1.56,.908v-19.332c1.787-.246,3.365-1.125,4.509-2.401,1.399,.577,2.571,.898,3.432,.898,.369,0,.681-.057,.926-.17,.444-.208,.718-.605,.766-1.078,.104-1.238-1.437-2.846-3.214-4.282,0-.123,.019-.236,.019-.359,0-1.021-.208-1.985-.577-2.874,3.838-3.337,3.12-4.424,2.846-4.84-.879-1.295-3.696-.435-6.353,1.068-1.021-.52-2.165-.822-3.394-.822-1.163,0-2.259,.274-3.243,.747-2.619-1.456-5.351-2.269-6.22-.993-.274,.407-.974,1.465,2.647,4.67-.416,.936-.652,1.957-.652,3.044,0,.189,.019,.388,.028,.577-1.664,1.371-3.044,2.893-2.949,4.065,.047,.473,.321,.87,.766,1.078,.246,.113,.558,.17,.926,.17,.822,0,1.919-.284,3.233-.813,1.144,1.229,2.694,2.07,4.434,2.316v15.683c-11.675-7.506-18.85-20.552-18.85-34.486,0-22.584,18.378-40.953,40.962-40.953s40.953,18.368,40.953,40.953c0,13.934-7.175,26.98-18.841,34.486v-35.469h1.276l-.009-3.583c.482-.161,.945-.35,1.39-.614,.425-.246,.804-.52,1.153-.832l3.082,1.768,2.316-4.027-3.063-1.758c.199-.964,.208-1.976,0-2.968l3.035-1.758-2.335-4.018-3.025,1.758c-.766-.662-1.645-1.153-2.59-1.456l-.009-3.536-4.642,.019,.009,3.545c-.444,.151-.879,.35-1.295,.596-.444,.255-.86,.558-1.229,.898l-3.101-1.777-2.307,4.027,3.129,1.796c-.189,.964-.18,1.938,.019,2.874l-3.12,1.815,2.326,4.008,3.12-1.806c.728,.633,1.569,1.116,2.496,1.437l.009,3.611,1.286-.009v39.109l1.56-.908c13.225-7.686,21.431-21.951,21.431-37.228,0-23.719-19.295-43.023-43.023-43.023Zm-13.887,56.437c1.522,1.324,1.995,2.146,2.051,2.448-.284,.076-1.182,.009-2.827-.643,.331-.558,.596-1.163,.775-1.806Zm1.333-8.915c-.057,.236-.397,1.049-2.316,2.751-.406-.596-.898-1.144-1.456-1.598,1.976-1.021,3.365-1.257,3.772-1.153Zm-4.661,6.438c.019,.151,.047,.312,.047,.473,0,.832-.274,1.607-.718,2.24-.539-.303-1.125-.652-1.749-1.03,.369-.246,.728-.482,1.106-.747,.463-.331,.898-.633,1.314-.936Zm-3.867-3.432c1.465,0,2.723,.813,3.394,2.004-.501,.378-1.049,.766-1.664,1.191-.558,.397-1.078,.747-1.588,1.078-.511-.331-1.04-.681-1.598-1.078-.681-.473-1.295-.917-1.853-1.333,.69-1.116,1.91-1.862,3.309-1.862Zm-8.962,8.357c.047-.293,.473-1.049,1.825-2.259,.189,.605,.454,1.172,.775,1.702-1.503,.577-2.326,.633-2.6,.558Zm2.874-8.754c-1.777-1.607-2.099-2.373-2.155-2.609,.397-.104,1.711,.113,3.611,1.068-.558,.435-1.049,.955-1.456,1.541Zm2.184,4.301c0-.227,.028-.444,.066-.662,.482,.359,1.002,.728,1.569,1.125,.378,.265,.737,.501,1.106,.747-.7,.425-1.342,.804-1.938,1.134-.492-.652-.804-1.456-.804-2.344Zm1.919,3.347c.681-.388,1.39-.813,2.127-1.286,.69,.435,1.352,.841,1.995,1.201-.615,.406-1.342,.643-2.136,.643-.728,0-1.399-.208-1.985-.558Zm44.157-22.509c-.321,0-.643-.038-.964-.123-.974-.255-1.787-.879-2.297-1.749-.501-.87-.643-1.881-.378-2.855,.255-.974,.879-1.787,1.739-2.288,.586-.34,1.238-.52,1.891-.52,.321,0,.652,.047,.974,.132,.964,.255,1.787,.879,2.288,1.749,1.04,1.796,.435,4.103-1.361,5.143-.586,.34-1.229,.51-1.891,.51Z"/>
      <path class="cls-1" d="M99.217,97.187c-4.122,0-7.478,3.356-7.478,7.468,0,3.772,2.808,6.892,6.438,7.393v35.933h2.07v-35.933c3.63-.501,6.438-3.621,6.438-7.393,0-4.112-3.356-7.468-7.468-7.468Zm0,11.382c-2.155,0-3.914-1.758-3.914-3.914s1.758-3.904,3.914-3.904,3.904,1.758,3.904,3.904-1.749,3.914-3.904,3.914Z"/>
    </g>
    <g>
      <path class="cls-1" d="M118.929,151.15h-39.43c-2.52,0-4.57,2.04-4.57,4.56v.78c0,2.52,2.05,4.57,4.57,4.57h39.43c2.52,0,4.56-2.05,4.56-4.57v-.78c0-2.52-2.04-4.56-4.56-4.56Zm2.58,5.34c0,1.43-1.16,2.58-2.58,2.58h-39.43c-1.43,0-2.58-1.15-2.58-2.58v-.78c0-1.42,1.15-2.58,2.58-2.58h39.43c1.42,0,2.58,1.16,2.58,2.58v.78Z"/>
      <path class="cls-1" d="M126.097,179.001h-53.584c-4.119,0-7.471-3.352-7.471-7.471s3.352-7.471,7.471-7.471h53.584c4.119,0,7.471,3.352,7.471,7.471s-3.352,7.471-7.471,7.471Zm-53.584-12.957c-3.025,0-5.486,2.461-5.486,5.486s2.461,5.486,5.486,5.486h53.584c3.025,0,5.486-2.461,5.486-5.486s-2.461-5.486-5.486-5.486h-53.584Z"/>
    </g>
    <path class="cls-3" d="M99.231,201.004h0c-16.575,0-23.413-8.209-23.413-18.106h0s45.862,0,45.862,0h0c0,11.833-10.269,18.106-22.448,18.106Z"/>
  </g>
  <g id="CORTE">
    <path class="cls-2" d="M184.57,117.262c-.74,3.8-1.73,7.5-2.95,11.1,2.12-1.82,4.83-2.84,7.65-2.84,1.29,0,2.6,.21,3.88,.66l1.78,.62-.62,1.79c-2.14,6.15-8.86,9.4-15.01,7.26-.18-.07-.35-.16-.5-.27-1.43,3.23-3.04,6.35-4.84,9.35,1.66-.81,3.48-1.22,5.32-1.22,2.29,0,4.61,.64,6.67,1.98l1.64,1.07-1.07,1.64c-3.69,5.67-11.27,7.28-16.94,3.59l-.21-.15c-2.22,3.05-4.65,5.94-7.24,8.66,1.11-.32,2.27-.48,3.42-.48,3.23,0,6.46,1.23,8.93,3.69l1.44,1.44-1.43,1.43c-4.94,4.96-12.96,4.98-17.92,.04-.14-.14-.26-.3-.34-.48-3.08,2.67-6.35,5.13-9.78,7.36,.24-.01,.48-.02,.72-.02,4.33,0,8.56,2.16,11.03,6.09l1.12,1.76-1.77,1.11c-6.09,3.84-14.13,2.01-17.96-4.08-.14-.22-.23-.46-.27-.7-3.66,1.92-7.48,3.58-11.43,4.96,4.92,1.27,9.01,5.11,10.33,10.39l.56,2.22-2.22,.55c-5.96,1.49-11.98-.99-15.27-5.78-1.787,7.621-13.869,12.18-22.44,12.18-9.34,0-19.72-3.55-22.2-11.29-3.38,4.2-9.02,6.29-14.6,4.89l-2.22-.55,.56-2.22c1.29-5.16,5.23-8.95,10.01-10.29-3.86-1.34-7.59-2.94-11.18-4.78-.05,.14-.11,.28-.2,.42-3.83,6.09-11.87,7.92-17.96,4.08l-1.76-1.11,1.11-1.76c2.47-3.93,6.7-6.09,11.03-6.09h.11c-3.29-2.12-6.42-4.47-9.38-7.02-.03,.06-.08,.11-.13,.16-4.96,4.94-12.98,4.92-17.92-.04l-1.43-1.43,1.44-1.44c2.47-2.46,5.71-3.69,8.94-3.69,.88,0,1.77,.09,2.64,.28-2.46-2.58-4.75-5.32-6.87-8.19-5.65,3.53-13.1,1.9-16.75-3.71l-1.07-1.64,1.64-1.07c2.06-1.34,4.38-1.98,6.67-1.98,1.55,0,3.08,.29,4.52,.86-1.68-2.81-3.18-5.73-4.53-8.73l-.01,.01c-6.15,2.14-12.87-1.11-15.01-7.26l-.62-1.79,1.78-.62c1.28-.45,2.59-.66,3.88-.66,2.47,0,4.85,.78,6.83,2.19-1.11-3.37-2.03-6.84-2.72-10.38-5.99,.62-11.46-3.6-12.35-9.62l-.26-1.79,1.79-.26c.55-.08,1.1-.12,1.65-.12,3.03,0,5.85,1.21,7.91,3.23-.27-2.79-.41-5.61-.41-8.47,0-.86,.01-1.72,.04-2.57-5.56-.78-9.59-5.8-9.08-11.47l.15-1.69,1.7,.15c3.32,.3,6.14,2.1,7.87,4.68,.4-3.26,.99-6.46,1.75-9.59-4.77-1.63-7.42-6.77-5.94-11.63l.44-1.44,1.44,.44c2.89,.87,5.05,3.01,6.05,5.63,1.07-3.22,2.32-6.36,3.74-9.39-3.93-2.36-5.49-7.37-3.48-11.6l.63-1.31,1.3,.63c2.52,1.19,4.22,3.4,4.86,5.91,1.69-2.96,3.56-5.82,5.58-8.55-3.19-2.88-3.76-7.76-1.18-11.32l.8-1.1,1.1,.8c2.14,1.56,3.34,3.91,3.5,6.36,2.5-2.89,5.19-5.62,8.05-8.16-1.72-2.56-1.38-6.07,.95-8.26l.75-.71,.71,.75c1.17,1.24,1.75,2.84,1.75,4.43,0,.11,0,.22-.02,.33,3.07-2.4,6.3-4.6,9.67-6.59-.76-2.11-.07-4.5,1.73-5.88,.01-4.45,2.79-10.01,5.49-11.24,.05-.03,.1-.05,.15-.07,.59-.24,1.19-.47,1.79-.69,.01-.01,.02-.01,.03-.01,10.29-3.9,22.106-6.14,33.696-6.38V7.283c-9.56,.2-19.796,2.06-28.866,5.56-1.05,.4-1.55,1.61-1.12,2.65,.15,.35,.3,.71,.44,1.06,.43,1.02,1.58,1.5,2.62,1.1,18-6.92,37.94-6.92,55.94,0,1.04,.4,2.2-.08,2.62-1.1l.44-1.06c.43-1.04-.07-2.25-1.12-2.65-8.83-3.4-18.81-5.25-28.12-5.53V.762c13.26,.28,26.58,3.16,38.07,8.16,2.07,1.36,3.78,6.96,3.64,10.63,1.8,1.42,2.45,3.87,1.61,6,3.3,1.98,6.46,4.18,9.46,6.58-.04-.28-.06-.56-.06-.85,0-1.59,.58-3.18,1.75-4.42l.71-.75,.75,.71c2.43,2.28,2.69,6.01,.72,8.6,2.95,2.64,5.72,5.48,8.28,8.51v-.16c0-2.63,1.21-5.22,3.5-6.89l1.1-.8,.8,1.1c2.68,3.69,1.97,8.82-1.55,11.64,2.11,2.87,4.05,5.88,5.8,9.01,.45-2.82,2.24-5.38,5.01-6.69l1.3-.63,.63,1.31c2.09,4.39,.32,9.63-3.95,11.87,1.5,3.24,2.81,6.59,3.9,10.04,.82-3.03,3.14-5.58,6.36-6.55l1.44-.44,.44,1.44c1.51,4.98-1.3,10.24-6.28,11.75-.08,.02-.15,.04-.22,.05,.81,3.35,1.42,6.78,1.81,10.26,1.63-3.02,4.7-5.19,8.37-5.52l1.7-.15,.15,1.69c.53,5.85-3.78,11.01-9.62,11.54h-.06c.03,.83,.04,1.66,.04,2.5,0,3.1-.16,6.17-.48,9.19,2.1-2.45,5.21-3.95,8.58-3.95,.55,0,1.1,.04,1.65,.12l1.79,.26-.26,1.79c-.91,6.19-6.65,10.47-12.84,9.57-.03-.01-.07-.01-.1-.02Z"/>
  </g>
</svg>