<?xml version="1.0" encoding="UTF-8" standalone="no"?>
<!-- Created with Inkscape (http://www.inkscape.org/) -->

<svg
   xmlns:dc="http://purl.org/dc/elements/1.1/"
   xmlns:cc="http://creativecommons.org/ns#"
   xmlns:rdf="http://www.w3.org/1999/02/22-rdf-syntax-ns#"
   xmlns:svg="http://www.w3.org/2000/svg"
   xmlns="http://www.w3.org/2000/svg"
   xmlns:sodipodi="http://sodipodi.sourceforge.net/DTD/sodipodi-0.dtd"
   xmlns:inkscape="http://www.inkscape.org/namespaces/inkscape"
   width="210mm"
   height="297mm"
   viewBox="0 0 210 297"
   version="1.1"
   id="svg8"
   inkscape:version="0.92.4 (5da689c313, 2019-01-14)"
   sodipodi:docname="medalla.svg">
  <defs
     id="defs2">
    <style
       id="style4518">
      .cls-1 {
        fill: #007fc6;
      }

      .cls-2 {
        stroke: #1dff1b;
        stroke-width: .567px;
      }

      .cls-2, .cls-3 {
        fill: none;
        stroke-miterlimit: 10;
      }

      .cls-3 {
        stroke: #007fc6;
        stroke-width: 1.984px;
      }
    </style>
  </defs>
  <sodipodi:namedview
     id="base"
     pagecolor="#ffffff"
     bordercolor="#666666"
     borderopacity="1.0"
     inkscape:pageopacity="0.0"
     inkscape:pageshadow="2"
     inkscape:zoom="3.6203867"
     inkscape:cx="288.96203"
     inkscape:cy="958.4845"
     inkscape:document-units="mm"
     inkscape:current-layer="layer1"
     showgrid="false"
     inkscape:window-width="1920"
     inkscape:window-height="1017"
     inkscape:window-x="-8"
     inkscape:window-y="-8"
     inkscape:window-maximized="1" />
  <metadata
     id="metadata5">
    <rdf:RDF>
      <cc:Work
         rdf:about="">
        <dc:format>image/svg+xml</dc:format>
        <dc:type
           rdf:resource="http://purl.org/dc/dcmitype/StillImage" />
        <dc:title></dc:title>
      </cc:Work>
    </rdf:RDF>
  </metadata>
  <g
     inkscape:label="Capa 1"
     inkscape:groupmode="layer"
     id="layer1">
    <g
       id="g4626"
       transform="matrix(0.35430012,0,0,0.35430012,56.077829,22.178923)">
      <g
         id="GRABADO">
        <g
           id="g4526">
          <path
             id="path4522"
             d="m 184.299,117.18 c -0.77,3.93 -1.82,7.81 -3.12,11.58 3.1,-2.93 7.67,-4.07 11.97,-2.58 l 1.78,0.62 -0.62,1.79 c -2.14,6.15 -8.86,9.4 -15.01,7.26 -0.28,-0.1 -0.51,-0.26 -0.71,-0.45 l -0.01,0.03 c -1.49,3.36 -3.19,6.61 -5.06,9.71 3.81,-2.02 8.56,-1.97 12.43,0.55 l 1.64,1.07 -1.07,1.64 c -3.69,5.67 -11.27,7.28 -16.94,3.59 -0.15,-0.1 -0.27,-0.21 -0.38,-0.34 -2.32,3.17 -4.86,6.18 -7.59,9.01 4.38,-1.43 9.39,-0.42 12.87,3.05 l 1.44,1.44 -1.43,1.43 c -2.48,2.49 -5.73,3.73 -8.98,3.73 -3.23,0 -6.47,-1.23 -8.94,-3.69 -0.21,-0.21 -0.36,-0.45 -0.46,-0.71 -3.2,2.8 -6.63,5.35 -10.21,7.65 4.75,-0.47 9.59,1.69 12.3,6.01 l 1.12,1.76 -1.77,1.11 c -6.09,3.84 -14.13,2.01 -17.96,-4.08 -0.19,-0.29 -0.28,-0.61 -0.31,-0.93 -0.01,0 -0.02,0.01 -0.04,0.02 -3.82,2 -7.79,3.69 -11.81,5.08 5.12,1.13 9.43,5.04 10.79,10.48 l 0.56,2.22 -2.22,0.55 c -5.96,1.49 -11.98,-0.99 -15.27,-5.78 -0.79,-1.16 -1.43,-2.45 -1.86,-3.85 -0.08,-0.25 -0.15,-0.51 -0.22,-0.77 -0.13,-0.52 -0.06,-1.03 0.14,-1.48 l -0.11,-0.49 c -0.51,-0.3 -0.92,-0.8 -1.07,-1.42 -0.1,-0.39 -0.18,-0.78 -0.23,-1.17 -0.11,-0.6 -0.17,-1.22 -0.19,-1.82 -0.01,-0.12 -0.01,-0.25 -0.01,-0.37 h 1.47 c 0.93,0 1.7,-0.7 1.79,-1.61 h 7.91 c 0.35,0 0.69,-0.07 0.99,-0.2 -0.44,0.77 -0.94,1.5 -1.52,2.18 -0.53,0.63 -1.13,1.22 -1.77,1.76 3.83,-1.31 7.62,-2.92 11.29,-4.81 -0.06,-0.08 -0.13,-0.15 -0.18,-0.23 -3.83,-6.09 -2,-14.13 4.08,-17.97 l 1.77,-1.11 1.11,1.77 c 2.67,4.24 2.58,9.43 0.23,13.48 3.37,-2.17 6.57,-4.55 9.58,-7.15 -0.09,-0.07 -0.18,-0.14 -0.26,-0.22 -4.96,-4.94 -4.98,-12.96 -0.04,-17.92 l 1.43,-1.43 1.44,1.43 c 3.45,3.43 4.5,8.36 3.16,12.71 2.61,-2.71 5.04,-5.59 7.26,-8.61 -0.18,-0.05 -0.37,-0.12 -0.54,-0.23 -5.67,-3.69 -7.27,-11.28 -3.58,-16.95 l 1.06,-1.64 1.65,1.07 c 4.04,2.63 6,7.24 5.47,11.73 1.87,-3.07 3.58,-6.29 5.07,-9.62 -0.04,-0.01 -0.08,-0.01 -0.12,-0.03 -6.15,-2.14 -9.4,-8.86 -7.26,-15.01 l 0.62,-1.78 1.78,0.62 c 4.21,1.46 7.05,5.07 7.75,9.17 1.23,-3.58 2.23,-7.27 2.97,-11.01 -0.15,0.01 -0.31,0.02 -0.48,0 -6.19,-0.91 -10.47,-6.66 -9.56,-12.84 l 0.26,-1.79 1.79,0.26 c 4.34,0.63 7.73,3.65 9.06,7.52 0.38,-3.25 0.58,-6.54 0.58,-9.8 0,-0.76 -0.02,-1.51 -0.04,-2.26 -0.11,0.03 -0.21,0.05 -0.32,0.06 -5.85,0.53 -11.01,-3.78 -11.54,-9.62 l -0.15,-1.69 1.69,-0.16 c 4.08,-0.36 7.82,1.63 9.89,4.84 -0.37,-3.6 -0.97,-7.23 -1.81,-10.77 -4.94,1.41 -10.12,-1.39 -11.61,-6.32 l -0.44,-1.44 1.44,-0.44 c 3.18,-0.97 6.48,-0.16 8.84,1.84 -1.07,-3.32 -2.32,-6.55 -3.76,-9.66 -0.08,0.07 -0.18,0.13 -0.28,0.18 -4.5,2.14 -9.89,0.24 -12.04,-4.27 l -0.62,-1.3 1.3,-0.62 c 2.99,-1.43 6.37,-1.06 8.93,0.66 -1.75,-3.17 -3.71,-6.26 -5.86,-9.19 -0.06,0.06 -0.1,0.13 -0.17,0.19 -3.8,2.76 -9.12,1.92 -11.89,-1.88 l -0.8,-1.1 1.1,-0.8 c 2.44,-1.77 5.49,-2.05 8.1,-1.04 -2.52,-2.99 -5.24,-5.81 -8.15,-8.43 q -0.01,0.01 -0.01,0.02 c -2.45,2.59 -6.53,2.71 -9.13,0.27 l -0.75,-0.71 0.71,-0.75 c 1.46,-1.55 3.49,-2.21 5.45,-1.98 -2.81,-2.26 -5.76,-4.34 -8.8,-6.19 l -0.14,-0.05 -0.09,-0.09 c -0.09,-0.06 -0.19,-0.11 -0.28,-0.17 -1.48,2.47 -4.68,3.27 -7.15,1.8 l -0.72,-0.43 0.43,-0.72 c 1.24,-2.07 3.68,-2.95 5.89,-2.32 -1.64,-1.65 -2.04,-4.25 -0.79,-6.35 l 0.42,-0.71 0.72,0.42 c 2.29,1.37 3.13,4.2 2.08,6.58 0.17,0.1 0.34,0.2 0.51,0.3 l 0.03,0.02 c 3.25,1.98 6.35,4.18 9.3,6.56 -0.43,-2.01 0.1,-4.18 1.61,-5.79 l 0.71,-0.75 0.75,0.71 c 2.51,2.36 2.7,6.25 0.5,8.85 3.09,2.78 5.94,5.74 8.54,8.85 -0.26,-2.87 0.95,-5.81 3.46,-7.64 l 1.1,-0.8 0.8,1.1 c 2.75,3.78 1.93,9.06 -1.81,11.83 2.2,3 4.2,6.14 5.98,9.37 0.31,-3.03 2.14,-5.84 5.09,-7.24 l 1.3,-0.63 0.63,1.31 c 2.14,4.49 0.24,9.87 -4.24,12.02 1.56,3.35 2.91,6.89 4.05,10.5 0.66,-3.29 3.06,-6.12 6.5,-7.16 l 1.44,-0.44 0.44,1.44 c 0.28,0.91 0.41,1.83 0.41,2.74 0,4.04 -2.62,7.78 -6.69,9.01 -0.18,0.06 -0.36,0.07 -0.53,0.06 0,0.01 0,0.02 0.01,0.03 0.84,3.5 1.46,7.1 1.85,10.73 1.56,-3.28 4.76,-5.67 8.63,-6.03 l 1.7,-0.15 0.15,1.69 c 0.53,5.85 -3.78,11.01 -9.62,11.54 -0.12,0.01 -0.24,0 -0.36,-0.01 0.03,0.85 0.05,1.71 0.05,2.58 0,3.18 -0.19,6.38 -0.53,9.55 2.42,-3.11 6.39,-4.87 10.57,-4.26 l 1.79,0.26 -0.26,1.79 c -0.91,6.19 -6.65,10.47 -12.84,9.57 -0.13,-0.02 -0.25,-0.05 -0.37,-0.1 z"
             class="cls-1"
             inkscape:connector-curvature="0"
             style="fill:#007fc6" />
          <path
             id="path4524"
             d="m 80.869,178.63 c 0,0.12 0,0.25 -0.01,0.37 -0.02,0.6 -0.08,1.22 -0.19,1.82 -0.05,0.39 -0.13,0.78 -0.23,1.17 -0.14,0.57 -0.5,1.04 -0.95,1.34 l -0.16,0.72 c 0.15,0.41 0.19,0.87 0.07,1.33 -0.07,0.26 -0.14,0.52 -0.21,0.77 -0.56,1.77 -1.43,3.37 -2.54,4.74 -3.38,4.2 -9.02,6.29 -14.6,4.89 l -2.22,-0.55 0.56,-2.22 c 1.33,-5.31 5.46,-9.17 10.42,-10.41 -3.97,-1.36 -7.83,-2.99 -11.52,-4.9 -0.05,0.23 -0.13,0.45 -0.27,0.66 -3.83,6.09 -11.87,7.92 -17.96,4.08 l -1.76,-1.11 1.11,-1.76 c 2.59,-4.11 7.1,-6.27 11.63,-6.07 -3.4,-2.18 -6.67,-4.6 -9.72,-7.24 -0.08,0.13 -0.17,0.25 -0.28,0.36 -4.96,4.94 -12.98,4.92 -17.92,-0.04 l -1.43,-1.43 1.44,-1.44 c 3.27,-3.26 7.88,-4.34 12.06,-3.28 -2.54,-2.65 -4.94,-5.48 -7.14,-8.45 q -0.01,0 -0.02,0.01 c -5.67,3.69 -13.25,2.08 -16.94,-3.59 l -1.07,-1.64 1.64,-1.07 c 3.59,-2.34 7.95,-2.54 11.6,-0.94 -1.71,-2.87 -3.29,-5.9 -4.69,-9.03 -0.08,0.05 -0.17,0.09 -0.26,0.13 -6.15,2.14 -12.87,-1.11 -15.01,-7.26 l -0.62,-1.79 1.78,-0.62 c 3.93,-1.36 8.08,-0.52 11.13,1.86 -1.18,-3.53 -2.15,-7.13 -2.86,-10.74 -6.1,0.78 -11.73,-3.47 -12.63,-9.59 l -0.26,-1.79 1.79,-0.26 c 3.81,-0.56 7.45,0.86 9.9,3.47 -0.29,-2.88 -0.45,-5.81 -0.45,-8.76 0,-0.87 0.01,-1.74 0.05,-2.61 -5.72,-0.64 -9.91,-5.73 -9.39,-11.5 l 0.15,-1.69 1.7,0.15 c 3.5,0.32 6.45,2.31 8.13,5.11 0.41,-3.35 1.01,-6.68 1.79,-9.91 -4.95,-1.53 -7.75,-6.77 -6.24,-11.74 l 0.44,-1.44 1.44,0.44 c 3.08,0.93 5.33,3.3 6.24,6.15 1.08,-3.32 2.36,-6.59 3.84,-9.74 -4.14,-2.3 -5.83,-7.44 -3.77,-11.77 l 0.63,-1.31 1.3,0.63 c 2.68,1.27 4.43,3.71 4.97,6.41 1.74,-3.07 3.66,-6.04 5.73,-8.84 -3.42,-2.84 -4.09,-7.88 -1.44,-11.53 l 0.8,-1.1 1.1,0.8 c 2.29,1.67 3.5,4.27 3.5,6.9 2.51,-2.94 5.29,-5.79 8.24,-8.42 -1.93,-2.59 -1.65,-6.27 0.76,-8.54 l 0.75,-0.71 0.71,0.75 c 1.38,1.46 1.94,3.4 1.7,5.25 2.8,-2.22 5.76,-4.29 8.83,-6.14 0.42,-0.26 0.8,-0.49 1.17,-0.71 -1.04,-2.37 -0.2,-5.2 2.08,-6.56 l 0.72,-0.43 0.43,0.71 c 1.24,2.1 0.84,4.7 -0.8,6.35 2.21,-0.63 4.66,0.26 5.89,2.33 l 0.43,0.71 -0.72,0.43 c -2.47,1.48 -5.67,0.67 -7.15,-1.8 -0.33,0.19 -0.67,0.4 -1.04,0.63 -3.24,1.95 -6.35,4.13 -9.27,6.5 2.17,-0.52 4.56,0.1 6.2,1.85 l 0.71,0.75 -0.75,0.71 c -1.25,1.17 -2.84,1.75 -4.43,1.75 -1.72,0 -3.43,-0.67 -4.7,-2.02 -0.1,-0.11 -0.17,-0.23 -0.22,-0.36 l -0.28,0.24 c -3.11,2.79 -6.02,5.82 -8.67,9.01 2.8,-1.54 6.35,-1.44 9.11,0.56 l 1.1,0.8 -0.8,1.1 c -2.77,3.8 -8.09,4.64 -11.89,1.88 -0.22,-0.17 -0.35,-0.39 -0.44,-0.63 -0.02,0.03 -0.03,0.04 -0.05,0.07 -2.25,3.02 -4.32,6.25 -6.16,9.6 l -0.12,0.23 c -0.1,0.17 -0.18,0.35 -0.28,0.52 2.63,-2.38 6.54,-3.08 9.95,-1.45 l 1.3,0.62 -0.62,1.3 c -2.15,4.51 -7.54,6.41 -12.04,4.27 -0.29,-0.14 -0.52,-0.37 -0.66,-0.64 -0.01,0.03 -0.03,0.06 -0.04,0.09 -1.65,3.51 -3.06,7.16 -4.2,10.87 2.37,-2.6 6.11,-3.77 9.7,-2.68 l 1.44,0.44 -0.44,1.44 c -1.23,4.07 -4.97,6.69 -9.01,6.69 -0.91,0 -1.83,-0.13 -2.74,-0.41 -0.14,-0.04 -0.27,-0.11 -0.39,-0.19 -0.86,3.59 -1.5,7.26 -1.89,10.96 -0.04,0.46 -0.07,0.92 -0.11,1.37 1.82,-3.98 6,-6.58 10.61,-6.17 l 1.69,0.16 -0.15,1.69 c -0.53,5.84 -5.69,10.15 -11.53,9.62 -0.35,-0.03 -0.66,-0.16 -0.91,-0.36 -0.04,0.86 -0.05,1.71 -0.05,2.56 0,3.38 0.2,6.75 0.59,10.01 l 0.01,0.07 c 0.05,0.41 0.11,0.82 0.17,1.23 0.89,-4.58 4.58,-8.32 9.46,-9.03 l 1.79,-0.26 0.26,1.79 c 0.08,0.56 0.12,1.11 0.12,1.66 0,5.52 -4.05,10.35 -9.68,11.18 -0.09,0.01 -0.17,0.02 -0.25,0.02 -0.32,0 -0.62,-0.09 -0.88,-0.23 0.81,4.14 1.95,8.27 3.38,12.27 0.03,0.09 0.07,0.17 0.1,0.25 0.26,-4.62 3.24,-8.85 7.89,-10.47 l 1.78,-0.62 0.62,1.78 c 2.14,6.15 -1.11,12.87 -7.26,15.01 -0.23,0.08 -0.46,0.11 -0.69,0.1 1.56,3.47 3.35,6.84 5.32,10 0.18,0.28 0.37,0.57 0.55,0.85 -1.13,-4.87 0.81,-10.15 5.24,-13.03 l 1.65,-1.07 1.07,1.64 c 3.68,5.67 2.08,13.26 -3.59,16.95 -0.34,0.22 -0.72,0.32 -1.09,0.31 2.49,3.37 5.23,6.56 8.14,9.49 -1.81,-4.57 -0.87,-9.98 2.84,-13.67 l 1.43,-1.43 1.43,1.43 c 4.94,4.96 4.92,12.98 -0.04,17.92 -0.18,0.19 -0.39,0.32 -0.62,0.42 3.25,2.79 6.71,5.33 10.33,7.58 -2.72,-4.14 -2.97,-9.65 -0.16,-14.11 l 1.11,-1.77 1.77,1.11 c 6.09,3.84 7.91,11.88 4.08,17.97 -0.1,0.16 -0.23,0.3 -0.37,0.43 3.81,1.94 7.8,3.61 11.9,4.96 -0.81,-0.63 -1.55,-1.33 -2.2,-2.11 -0.55,-0.65 -1.04,-1.36 -1.47,-2.1 0.24,0.08 0.5,0.12 0.77,0.12 h 7.18 c 0.09,0.91 0.86,1.61 1.79,1.61 z"
             class="cls-1"
             inkscape:connector-curvature="0"
             style="fill:#007fc6" />
        </g>
        <g
           id="g4566">
          <g
             id="g4544">
            <path
               id="path4528"
               d="m 80.866,31.537 h -2.36 l -0.488,1.11 h -0.653 l 2.011,-4.44 h 0.628 l 2.017,4.44 h -0.666 l -0.488,-1.11 z M 80.644,31.03 79.686,28.854 78.728,31.03 Z"
               class="cls-1"
               inkscape:connector-curvature="0"
               style="fill:#007fc6" />
            <path
               id="path4530"
               d="m 84.745,32.403 c -0.357,-0.197 -0.637,-0.467 -0.84,-0.812 -0.203,-0.345 -0.304,-0.733 -0.304,-1.164 0,-0.431 0.101,-0.819 0.304,-1.164 0.203,-0.345 0.484,-0.615 0.844,-0.812 0.359,-0.197 0.761,-0.295 1.205,-0.295 0.347,0 0.664,0.058 0.951,0.174 0.288,0.116 0.533,0.289 0.736,0.517 l -0.412,0.4 c -0.334,-0.351 -0.751,-0.526 -1.249,-0.526 -0.33,0 -0.628,0.074 -0.894,0.222 -0.266,0.148 -0.475,0.352 -0.625,0.612 -0.15,0.26 -0.225,0.551 -0.225,0.872 0,0.321 0.075,0.612 0.225,0.872 0.15,0.26 0.358,0.464 0.625,0.612 0.266,0.148 0.564,0.222 0.894,0.222 0.495,0 0.911,-0.178 1.249,-0.533 l 0.412,0.4 c -0.203,0.228 -0.449,0.402 -0.739,0.52 -0.29,0.118 -0.608,0.178 -0.955,0.178 -0.444,0 -0.845,-0.098 -1.202,-0.295 z"
               class="cls-1"
               inkscape:connector-curvature="0"
               style="fill:#007fc6" />
            <path
               id="path4532"
               d="m 92.613,31.537 h -2.36 l -0.488,1.11 h -0.653 l 2.011,-4.44 h 0.628 l 2.017,4.44 h -0.666 l -0.488,-1.11 z M 92.391,31.03 91.433,28.854 90.475,31.03 Z"
               class="cls-1"
               inkscape:connector-curvature="0"
               style="fill:#007fc6" />
            <path
               id="path4534"
               d="m 95.772,28.207 h 1.871 c 0.469,0 0.886,0.093 1.25,0.279 0.364,0.186 0.646,0.447 0.847,0.783 0.201,0.336 0.301,0.722 0.301,1.158 0,0.436 -0.1,0.821 -0.301,1.158 -0.201,0.336 -0.483,0.597 -0.847,0.783 -0.364,0.186 -0.78,0.279 -1.25,0.279 h -1.871 z m 1.833,3.888 c 0.359,0 0.675,-0.07 0.948,-0.209 0.273,-0.14 0.483,-0.335 0.631,-0.587 0.148,-0.252 0.222,-0.542 0.222,-0.872 0,-0.33 -0.074,-0.621 -0.222,-0.872 -0.148,-0.252 -0.358,-0.447 -0.631,-0.587 -0.273,-0.14 -0.589,-0.209 -0.948,-0.209 h -1.199 v 3.336 z"
               class="cls-1"
               inkscape:connector-curvature="0"
               style="fill:#007fc6" />
            <path
               id="path4536"
               d="m 105.577,32.096 v 0.552 h -3.222 v -4.44 h 3.133 v 0.552 h -2.499 v 1.364 h 2.226 v 0.539 h -2.226 v 1.433 z"
               class="cls-1"
               inkscape:connector-curvature="0"
               style="fill:#007fc6" />
            <path
               id="path4538"
               d="m 112.066,32.647 -0.006,-3.235 -1.605,2.696 h -0.292 l -1.605,-2.677 v 3.216 h -0.609 v -4.44 h 0.52 l 1.852,3.121 1.827,-3.121 h 0.52 l 0.006,4.44 h -0.609 z"
               class="cls-1"
               inkscape:connector-curvature="0"
               style="fill:#007fc6" />
            <path
               id="path4540"
               d="m 115.351,28.207 h 0.634 v 4.44 h -0.634 z"
               class="cls-1"
               inkscape:connector-curvature="0"
               style="fill:#007fc6" />
            <path
               id="path4542"
               d="m 121.491,31.537 h -2.36 l -0.488,1.11 h -0.653 l 2.011,-4.44 h 0.628 l 2.017,4.44 h -0.666 l -0.488,-1.11 z m -0.222,-0.507 -0.958,-2.176 -0.958,2.176 h 1.915 z"
               class="cls-1"
               inkscape:connector-curvature="0"
               style="fill:#007fc6" />
          </g>
          <path
             id="path4546"
             d="M 66.258,37.251 H 63.664 V 50.8 h 2.943 v -7.954 l 2.686,4.414 c 0.008,-0.019 0.017,-0.038 0.025,-0.056 l 0.029,-0.056 0.129,-0.214 1.292,-2.198 -4.51,-7.486 z"
             class="cls-1"
             inkscape:connector-curvature="0"
             style="fill:#007fc6" />
          <path
             id="path4548"
             d="m 78.899,37.251 h -2.575 l -4.995,8.421 -0.003,-0.005 -1.035,1.758 -0.109,0.182 -0.005,0.01 c -0.076,0.159 -0.117,0.336 -0.117,0.524 0,0.646 0.497,1.176 1.127,1.228 h 0.209 c 0.367,-0.03 0.687,-0.222 0.892,-0.503 l 0.111,-0.187 c 0,0 0.002,-0.002 0.002,-0.003 l 3.575,-6.004 0.021,8.131 h 2.942 L 78.901,37.252 Z M 71.31,48.499 c -0.219,0 -0.397,-0.178 -0.397,-0.397 0,-0.219 0.178,-0.397 0.397,-0.397 0.219,0 0.397,0.178 0.397,0.397 0,0.219 -0.178,0.397 -0.397,0.397 z"
             class="cls-1"
             inkscape:connector-curvature="0"
             style="fill:#007fc6" />
          <path
             id="path4550"
             d="M 87.249,41.148 86.038,38.084 80.37,50.8 h 3.213 l 0.851,-2.061 c -0.852,-0.286 -1.46,-1.089 -1.46,-2.036 0,-1.179 0.958,-2.142 2.137,-2.147 l 1.074,0.006 1.238,-2.991 -0.175,-0.424 z"
             class="cls-1"
             inkscape:connector-curvature="0"
             style="fill:#007fc6" />
          <path
             id="path4552"
             d="m 89.507,37.251 h -2.774 l 1.395,3.534 1.96,4.733 h -4.297 l 0.002,-0.005 -0.666,-0.005 h -0.01 c -0.659,0.003 -1.19,0.538 -1.19,1.196 0,0.639 0.503,1.163 1.135,1.193 h 6.014 l 1.201,2.904 h 3.291 L 89.508,37.25 Z m -4.287,9.79 c -0.219,0 -0.397,-0.178 -0.397,-0.397 0,-0.219 0.178,-0.397 0.397,-0.397 0.219,0 0.397,0.178 0.397,0.397 0,0.219 -0.178,0.397 -0.397,0.397 z"
             class="cls-1"
             inkscape:connector-curvature="0"
             style="fill:#007fc6" />
          <path
             id="path4554"
             d="m 104.587,44.076 -0.067,-0.084 c -0.271,-0.314 -0.673,-0.513 -1.12,-0.513 -0.819,0 -1.482,0.665 -1.482,1.482 0,0.306 0.092,0.592 0.252,0.83 0.003,0.003 0.006,0.008 0.01,0.013 l 0.141,0.175 3.93,4.824 h 3.659 l -5.324,-6.726 z m -1.168,1.247 c -0.219,0 -0.397,-0.178 -0.397,-0.397 0,-0.219 0.178,-0.397 0.397,-0.397 0.219,0 0.397,0.178 0.397,0.397 0,0.219 -0.178,0.397 -0.397,0.397 z"
             class="cls-1"
             inkscape:connector-curvature="0"
             style="fill:#007fc6" />
          <path
             id="path4556"
             d="m 106.096,37.251 -6.001,6.33 v -6.33 H 96.979 V 50.8 h 3.116 v -3.424 l 1.179,-1.23 c -0.203,-0.359 -0.308,-0.768 -0.308,-1.187 0,-1.341 1.092,-2.432 2.434,-2.432 0.37,0 0.73,0.084 1.054,0.241 l 5.127,-5.517 z"
             class="cls-1"
             inkscape:connector-curvature="0"
             style="fill:#007fc6" />
          <path
             id="path4558"
             d="m 114.42,48.285 v -2.204 c -1.057,-0.154 -1.863,-1.071 -1.863,-2.156 0,-1.077 0.798,-1.999 1.863,-2.155 v -2.004 h 7.124 V 37.251 H 111.303 V 50.8 h 10.492 v -2.515 z"
             class="cls-1"
             inkscape:connector-curvature="0"
             style="fill:#007fc6" />
          <path
             id="path4560"
             d="m 114.574,42.711 c -0.601,0.079 -1.065,0.593 -1.065,1.215 0,0.649 0.505,1.181 1.142,1.223 h 6.06 V 42.71 h -6.138 z m 0.136,1.553 c -0.219,0 -0.397,-0.178 -0.397,-0.397 0,-0.221 0.178,-0.397 0.397,-0.397 0.221,0 0.397,0.176 0.397,0.397 0,0.219 -0.176,0.397 -0.397,0.397 z"
             class="cls-1"
             inkscape:connector-curvature="0"
             style="fill:#007fc6" />
          <path
             id="path4562"
             d="m 135.327,39.555 c -0.478,-0.736 -1.158,-1.303 -2.042,-1.704 -0.884,-0.4 -1.926,-0.6 -3.126,-0.6 h -0.919 v 0.002 h -3.681 c -0.351,0.003 -0.668,0.146 -0.897,0.376 -0.228,0.23 -0.37,0.547 -0.37,0.901 0,0.7 0.565,1.269 1.266,1.274 l 3.805,0.002 h 0.62 c 0.941,0 1.658,0.203 2.148,0.609 0.49,0.408 0.736,0.99 0.736,1.752 0,0.749 -0.246,1.33 -0.736,1.742 -0.49,0.413 -1.208,0.619 -2.148,0.619 h -2.556 v -3.767 l -1.869,-0.002 c -0.487,-0.003 -0.931,-0.189 -1.266,-0.49 v 10.532 h 3.135 v -3.775 h 2.377 c 0.105,-1.188 1.106,-2.125 2.321,-2.125 0.763,0 1.479,0.374 1.914,1.003 l 0.059,0.084 c 0.493,-0.332 0.9,-0.738 1.219,-1.217 0.484,-0.728 0.725,-1.598 0.725,-2.604 0,-1.006 -0.238,-1.877 -0.716,-2.612 z m -9.722,-0.633 c -0.219,0 -0.397,-0.178 -0.397,-0.397 0,-0.219 0.178,-0.397 0.397,-0.397 0.219,0 0.397,0.178 0.397,0.397 0,0.219 -0.178,0.397 -0.397,0.397 z"
             class="cls-1"
             inkscape:connector-curvature="0"
             style="fill:#007fc6" />
          <path
             id="path4564"
             d="m 133.826,47.262 -0.52,-0.746 c 0,0 -0.006,-0.011 -0.01,-0.014 -0.006,-0.01 -0.013,-0.019 -0.019,-0.029 l -0.021,-0.029 h 0.002 c -0.248,-0.357 -0.662,-0.592 -1.131,-0.592 -0.762,0 -1.379,0.617 -1.379,1.379 0,0.251 0.067,0.484 0.184,0.687 l 0.041,0.059 0.089,0.129 c 0,0 0,0.002 0.002,0.003 l 1.863,2.691 h 3.369 l -2.469,-3.538 z m -1.679,0.263 c -0.217,0 -0.397,-0.179 -0.397,-0.397 0,-0.221 0.179,-0.397 0.397,-0.397 0.221,0 0.397,0.176 0.397,0.397 0,0.217 -0.176,0.397 -0.397,0.397 z"
             class="cls-1"
             inkscape:connector-curvature="0"
             style="fill:#007fc6" />
        </g>
        <g
           id="g4572">
          <path
             id="path4568"
             d="m 99.217,61.632 c -23.728,0 -43.032,19.304 -43.032,43.023 0,15.277 8.215,29.542 21.431,37.228 l 1.56,0.908 v -19.332 c 1.787,-0.246 3.365,-1.125 4.509,-2.401 1.399,0.577 2.571,0.898 3.432,0.898 0.369,0 0.681,-0.057 0.926,-0.17 0.444,-0.208 0.718,-0.605 0.766,-1.078 0.104,-1.238 -1.437,-2.846 -3.214,-4.282 0,-0.123 0.019,-0.236 0.019,-0.359 0,-1.021 -0.208,-1.985 -0.577,-2.874 3.838,-3.337 3.12,-4.424 2.846,-4.84 -0.879,-1.295 -3.696,-0.435 -6.353,1.068 -1.021,-0.52 -2.165,-0.822 -3.394,-0.822 -1.163,0 -2.259,0.274 -3.243,0.747 -2.619,-1.456 -5.351,-2.269 -6.22,-0.993 -0.274,0.407 -0.974,1.465 2.647,4.67 -0.416,0.936 -0.652,1.957 -0.652,3.044 0,0.189 0.019,0.388 0.028,0.577 -1.664,1.371 -3.044,2.893 -2.949,4.065 0.047,0.473 0.321,0.87 0.766,1.078 0.246,0.113 0.558,0.17 0.926,0.17 0.822,0 1.919,-0.284 3.233,-0.813 1.144,1.229 2.694,2.07 4.434,2.316 v 15.683 c -11.675,-7.506 -18.85,-20.552 -18.85,-34.486 0,-22.584 18.378,-40.953 40.962,-40.953 22.584,0 40.953,18.368 40.953,40.953 0,13.934 -7.175,26.98 -18.841,34.486 v -35.469 h 1.276 l -0.009,-3.583 c 0.482,-0.161 0.945,-0.35 1.39,-0.614 0.425,-0.246 0.804,-0.52 1.153,-0.832 l 3.082,1.768 2.316,-4.027 -3.063,-1.758 c 0.199,-0.964 0.208,-1.976 0,-2.968 l 3.035,-1.758 -2.335,-4.018 -3.025,1.758 c -0.766,-0.662 -1.645,-1.153 -2.59,-1.456 l -0.009,-3.536 -4.642,0.019 0.009,3.545 c -0.444,0.151 -0.879,0.35 -1.295,0.596 -0.444,0.255 -0.86,0.558 -1.229,0.898 l -3.101,-1.777 -2.307,4.027 3.129,1.796 c -0.189,0.964 -0.18,1.938 0.019,2.874 l -3.12,1.815 2.326,4.008 3.12,-1.806 c 0.728,0.633 1.569,1.116 2.496,1.437 l 0.009,3.611 1.286,-0.009 v 39.109 l 1.56,-0.908 c 13.225,-7.686 21.431,-21.951 21.431,-37.228 0,-23.719 -19.295,-43.023 -43.023,-43.023 z M 85.33,118.069 c 1.522,1.324 1.995,2.146 2.051,2.448 -0.284,0.076 -1.182,0.009 -2.827,-0.643 0.331,-0.558 0.596,-1.163 0.775,-1.806 z m 1.333,-8.915 c -0.057,0.236 -0.397,1.049 -2.316,2.751 -0.406,-0.596 -0.898,-1.144 -1.456,-1.598 1.976,-1.021 3.365,-1.257 3.772,-1.153 z m -4.661,6.438 c 0.019,0.151 0.047,0.312 0.047,0.473 0,0.832 -0.274,1.607 -0.718,2.24 -0.539,-0.303 -1.125,-0.652 -1.749,-1.03 0.369,-0.246 0.728,-0.482 1.106,-0.747 0.463,-0.331 0.898,-0.633 1.314,-0.936 z m -3.867,-3.432 c 1.465,0 2.723,0.813 3.394,2.004 -0.501,0.378 -1.049,0.766 -1.664,1.191 -0.558,0.397 -1.078,0.747 -1.588,1.078 -0.511,-0.331 -1.04,-0.681 -1.598,-1.078 -0.681,-0.473 -1.295,-0.917 -1.853,-1.333 0.69,-1.116 1.91,-1.862 3.309,-1.862 z m -8.962,8.357 c 0.047,-0.293 0.473,-1.049 1.825,-2.259 0.189,0.605 0.454,1.172 0.775,1.702 -1.503,0.577 -2.326,0.633 -2.6,0.558 z m 2.874,-8.754 c -1.777,-1.607 -2.099,-2.373 -2.155,-2.609 0.397,-0.104 1.711,0.113 3.611,1.068 -0.558,0.435 -1.049,0.955 -1.456,1.541 z m 2.184,4.301 c 0,-0.227 0.028,-0.444 0.066,-0.662 0.482,0.359 1.002,0.728 1.569,1.125 0.378,0.265 0.737,0.501 1.106,0.747 -0.7,0.425 -1.342,0.804 -1.938,1.134 -0.492,-0.652 -0.804,-1.456 -0.804,-2.344 z m 1.919,3.347 c 0.681,-0.388 1.39,-0.813 2.127,-1.286 0.69,0.435 1.352,0.841 1.995,1.201 -0.615,0.406 -1.342,0.643 -2.136,0.643 -0.728,0 -1.399,-0.208 -1.985,-0.558 z m 44.157,-22.509 c -0.321,0 -0.643,-0.038 -0.964,-0.123 -0.974,-0.255 -1.787,-0.879 -2.297,-1.749 -0.501,-0.87 -0.643,-1.881 -0.378,-2.855 0.255,-0.974 0.879,-1.787 1.739,-2.288 0.586,-0.34 1.238,-0.52 1.891,-0.52 0.321,0 0.652,0.047 0.974,0.132 0.964,0.255 1.787,0.879 2.288,1.749 1.04,1.796 0.435,4.103 -1.361,5.143 -0.586,0.34 -1.229,0.51 -1.891,0.51 z"
             class="cls-1"
             inkscape:connector-curvature="0"
             style="fill:#007fc6" />
          <path
             id="path4570"
             d="m 99.217,97.187 c -4.122,0 -7.478,3.356 -7.478,7.468 0,3.772 2.808,6.892 6.438,7.393 v 35.933 h 2.07 v -35.933 c 3.63,-0.501 6.438,-3.621 6.438,-7.393 0,-4.112 -3.356,-7.468 -7.468,-7.468 z m 0,11.382 c -2.155,0 -3.914,-1.758 -3.914,-3.914 0,-2.156 1.758,-3.904 3.914,-3.904 2.156,0 3.904,1.758 3.904,3.904 0,2.146 -1.749,3.914 -3.904,3.914 z"
             class="cls-1"
             inkscape:connector-curvature="0"
             style="fill:#007fc6" />
        </g>
        <g
           id="g4578">
          <path
             id="path4574"
             d="m 118.929,151.15 h -39.43 c -2.52,0 -4.57,2.04 -4.57,4.56 v 0.78 c 0,2.52 2.05,4.57 4.57,4.57 h 39.43 c 2.52,0 4.56,-2.05 4.56,-4.57 v -0.78 c 0,-2.52 -2.04,-4.56 -4.56,-4.56 z m 2.58,5.34 c 0,1.43 -1.16,2.58 -2.58,2.58 h -39.43 c -1.43,0 -2.58,-1.15 -2.58,-2.58 v -0.78 c 0,-1.42 1.15,-2.58 2.58,-2.58 h 39.43 c 1.42,0 2.58,1.16 2.58,2.58 z"
             class="cls-1"
             inkscape:connector-curvature="0"
             style="fill:#007fc6" />
          <path
             id="path4576"
             d="M 126.097,179.001 H 72.513 c -4.119,0 -7.471,-3.352 -7.471,-7.471 0,-4.119 3.352,-7.471 7.471,-7.471 h 53.584 c 4.119,0 7.471,3.352 7.471,7.471 0,4.119 -3.352,7.471 -7.471,7.471 z M 72.513,166.044 c -3.025,0 -5.486,2.461 -5.486,5.486 0,3.025 2.461,5.486 5.486,5.486 h 53.584 c 3.025,0 5.486,-2.461 5.486,-5.486 0,-3.025 -2.461,-5.486 -5.486,-5.486 z"
             class="cls-1"
             inkscape:connector-curvature="0"
             style="fill:#007fc6" />
        </g>
        <path
           id="path4580"
           d="m 99.231,201.004 v 0 c -16.575,0 -23.413,-8.209 -23.413,-18.106 v 0 c 0,0 45.862,0 45.862,0 v 0 c 0,11.833 -10.269,18.106 -22.448,18.106 z"
           class="cls-3"
           inkscape:connector-curvature="0"
           style="fill:none;stroke:#007fc6;stroke-width:1.98399997px;stroke-miterlimit:10" />
      </g>
      <g
         id="CORTE">
        <path
           id="path4583"
           d="m 184.57,117.262 c -0.74,3.8 -1.73,7.5 -2.95,11.1 2.12,-1.82 4.83,-2.84 7.65,-2.84 1.29,0 2.6,0.21 3.88,0.66 l 1.78,0.62 -0.62,1.79 c -2.14,6.15 -8.86,9.4 -15.01,7.26 -0.18,-0.07 -0.35,-0.16 -0.5,-0.27 -1.43,3.23 -3.04,6.35 -4.84,9.35 1.66,-0.81 3.48,-1.22 5.32,-1.22 2.29,0 4.61,0.64 6.67,1.98 l 1.64,1.07 -1.07,1.64 c -3.69,5.67 -11.27,7.28 -16.94,3.59 l -0.21,-0.15 c -2.22,3.05 -4.65,5.94 -7.24,8.66 1.11,-0.32 2.27,-0.48 3.42,-0.48 3.23,0 6.46,1.23 8.93,3.69 l 1.44,1.44 -1.43,1.43 c -4.94,4.96 -12.96,4.98 -17.92,0.04 -0.14,-0.14 -0.26,-0.3 -0.34,-0.48 -3.08,2.67 -6.35,5.13 -9.78,7.36 0.24,-0.01 0.48,-0.02 0.72,-0.02 4.33,0 8.56,2.16 11.03,6.09 l 1.12,1.76 -1.77,1.11 c -6.09,3.84 -14.13,2.01 -17.96,-4.08 -0.14,-0.22 -0.23,-0.46 -0.27,-0.7 -3.66,1.92 -7.48,3.58 -11.43,4.96 4.92,1.27 9.01,5.11 10.33,10.39 l 0.56,2.22 -2.22,0.55 c -5.96,1.49 -11.98,-0.99 -15.27,-5.78 -1.787,7.621 -13.869,12.18 -22.44,12.18 -9.34,0 -19.72,-3.55 -22.2,-11.29 -3.38,4.2 -9.02,6.29 -14.6,4.89 l -2.22,-0.55 0.56,-2.22 c 1.29,-5.16 5.23,-8.95 10.01,-10.29 -3.86,-1.34 -7.59,-2.94 -11.18,-4.78 -0.05,0.14 -0.11,0.28 -0.2,0.42 -3.83,6.09 -11.87,7.92 -17.96,4.08 l -1.76,-1.11 1.11,-1.76 c 2.47,-3.93 6.7,-6.09 11.03,-6.09 h 0.11 c -3.29,-2.12 -6.42,-4.47 -9.38,-7.02 -0.03,0.06 -0.08,0.11 -0.13,0.16 -4.96,4.94 -12.98,4.92 -17.92,-0.04 l -1.43,-1.43 1.44,-1.44 c 2.47,-2.46 5.71,-3.69 8.94,-3.69 0.88,0 1.77,0.09 2.64,0.28 -2.46,-2.58 -4.75,-5.32 -6.87,-8.19 -5.65,3.53 -13.1,1.9 -16.75,-3.71 l -1.07,-1.64 1.64,-1.07 c 2.06,-1.34 4.38,-1.98 6.67,-1.98 1.55,0 3.08,0.29 4.52,0.86 -1.68,-2.81 -3.18,-5.73 -4.53,-8.73 l -0.01,0.01 c -6.15,2.14 -12.87,-1.11 -15.01,-7.26 l -0.62,-1.79 1.78,-0.62 c 1.28,-0.45 2.59,-0.66 3.88,-0.66 2.47,0 4.85,0.78 6.83,2.19 -1.11,-3.37 -2.03,-6.84 -2.72,-10.38 -5.99,0.62 -11.46,-3.6 -12.35,-9.62 l -0.26,-1.79 1.79,-0.26 c 0.55,-0.08 1.1,-0.12 1.65,-0.12 3.03,0 5.85,1.21 7.91,3.23 -0.27,-2.79 -0.41,-5.61 -0.41,-8.47 0,-0.86 0.01,-1.72 0.04,-2.57 -5.56,-0.78 -9.59,-5.8 -9.08,-11.47 l 0.15,-1.69 1.7,0.15 c 3.32,0.3 6.14,2.1 7.87,4.68 0.4,-3.26 0.99,-6.46 1.75,-9.59 -4.77,-1.63 -7.42,-6.77 -5.94,-11.63 l 0.44,-1.44 1.44,0.44 c 2.89,0.87 5.05,3.01 6.05,5.63 1.07,-3.22 2.32,-6.36 3.74,-9.39 -3.93,-2.36 -5.49,-7.37 -3.48,-11.6 l 0.63,-1.31 1.3,0.63 c 2.52,1.19 4.22,3.4 4.86,5.91 1.69,-2.96 3.56,-5.82 5.58,-8.55 -3.19,-2.88 -3.76,-7.76 -1.18,-11.32 l 0.8,-1.1 1.1,0.8 c 2.14,1.56 3.34,3.91 3.5,6.36 2.5,-2.89 5.19,-5.62 8.05,-8.16 -1.72,-2.56 -1.38,-6.07 0.95,-8.26 l 0.75,-0.71 0.71,0.75 c 1.17,1.24 1.75,2.84 1.75,4.43 0,0.11 0,0.22 -0.02,0.33 3.07,-2.4 6.3,-4.6 9.67,-6.59 -0.76,-2.11 -0.07,-4.5 1.73,-5.88 0.01,-4.45 2.79,-10.01 5.49,-11.24 0.05,-0.03 0.1,-0.05 0.15,-0.07 0.59,-0.24 1.19,-0.47 1.79,-0.69 0.01,-0.01 0.02,-0.01 0.03,-0.01 10.29,-3.9 22.106,-6.14 33.696,-6.38 v 6.521 c -9.56,0.2 -19.796,2.06 -28.866,5.56 -1.05,0.4 -1.55,1.61 -1.12,2.65 0.15,0.35 0.3,0.71 0.44,1.06 0.43,1.02 1.58,1.5 2.62,1.1 18,-6.92 37.94,-6.92 55.94,0 1.04,0.4 2.2,-0.08 2.62,-1.1 l 0.44,-1.06 c 0.43,-1.04 -0.07,-2.25 -1.12,-2.65 -8.83,-3.4 -18.81,-5.25 -28.12,-5.53 V 0.762 c 13.26,0.28 26.58,3.16 38.07,8.16 2.07,1.36 3.78,6.96 3.64,10.63 1.8,1.42 2.45,3.87 1.61,6 3.3,1.98 6.46,4.18 9.46,6.58 -0.04,-0.28 -0.06,-0.56 -0.06,-0.85 0,-1.59 0.58,-3.18 1.75,-4.42 l 0.71,-0.75 0.75,0.71 c 2.43,2.28 2.69,6.01 0.72,8.6 2.95,2.64 5.72,5.48 8.28,8.51 v -0.16 c 0,-2.63 1.21,-5.22 3.5,-6.89 l 1.1,-0.8 0.8,1.1 c 2.68,3.69 1.97,8.82 -1.55,11.64 2.11,2.87 4.05,5.88 5.8,9.01 0.45,-2.82 2.24,-5.38 5.01,-6.69 l 1.3,-0.63 0.63,1.31 c 2.09,4.39 0.32,9.63 -3.95,11.87 1.5,3.24 2.81,6.59 3.9,10.04 0.82,-3.03 3.14,-5.58 6.36,-6.55 l 1.44,-0.44 0.44,1.44 c 1.51,4.98 -1.3,10.24 -6.28,11.75 -0.08,0.02 -0.15,0.04 -0.22,0.05 0.81,3.35 1.42,6.78 1.81,10.26 1.63,-3.02 4.7,-5.19 8.37,-5.52 l 1.7,-0.15 0.15,1.69 c 0.53,5.85 -3.78,11.01 -9.62,11.54 h -0.06 c 0.03,0.83 0.04,1.66 0.04,2.5 0,3.1 -0.16,6.17 -0.48,9.19 2.1,-2.45 5.21,-3.95 8.58,-3.95 0.55,0 1.1,0.04 1.65,0.12 l 1.79,0.26 -0.26,1.79 c -0.91,6.19 -6.65,10.47 -12.84,9.57 -0.03,-0.01 -0.07,-0.01 -0.1,-0.02 z"
           class="cls-2"
           inkscape:connector-curvature="0"
           style="fill:none;stroke:#1dff1b;stroke-width:0.56699997px;stroke-miterlimit:10" />
      </g>
    </g>
  </g>
</svg>
