  0
SECTION
  2
HEADER
  9
$ACADVER
  1
AC1014
  9
$HANDSEED
  5
FFFF
  9
$MEASUREMENT
 70
     1
  0
ENDSEC
  0
SECTION
  2
TABLES
  0
TABLE
  2
VPORT
  5
8
330
0
100
AcDbSymbolTable
 70
     4
  0
VPORT
  5
2E
330
8
100
AcDbSymbolTableRecord
100
AcDbViewportTableRecord
  2
*ACTIVE
 70
     0
 10
0.0
 20
0.0
 11
1.0
 21
1.0
 12
210.0
 22
148.5
 13
0.0
 23
0.0
 14
10.0
 24
10.0
 15
10.0
 25
10.0
 16
0.0
 26
0.0
 36
1.0
 17
0.0
 27
0.0
 37
0.0
 40
341.0
 41
1.24
 42
50.0
 43
0.0
 44
0.0
 50
0.0
 51
0.0
 71
     0
 72
   100
 73
     1
 74
     3
 75
     0
 76
     0
 77
     0
 78
     0
  0
ENDTAB
  0
TABLE
  2
LTYPE
  5
5
330
0
100
AcDbSymbolTable
 70
     1
  0
LTYPE
  5
14
330
5
100
AcDbSymbolTableRecord
100
AcDbLinetypeTableRecord
  2
BYBLOCK
 70
     0
  3

 72
    65
 73
     0
 40
0.0
  0
LTYPE
  5
15
330
5
100
AcDbSymbolTableRecord
100
AcDbLinetypeTableRecord
  2
BYLAYER
 70
     0
  3

 72
    65
 73
     0
 40
0.0
  0
LTYPE
  5
16
330
5
100
AcDbSymbolTableRecord
100
AcDbLinetypeTableRecord
  2
CONTINUOUS
 70
     0
  3
Solid line
 72
    65
 73
     0
 40
0.0
  0
ENDTAB
  0
TABLE
  2
LAYER
  5
2
100
AcDbSymbolTable
 70
2
  0
LAYER
  5
50
100
AcDbSymbolTableRecord
100
AcDbLayerTableRecord
  2
0
 70
0
  6
CONTINUOUS
  0
LAYER
  5
51
100
AcDbSymbolTableRecord
100
AcDbLayerTableRecord
  2
Capa_1
 70
0
  6
CONTINUOUS
  0
ENDTAB
  0
TABLE
  2
STYLE
  5
3
330
0
100
AcDbSymbolTable
 70
     1
  0
STYLE
  5
11
330
3
100
AcDbSymbolTableRecord
100
AcDbTextStyleTableRecord
  2
STANDARD
 70
     0
 40
0.0
 41
1.0
 50
0.0
 71
     0
 42
2.5
  3
txt
  4

  0
ENDTAB
  0
TABLE
  2
VIEW
  5
6
330
0
100
AcDbSymbolTable
 70
     0
  0
ENDTAB
  0
TABLE
  2
UCS
  5
7
330
0
100
AcDbSymbolTable
 70
     0
  0
ENDTAB
  0
TABLE
  2
APPID
  5
9
330
0
100
AcDbSymbolTable
 70
     2
  0
APPID
  5
12
330
9
100
AcDbSymbolTableRecord
100
AcDbRegAppTableRecord
  2
ACAD
 70
     0
  0
ENDTAB
  0
TABLE
  2
DIMSTYLE
  5
A
330
0
100
AcDbSymbolTable
 70
     1
  0
DIMSTYLE
105
27
330
A
100
AcDbSymbolTableRecord
100
AcDbDimStyleTableRecord
  2
ISO-25
 70
     0
  3

  4

  5

  6

  7

 40
1.0
 41
2.5
 42
0.625
 43
3.75
 44
1.25
 45
0.0
 46
0.0
 47
0.0
 48
0.0
140
2.5
141
2.5
142
0.0
143
0.03937007874016
144
1.0
145
0.0
146
1.0
147
0.625
 71
     0
 72
     0
 73
     0
 74
     0
 75
     0
 76
     0
 77
     1
 78
     8
170
     0
171
     3
172
     1
173
     0
174
     0
175
     0
176
     0
177
     0
178
     0
270
     2
271
     2
272
     2
273
     2
274
     3
340
11
275
     0
280
     0
281
     0
282
     0
283
     0
284
     8
285
     0
286
     0
287
     3
288
     0
  0
ENDTAB
  0
TABLE
  2
BLOCK_RECORD
  5
1
330
0
100
AcDbSymbolTable
 70
     1
  0
BLOCK_RECORD
  5
1F
330
1
100
AcDbSymbolTableRecord
100
AcDbBlockTableRecord
  2
*MODEL_SPACE
  0
BLOCK_RECORD
  5
1B
330
1
100
AcDbSymbolTableRecord
100
AcDbBlockTableRecord
  2
*PAPER_SPACE
  0
ENDTAB
  0
ENDSEC
  0
SECTION
  2
BLOCKS
  0
BLOCK
  5
20
330
1F
100
AcDbEntity
  8
0
100
AcDbBlockBegin
  2
*MODEL_SPACE
 70
     0
 10
0.0
 20
0.0
 30
0.0
  3
*MODEL_SPACE
  1

  0
ENDBLK
  5
21
330
1F
100
AcDbEntity
  8
0
100
AcDbBlockEnd
  0
BLOCK
  5
1C
330
1B
100
AcDbEntity
 67
     1
  8
0
100
AcDbBlockBegin
  2
*PAPER_SPACE
  1

  0
ENDBLK
  5
1D
330
1B
100
AcDbEntity
 67
     1
  8
0
100
AcDbBlockEnd
  0
ENDSEC
  0
SECTION
  2
ENTITIES
  0
SPLINE
  5
100
100
AcDbEntity
  8
Capa_1
 62
7
100
AcDbSpline
 70
8
 71
3
 72
8
 73
4
 74
0
 40
0
 40
0
 40
0
 40
0
 40
1
 40
1
 40
1
 40
1
 10
121.374987
 20
233.304189
 30
0.0
 10
121.102176
 20
231.911789
 30
0.0
 10
120.730161
 20
230.537105
 30
0.0
 10
120.269570
 20
229.201394
 30
0.0
  0
SPLINE
  5
101
100
AcDbEntity
  8
Capa_1
 62
7
100
AcDbSpline
 70
8
 71
3
 72
8
 73
4
 74
0
 40
0
 40
0
 40
0
 40
0
 40
1
 40
1
 40
1
 40
1
 10
120.269570
 20
229.201394
 30
0.0
 10
121.367901
 20
230.239493
 30
0.0
 10
122.987052
 20
230.643395
 30
0.0
 10
124.510543
 20
230.115488
 30
0.0
  0
SPLINE
  5
102
100
AcDbEntity
  8
Capa_1
 62
7
100
AcDbSpline
 70
8
 71
3
 72
8
 73
4
 74
0
 40
0
 40
0
 40
0
 40
0
 40
1
 40
1
 40
1
 40
1
 10
124.921531
 20
229.261625
 30
0.0
 10
124.163329
 20
227.082679
 30
0.0
 10
121.782432
 20
225.931203
 30
0.0
 10
119.603486
 20
226.689406
 30
0.0
  0
SPLINE
  5
103
100
AcDbEntity
  8
Capa_1
 62
7
100
AcDbSpline
 70
8
 71
3
 72
8
 73
4
 74
0
 40
0
 40
0
 40
0
 40
0
 40
1
 40
1
 40
1
 40
1
 10
119.603486
 20
226.689406
 30
0.0
 10
119.504282
 20
226.724836
 30
0.0
 10
119.422793
 20
226.781524
 30
0.0
 10
119.351933
 20
226.848841
 30
0.0
  0
LWPOLYLINE
  5
104
100
AcDbEntity
  8
Capa_1
 62
7
100
AcDbPolyline
 90
3
 70
0
 10
124.510543
 20
230.115488
 30
0.0
 10
125.141197
 20
229.895822
 30
0.0
 10
124.921531
 20
229.261625
 30
0.0
  0
SPLINE
  5
105
100
AcDbEntity
  8
Capa_1
 62
7
100
AcDbSpline
 70
8
 71
3
 72
8
 73
4
 74
0
 40
0
 40
0
 40
0
 40
0
 40
1
 40
1
 40
1
 40
1
 10
119.348390
 20
226.838212
 30
0.0
 10
118.820483
 20
225.647763
 30
0.0
 10
118.218173
 20
224.496288
 30
0.0
 10
117.555632
 20
223.397958
 30
0.0
  0
SPLINE
  5
106
100
AcDbEntity
  8
Capa_1
 62
7
100
AcDbSpline
 70
8
 71
3
 72
8
 73
4
 74
0
 40
0
 40
0
 40
0
 40
0
 40
1
 40
1
 40
1
 40
1
 10
117.555632
 20
223.397958
 30
0.0
 10
118.905515
 20
224.113644
 30
0.0
 10
120.588441
 20
224.095929
 30
0.0
 10
121.959582
 20
223.203093
 30
0.0
  0
LWPOLYLINE
  5
107
100
AcDbEntity
  8
Capa_1
 62
7
100
AcDbPolyline
 90
2
 70
0
 10
119.351933
 20
226.848841
 30
0.0
 10
119.348390
 20
226.838212
 30
0.0
  0
SPLINE
  5
108
100
AcDbEntity
  8
Capa_1
 62
7
100
AcDbSpline
 70
8
 71
3
 72
8
 73
4
 74
0
 40
0
 40
0
 40
0
 40
0
 40
1
 40
1
 40
1
 40
1
 10
122.161533
 20
222.242939
 30
0.0
 10
120.854166
 20
220.234058
 30
0.0
 10
118.168571
 20
219.663634
 30
0.0
 10
116.159689
 20
220.971002
 30
0.0
  0
SPLINE
  5
109
100
AcDbEntity
  8
Capa_1
 62
7
100
AcDbSpline
 70
8
 71
3
 72
8
 73
4
 74
0
 40
0
 40
0
 40
0
 40
0
 40
1
 40
1
 40
1
 40
1
 10
116.159689
 20
220.971002
 30
0.0
 10
116.106544
 20
221.006432
 30
0.0
 10
116.064028
 20
221.045405
 30
0.0
 10
116.025055
 20
221.091464
 30
0.0
  0
SPLINE
  5
10a
100
AcDbEntity
  8
Capa_1
 62
7
100
AcDbSpline
 70
8
 71
3
 72
8
 73
4
 74
0
 40
0
 40
0
 40
0
 40
0
 40
1
 40
1
 40
1
 40
1
 10
116.025055
 20
221.091464
 30
0.0
 10
115.203079
 20
219.968332
 30
0.0
 10
114.303156
 20
218.901889
 30
0.0
 10
113.335917
 20
217.899220
 30
0.0
  0
SPLINE
  5
10b
100
AcDbEntity
  8
Capa_1
 62
7
100
AcDbSpline
 70
8
 71
3
 72
8
 73
4
 74
0
 40
0
 40
0
 40
0
 40
0
 40
1
 40
1
 40
1
 40
1
 10
113.335917
 20
217.899220
 30
0.0
 10
114.887752
 20
218.405869
 30
0.0
 10
116.662795
 20
218.048026
 30
0.0
 10
117.895760
 20
216.818604
 30
0.0
  0
LWPOLYLINE
  5
10c
100
AcDbEntity
  8
Capa_1
 62
7
100
AcDbPolyline
 90
3
 70
0
 10
121.959582
 20
223.203093
 30
0.0
 10
122.540634
 20
222.823991
 30
0.0
 10
122.161533
 20
222.242939
 30
0.0
  0
SPLINE
  5
10d
100
AcDbEntity
  8
Capa_1
 62
7
100
AcDbSpline
 70
8
 71
3
 72
8
 73
4
 74
0
 40
0
 40
0
 40
0
 40
0
 40
1
 40
1
 40
1
 40
1
 10
117.899303
 20
215.801763
 30
0.0
 10
117.020638
 20
214.919556
 30
0.0
 10
115.869163
 20
214.480224
 30
0.0
 10
114.717688
 20
214.480224
 30
0.0
  0
SPLINE
  5
10e
100
AcDbEntity
  8
Capa_1
 62
7
100
AcDbSpline
 70
8
 71
3
 72
8
 73
4
 74
0
 40
0
 40
0
 40
0
 40
0
 40
1
 40
1
 40
1
 40
1
 10
114.717688
 20
214.480224
 30
0.0
 10
113.573298
 20
214.480224
 30
0.0
 10
112.425366
 20
214.916013
 30
0.0
 10
111.550244
 20
215.787591
 30
0.0
  0
SPLINE
  5
10f
100
AcDbEntity
  8
Capa_1
 62
7
100
AcDbSpline
 70
8
 71
3
 72
8
 73
4
 74
0
 40
0
 40
0
 40
0
 40
0
 40
1
 40
1
 40
1
 40
1
 10
111.550244
 20
215.787591
 30
0.0
 10
111.475841
 20
215.861994
 30
0.0
 10
111.422696
 20
215.947026
 30
0.0
 10
111.387266
 20
216.039144
 30
0.0
  0
SPLINE
  5
110
100
AcDbEntity
  8
Capa_1
 62
7
100
AcDbSpline
 70
8
 71
3
 72
8
 73
4
 74
0
 40
0
 40
0
 40
0
 40
0
 40
1
 40
1
 40
1
 40
1
 10
111.387266
 20
216.039144
 30
0.0
 10
110.253506
 20
215.047104
 30
0.0
 10
109.038257
 20
214.143638
 30
0.0
 10
107.769862
 20
213.328748
 30
0.0
  0
SPLINE
  5
111
100
AcDbEntity
  8
Capa_1
 62
7
100
AcDbSpline
 70
8
 71
3
 72
8
 73
4
 74
0
 40
0
 40
0
 40
0
 40
0
 40
1
 40
1
 40
1
 40
1
 10
107.769862
 20
213.328748
 30
0.0
 10
109.452788
 20
213.495269
 30
0.0
 10
111.167600
 20
212.729981
 30
0.0
 10
112.127754
 20
211.199404
 30
0.0
  0
LWPOLYLINE
  5
112
100
AcDbEntity
  8
Capa_1
 62
7
100
AcDbPolyline
 90
3
 70
0
 10
117.895760
 20
216.818604
 30
0.0
 10
118.405952
 20
216.308412
 30
0.0
 10
117.899303
 20
215.801763
 30
0.0
  0
SPLINE
  5
113
100
AcDbEntity
  8
Capa_1
 62
7
100
AcDbSpline
 70
8
 71
3
 72
8
 73
4
 74
0
 40
0
 40
0
 40
0
 40
0
 40
1
 40
1
 40
1
 40
1
 10
111.897459
 20
210.182563
 30
0.0
 10
109.739771
 20
208.822051
 30
0.0
 10
106.891198
 20
209.470420
 30
0.0
 10
105.534228
 20
211.628108
 30
0.0
  0
SPLINE
  5
114
100
AcDbEntity
  8
Capa_1
 62
7
100
AcDbSpline
 70
8
 71
3
 72
8
 73
4
 74
0
 40
0
 40
0
 40
0
 40
0
 40
1
 40
1
 40
1
 40
1
 10
105.534228
 20
211.628108
 30
0.0
 10
105.466911
 20
211.730855
 30
0.0
 10
105.435024
 20
211.844231
 30
0.0
 10
105.424395
 20
211.957607
 30
0.0
  0
SPLINE
  5
115
100
AcDbEntity
  8
Capa_1
 62
7
100
AcDbSpline
 70
8
 71
3
 72
8
 73
4
 74
0
 40
0
 40
0
 40
0
 40
0
 40
1
 40
1
 40
1
 40
1
 10
105.424395
 20
211.957607
 30
0.0
 10
105.420852
 20
211.957607
 30
0.0
 10
105.417309
 20
211.954064
 30
0.0
 10
105.410223
 20
211.950521
 30
0.0
  0
SPLINE
  5
116
100
AcDbEntity
  8
Capa_1
 62
7
100
AcDbSpline
 70
8
 71
3
 72
8
 73
4
 74
0
 40
0
 40
0
 40
0
 40
0
 40
1
 40
1
 40
1
 40
1
 10
105.410223
 20
211.950521
 30
0.0
 10
104.056797
 20
211.241920
 30
0.0
 10
102.650225
 20
210.643153
 30
0.0
 10
101.225939
 20
210.150676
 30
0.0
  0
SPLINE
  5
117
100
AcDbEntity
  8
Capa_1
 62
7
100
AcDbSpline
 70
8
 71
3
 72
8
 73
4
 74
0
 40
0
 40
0
 40
0
 40
0
 40
1
 40
1
 40
1
 40
1
 10
101.225939
 20
210.150676
 30
0.0
 10
103.039956
 20
209.750317
 30
0.0
 10
104.566989
 20
208.365003
 30
0.0
 10
105.048837
 20
206.437611
 30
0.0
  0
LWPOLYLINE
  5
118
100
AcDbEntity
  8
Capa_1
 62
7
100
AcDbPolyline
 90
3
 70
0
 10
112.127754
 20
211.199404
 30
0.0
 10
112.524570
 20
210.575836
 30
0.0
 10
111.897459
 20
210.182563
 30
0.0
  0
SPLINE
  5
119
100
AcDbEntity
  8
Capa_1
 62
7
100
AcDbSpline
 70
8
 71
3
 72
8
 73
4
 74
0
 40
0
 40
0
 40
0
 40
0
 40
1
 40
1
 40
1
 40
1
 10
104.460699
 20
205.456200
 30
0.0
 10
102.349070
 20
204.928292
 30
0.0
 10
100.216184
 20
205.806957
 30
0.0
 10
99.050536
 20
207.504054
 30
0.0
  0
SPLINE
  5
11a
100
AcDbEntity
  8
Capa_1
 62
7
100
AcDbSpline
 70
8
 71
3
 72
8
 73
4
 74
0
 40
0
 40
0
 40
0
 40
0
 40
1
 40
1
 40
1
 40
1
 10
99.050536
 20
207.504054
 30
0.0
 10
98.770639
 20
207.915042
 30
0.0
 10
98.543887
 20
208.372089
 30
0.0
 10
98.391538
 20
208.868110
 30
0.0
  0
SPLINE
  5
11b
100
AcDbEntity
  8
Capa_1
 62
7
100
AcDbSpline
 70
8
 71
3
 72
8
 73
4
 74
0
 40
0
 40
0
 40
0
 40
0
 40
1
 40
1
 40
1
 40
1
 10
98.391538
 20
208.868110
 30
0.0
 10
98.363194
 20
208.956685
 30
0.0
 10
98.338393
 20
209.048803
 30
0.0
 10
98.313592
 20
209.140921
 30
0.0
  0
SPLINE
  5
11c
100
AcDbEntity
  8
Capa_1
 62
7
100
AcDbSpline
 70
8
 71
3
 72
8
 73
4
 74
0
 40
0
 40
0
 40
0
 40
0
 40
1
 40
1
 40
1
 40
1
 10
98.313592
 20
209.140921
 30
0.0
 10
98.267533
 20
209.325157
 30
0.0
 10
98.292334
 20
209.505850
 30
0.0
 10
98.363194
 20
209.665285
 30
0.0
  0
LWPOLYLINE
  5
11d
100
AcDbEntity
  8
Capa_1
 62
7
100
AcDbPolyline
 90
3
 70
0
 10
105.048837
 20
206.437611
 30
0.0
 10
105.247245
 20
205.651065
 30
0.0
 10
104.460699
 20
205.456200
 30
0.0
  0
SPLINE
  5
11e
100
AcDbEntity
  8
Capa_1
 62
7
100
AcDbSpline
 70
8
 71
3
 72
8
 73
4
 74
0
 40
0
 40
0
 40
0
 40
0
 40
1
 40
1
 40
1
 40
1
 10
98.324221
 20
209.838892
 30
0.0
 10
98.143528
 20
209.945182
 30
0.0
 10
97.998265
 20
210.122332
 30
0.0
 10
97.945120
 20
210.341998
 30
0.0
  0
SPLINE
  5
11f
100
AcDbEntity
  8
Capa_1
 62
7
100
AcDbSpline
 70
8
 71
3
 72
8
 73
4
 74
0
 40
0
 40
0
 40
0
 40
0
 40
1
 40
1
 40
1
 40
1
 10
97.945120
 20
210.341998
 30
0.0
 10
97.909690
 20
210.480175
 30
0.0
 10
97.881346
 20
210.618352
 30
0.0
 10
97.863631
 20
210.756529
 30
0.0
  0
SPLINE
  5
120
100
AcDbEntity
  8
Capa_1
 62
7
100
AcDbSpline
 70
8
 71
3
 72
8
 73
4
 74
0
 40
0
 40
0
 40
0
 40
0
 40
1
 40
1
 40
1
 40
1
 10
97.863631
 20
210.756529
 30
0.0
 10
97.824658
 20
210.969109
 30
0.0
 10
97.803400
 20
211.188775
 30
0.0
 10
97.796314
 20
211.401356
 30
0.0
  0
SPLINE
  5
121
100
AcDbEntity
  8
Capa_1
 62
7
100
AcDbSpline
 70
8
 71
3
 72
8
 73
4
 74
0
 40
0
 40
0
 40
0
 40
0
 40
1
 40
1
 40
1
 40
1
 10
97.796314
 20
211.401356
 30
0.0
 10
97.792771
 20
211.443872
 30
0.0
 10
97.792771
 20
211.489931
 30
0.0
 10
97.792771
 20
211.532447
 30
0.0
  0
LWPOLYLINE
  5
122
100
AcDbEntity
  8
Capa_1
 62
7
100
AcDbPolyline
 90
2
 70
0
 10
98.363194
 20
209.665285
 30
0.0
 10
98.324221
 20
209.838892
 30
0.0
  0
SPLINE
  5
123
100
AcDbEntity
  8
Capa_1
 62
7
100
AcDbSpline
 70
8
 71
3
 72
8
 73
4
 74
0
 40
0
 40
0
 40
0
 40
0
 40
1
 40
1
 40
1
 40
1
 10
98.313592
 20
211.532447
 30
0.0
 10
98.643091
 20
211.532447
 30
0.0
 10
98.915902
 20
211.780457
 30
0.0
 10
98.947789
 20
212.102870
 30
0.0
  0
LWPOLYLINE
  5
124
100
AcDbEntity
  8
Capa_1
 62
7
100
AcDbPolyline
 90
2
 70
0
 10
97.792771
 20
211.532447
 30
0.0
 10
98.313592
 20
211.532447
 30
0.0
  0
SPLINE
  5
125
100
AcDbEntity
  8
Capa_1
 62
7
100
AcDbSpline
 70
8
 71
3
 72
8
 73
4
 74
0
 40
0
 40
0
 40
0
 40
0
 40
1
 40
1
 40
1
 40
1
 10
101.750303
 20
212.102870
 30
0.0
 10
101.874308
 20
212.102870
 30
0.0
 10
101.994770
 20
212.127671
 30
0.0
 10
102.101060
 20
212.173730
 30
0.0
  0
SPLINE
  5
126
100
AcDbEntity
  8
Capa_1
 62
7
100
AcDbSpline
 70
8
 71
3
 72
8
 73
4
 74
0
 40
0
 40
0
 40
0
 40
0
 40
1
 40
1
 40
1
 40
1
 10
102.101060
 20
212.173730
 30
0.0
 10
101.945168
 20
211.900919
 30
0.0
 10
101.768018
 20
211.642280
 30
0.0
 10
101.562524
 20
211.401356
 30
0.0
  0
SPLINE
  5
127
100
AcDbEntity
  8
Capa_1
 62
7
100
AcDbSpline
 70
8
 71
3
 72
8
 73
4
 74
0
 40
0
 40
0
 40
0
 40
0
 40
1
 40
1
 40
1
 40
1
 10
101.562524
 20
211.401356
 30
0.0
 10
101.374745
 20
211.178146
 30
0.0
 10
101.162165
 20
210.969109
 30
0.0
 10
100.935413
 20
210.777787
 30
0.0
  0
SPLINE
  5
128
100
AcDbEntity
  8
Capa_1
 62
7
100
AcDbSpline
 70
8
 71
3
 72
8
 73
4
 74
0
 40
0
 40
0
 40
0
 40
0
 40
1
 40
1
 40
1
 40
1
 10
100.935413
 20
210.777787
 30
0.0
 10
102.292382
 20
211.241920
 30
0.0
 10
103.635180
 20
211.812344
 30
0.0
 10
104.935461
 20
212.481971
 30
0.0
  0
SPLINE
  5
129
100
AcDbEntity
  8
Capa_1
 62
7
100
AcDbSpline
 70
8
 71
3
 72
8
 73
4
 74
0
 40
0
 40
0
 40
0
 40
0
 40
1
 40
1
 40
1
 40
1
 10
104.935461
 20
212.481971
 30
0.0
 10
104.914203
 20
212.510315
 30
0.0
 10
104.889402
 20
212.535116
 30
0.0
 10
104.871687
 20
212.563460
 30
0.0
  0
SPLINE
  5
12a
100
AcDbEntity
  8
Capa_1
 62
7
100
AcDbSpline
 70
8
 71
3
 72
8
 73
4
 74
0
 40
0
 40
0
 40
0
 40
0
 40
1
 40
1
 40
1
 40
1
 10
104.871687
 20
212.563460
 30
0.0
 10
103.514718
 20
214.721148
 30
0.0
 10
104.163087
 20
217.569721
 30
0.0
 10
106.317232
 20
218.930233
 30
0.0
  0
LWPOLYLINE
  5
12b
100
AcDbEntity
  8
Capa_1
 62
7
100
AcDbPolyline
 90
2
 70
0
 10
98.947789
 20
212.102870
 30
0.0
 10
101.750303
 20
212.102870
 30
0.0
  0
SPLINE
  5
12c
100
AcDbEntity
  8
Capa_1
 62
7
100
AcDbSpline
 70
8
 71
3
 72
8
 73
4
 74
0
 40
0
 40
0
 40
0
 40
0
 40
1
 40
1
 40
1
 40
1
 10
107.337616
 20
218.696395
 30
0.0
 10
108.283597
 20
217.194162
 30
0.0
 10
108.251710
 20
215.355345
 30
0.0
 10
107.419105
 20
213.920429
 30
0.0
  0
SPLINE
  5
12d
100
AcDbEntity
  8
Capa_1
 62
7
100
AcDbSpline
 70
8
 71
3
 72
8
 73
4
 74
0
 40
0
 40
0
 40
0
 40
0
 40
1
 40
1
 40
1
 40
1
 10
107.419105
 20
213.920429
 30
0.0
 10
108.613096
 20
214.689261
 30
0.0
 10
109.746857
 20
215.532495
 30
0.0
 10
110.813300
 20
216.453675
 30
0.0
  0
SPLINE
  5
12e
100
AcDbEntity
  8
Capa_1
 62
7
100
AcDbSpline
 70
8
 71
3
 72
8
 73
4
 74
0
 40
0
 40
0
 40
0
 40
0
 40
1
 40
1
 40
1
 40
1
 10
110.813300
 20
216.453675
 30
0.0
 10
110.781413
 20
216.478476
 30
0.0
 10
110.749526
 20
216.503277
 30
0.0
 10
110.721182
 20
216.531621
 30
0.0
  0
SPLINE
  5
12f
100
AcDbEntity
  8
Capa_1
 62
7
100
AcDbSpline
 70
8
 71
3
 72
8
 73
4
 74
0
 40
0
 40
0
 40
0
 40
0
 40
1
 40
1
 40
1
 40
1
 10
110.721182
 20
216.531621
 30
0.0
 10
108.963854
 20
218.281864
 30
0.0
 10
108.956768
 20
221.123351
 30
0.0
 10
110.707010
 20
222.880679
 30
0.0
  0
LWPOLYLINE
  5
130
100
AcDbEntity
  8
Capa_1
 62
7
100
AcDbPolyline
 90
3
 70
0
 10
106.317232
 20
218.930233
 30
0.0
 10
106.944343
 20
219.323506
 30
0.0
 10
107.337616
 20
218.696395
 30
0.0
  0
SPLINE
  5
131
100
AcDbEntity
  8
Capa_1
 62
7
100
AcDbSpline
 70
8
 71
3
 72
8
 73
4
 74
0
 40
0
 40
0
 40
0
 40
0
 40
1
 40
1
 40
1
 40
1
 10
111.723852
 20
222.880679
 30
0.0
 10
112.946187
 20
221.665430
 30
0.0
 10
113.318202
 20
219.918730
 30
0.0
 10
112.843440
 20
218.377525
 30
0.0
  0
SPLINE
  5
132
100
AcDbEntity
  8
Capa_1
 62
7
100
AcDbSpline
 70
8
 71
3
 72
8
 73
4
 74
0
 40
0
 40
0
 40
0
 40
0
 40
1
 40
1
 40
1
 40
1
 10
112.843440
 20
218.377525
 30
0.0
 10
113.768163
 20
219.337678
 30
0.0
 10
114.629113
 20
220.358063
 30
0.0
 10
115.415659
 20
221.428049
 30
0.0
  0
SPLINE
  5
133
100
AcDbEntity
  8
Capa_1
 62
7
100
AcDbSpline
 70
8
 71
3
 72
8
 73
4
 74
0
 40
0
 40
0
 40
0
 40
0
 40
1
 40
1
 40
1
 40
1
 10
115.415659
 20
221.428049
 30
0.0
 10
115.351885
 20
221.445764
 30
0.0
 10
115.284568
 20
221.470565
 30
0.0
 10
115.224337
 20
221.509538
 30
0.0
  0
SPLINE
  5
134
100
AcDbEntity
  8
Capa_1
 62
7
100
AcDbSpline
 70
8
 71
3
 72
8
 73
4
 74
0
 40
0
 40
0
 40
0
 40
0
 40
1
 40
1
 40
1
 40
1
 10
115.224337
 20
221.509538
 30
0.0
 10
113.215455
 20
222.816905
 30
0.0
 10
112.648575
 20
225.506043
 30
0.0
 10
113.955942
 20
227.514925
 30
0.0
  0
LWPOLYLINE
  5
135
100
AcDbEntity
  8
Capa_1
 62
7
100
AcDbPolyline
 90
3
 70
0
 10
110.707010
 20
222.880679
 30
0.0
 10
111.213659
 20
223.387329
 30
0.0
 10
111.723852
 20
222.880679
 30
0.0
  0
SPLINE
  5
136
100
AcDbEntity
  8
Capa_1
 62
7
100
AcDbSpline
 70
8
 71
3
 72
8
 73
4
 74
0
 40
0
 40
0
 40
0
 40
0
 40
1
 40
1
 40
1
 40
1
 10
114.916096
 20
227.716876
 30
0.0
 10
116.347468
 20
226.785067
 30
0.0
 10
117.041896
 20
225.151743
 30
0.0
 10
116.854117
 20
223.560936
 30
0.0
  0
SPLINE
  5
137
100
AcDbEntity
  8
Capa_1
 62
7
100
AcDbSpline
 70
8
 71
3
 72
8
 73
4
 74
0
 40
0
 40
0
 40
0
 40
0
 40
1
 40
1
 40
1
 40
1
 10
116.854117
 20
223.560936
 30
0.0
 10
117.516659
 20
224.648637
 30
0.0
 10
118.122512
 20
225.789483
 30
0.0
 10
118.650419
 20
226.969303
 30
0.0
  0
SPLINE
  5
138
100
AcDbEntity
  8
Capa_1
 62
7
100
AcDbSpline
 70
8
 71
3
 72
8
 73
4
 74
0
 40
0
 40
0
 40
0
 40
0
 40
1
 40
1
 40
1
 40
1
 10
118.650419
 20
226.969303
 30
0.0
 10
118.636247
 20
226.972846
 30
0.0
 10
118.622075
 20
226.972846
 30
0.0
 10
118.607903
 20
226.979932
 30
0.0
  0
SPLINE
  5
139
100
AcDbEntity
  8
Capa_1
 62
7
100
AcDbSpline
 70
8
 71
3
 72
8
 73
4
 74
0
 40
0
 40
0
 40
0
 40
0
 40
1
 40
1
 40
1
 40
1
 10
118.607903
 20
226.979932
 30
0.0
 10
116.428957
 20
227.738134
 30
0.0
 10
115.277482
 20
230.119031
 30
0.0
 10
116.035684
 20
232.297977
 30
0.0
  0
LWPOLYLINE
  5
13a
100
AcDbEntity
  8
Capa_1
 62
7
100
AcDbPolyline
 90
3
 70
0
 10
113.955942
 20
227.514925
 30
0.0
 10
114.331500
 20
228.095977
 30
0.0
 10
114.916096
 20
227.716876
 30
0.0
  0
SPLINE
  5
13b
100
AcDbEntity
  8
Capa_1
 62
7
100
AcDbSpline
 70
8
 71
3
 72
8
 73
4
 74
0
 40
0
 40
0
 40
0
 40
0
 40
1
 40
1
 40
1
 40
1
 10
116.886004
 20
232.708965
 30
0.0
 10
118.377608
 20
232.191687
 30
0.0
 10
119.383820
 20
230.912663
 30
0.0
 10
119.631830
 20
229.460033
 30
0.0
  0
SPLINE
  5
13c
100
AcDbEntity
  8
Capa_1
 62
7
100
AcDbSpline
 70
8
 71
3
 72
8
 73
4
 74
0
 40
0
 40
0
 40
0
 40
0
 40
1
 40
1
 40
1
 40
1
 10
119.631830
 20
229.460033
 30
0.0
 10
120.067619
 20
230.728427
 30
0.0
 10
120.421919
 20
232.035795
 30
0.0
 10
120.684102
 20
233.360877
 30
0.0
  0
SPLINE
  5
13d
100
AcDbEntity
  8
Capa_1
 62
7
100
AcDbSpline
 70
8
 71
3
 72
8
 73
4
 74
0
 40
0
 40
0
 40
0
 40
0
 40
1
 40
1
 40
1
 40
1
 10
120.684102
 20
233.360877
 30
0.0
 10
120.630957
 20
233.357334
 30
0.0
 10
120.574269
 20
233.353791
 30
0.0
 10
120.514038
 20
233.360877
 30
0.0
  0
SPLINE
  5
13e
100
AcDbEntity
  8
Capa_1
 62
7
100
AcDbSpline
 70
8
 71
3
 72
8
 73
4
 74
0
 40
0
 40
0
 40
0
 40
0
 40
1
 40
1
 40
1
 40
1
 10
120.514038
 20
233.360877
 30
0.0
 10
118.320920
 20
233.683290
 30
0.0
 10
116.804515
 20
235.720516
 30
0.0
 10
117.126928
 20
237.910091
 30
0.0
  0
LWPOLYLINE
  5
13f
100
AcDbEntity
  8
Capa_1
 62
7
100
AcDbPolyline
 90
3
 70
0
 10
116.035684
 20
232.297977
 30
0.0
 10
116.255350
 20
232.928631
 30
0.0
 10
116.886004
 20
232.708965
 30
0.0
  0
SPLINE
  5
140
100
AcDbEntity
  8
Capa_1
 62
7
100
AcDbSpline
 70
8
 71
3
 72
8
 73
4
 74
0
 40
0
 40
0
 40
0
 40
0
 40
1
 40
1
 40
1
 40
1
 10
117.853244
 20
238.452170
 30
0.0
 10
119.390906
 20
238.228961
 30
0.0
 10
120.591984
 20
237.158974
 30
0.0
 10
121.063203
 20
235.787833
 30
0.0
  0
SPLINE
  5
141
100
AcDbEntity
  8
Capa_1
 62
7
100
AcDbSpline
 70
8
 71
3
 72
8
 73
4
 74
0
 40
0
 40
0
 40
0
 40
0
 40
1
 40
1
 40
1
 40
1
 10
121.063203
 20
235.787833
 30
0.0
 10
121.197837
 20
236.939308
 30
0.0
 10
121.268697
 20
238.104956
 30
0.0
 10
121.268697
 20
239.259974
 30
0.0
  0
SPLINE
  5
142
100
AcDbEntity
  8
Capa_1
 62
7
100
AcDbSpline
 70
8
 71
3
 72
8
 73
4
 74
0
 40
0
 40
0
 40
0
 40
0
 40
1
 40
1
 40
1
 40
1
 10
121.268697
 20
239.259974
 30
0.0
 10
121.268697
 20
239.529242
 30
0.0
 10
121.261611
 20
239.794967
 30
0.0
 10
121.254525
 20
240.060692
 30
0.0
  0
SPLINE
  5
143
100
AcDbEntity
  8
Capa_1
 62
7
100
AcDbSpline
 70
8
 71
3
 72
8
 73
4
 74
0
 40
0
 40
0
 40
0
 40
0
 40
1
 40
1
 40
1
 40
1
 10
121.254525
 20
240.060692
 30
0.0
 10
121.215552
 20
240.050063
 30
0.0
 10
121.180122
 20
240.042977
 30
0.0
 10
121.141149
 20
240.039434
 30
0.0
  0
SPLINE
  5
144
100
AcDbEntity
  8
Capa_1
 62
7
100
AcDbSpline
 70
8
 71
3
 72
8
 73
4
 74
0
 40
0
 40
0
 40
0
 40
0
 40
1
 40
1
 40
1
 40
1
 10
121.141149
 20
240.039434
 30
0.0
 10
119.068493
 20
239.851655
 30
0.0
 10
117.240304
 20
241.378689
 30
0.0
 10
117.052525
 20
243.447801
 30
0.0
  0
LWPOLYLINE
  5
145
100
AcDbEntity
  8
Capa_1
 62
7
100
AcDbPolyline
 90
3
 70
0
 10
117.126928
 20
237.910091
 30
0.0
 10
117.219046
 20
238.544288
 30
0.0
 10
117.853244
 20
238.452170
 30
0.0
  0
SPLINE
  5
146
100
AcDbEntity
  8
Capa_1
 62
7
100
AcDbSpline
 70
8
 71
3
 72
8
 73
4
 74
0
 40
0
 40
0
 40
0
 40
0
 40
1
 40
1
 40
1
 40
1
 10
117.598148
 20
244.103257
 30
0.0
 10
119.043692
 20
244.230805
 30
0.0
 10
120.368774
 20
243.525747
 30
0.0
 10
121.102176
 20
242.388444
 30
0.0
  0
SPLINE
  5
147
100
AcDbEntity
  8
Capa_1
 62
7
100
AcDbSpline
 70
8
 71
3
 72
8
 73
4
 74
0
 40
0
 40
0
 40
0
 40
0
 40
1
 40
1
 40
1
 40
1
 10
121.102176
 20
242.388444
 30
0.0
 10
120.971085
 20
243.663924
 30
0.0
 10
120.758505
 20
244.950034
 30
0.0
 10
120.460893
 20
246.204256
 30
0.0
  0
SPLINE
  5
148
100
AcDbEntity
  8
Capa_1
 62
7
100
AcDbSpline
 70
8
 71
3
 72
8
 73
4
 74
0
 40
0
 40
0
 40
0
 40
0
 40
1
 40
1
 40
1
 40
1
 10
120.460893
 20
246.204256
 30
0.0
 10
118.710650
 20
245.704693
 30
0.0
 10
116.875375
 20
246.696733
 30
0.0
 10
116.347468
 20
248.443433
 30
0.0
  0
LWPOLYLINE
  5
149
100
AcDbEntity
  8
Capa_1
 62
7
100
AcDbPolyline
 90
3
 70
0
 10
117.052525
 20
243.447801
 30
0.0
 10
116.999380
 20
244.046569
 30
0.0
 10
117.598148
 20
244.103257
 30
0.0
  0
SPLINE
  5
14a
100
AcDbEntity
  8
Capa_1
 62
7
100
AcDbSpline
 70
8
 71
3
 72
8
 73
4
 74
0
 40
0
 40
0
 40
0
 40
0
 40
1
 40
1
 40
1
 40
1
 10
116.701768
 20
249.109517
 30
0.0
 10
117.828443
 20
249.453188
 30
0.0
 10
118.997633
 20
249.166205
 30
0.0
 10
119.833781
 20
248.457605
 30
0.0
  0
SPLINE
  5
14b
100
AcDbEntity
  8
Capa_1
 62
7
100
AcDbSpline
 70
8
 71
3
 72
8
 73
4
 74
0
 40
0
 40
0
 40
0
 40
0
 40
1
 40
1
 40
1
 40
1
 10
119.833781
 20
248.457605
 30
0.0
 10
119.454680
 20
249.633881
 30
0.0
 10
119.011805
 20
250.778271
 30
0.0
 10
118.501613
 20
251.880144
 30
0.0
  0
SPLINE
  5
14c
100
AcDbEntity
  8
Capa_1
 62
7
100
AcDbSpline
 70
8
 71
3
 72
8
 73
4
 74
0
 40
0
 40
0
 40
0
 40
0
 40
1
 40
1
 40
1
 40
1
 10
118.501613
 20
251.880144
 30
0.0
 10
118.473269
 20
251.855343
 30
0.0
 10
118.437839
 20
251.834085
 30
0.0
 10
118.402409
 20
251.816370
 30
0.0
  0
SPLINE
  5
14d
100
AcDbEntity
  8
Capa_1
 62
7
100
AcDbSpline
 70
8
 71
3
 72
8
 73
4
 74
0
 40
0
 40
0
 40
0
 40
0
 40
1
 40
1
 40
1
 40
1
 10
118.402409
 20
251.816370
 30
0.0
 10
116.808058
 20
251.058168
 30
0.0
 10
114.898381
 20
251.731338
 30
0.0
 10
114.136635
 20
253.329232
 30
0.0
  0
LWPOLYLINE
  5
14e
100
AcDbEntity
  8
Capa_1
 62
7
100
AcDbPolyline
 90
3
 70
0
 10
116.347468
 20
248.443433
 30
0.0
 10
116.191576
 20
248.953625
 30
0.0
 10
116.701768
 20
249.109517
 30
0.0
  0
SPLINE
  5
14f
100
AcDbEntity
  8
Capa_1
 62
7
100
AcDbSpline
 70
8
 71
3
 72
8
 73
4
 74
0
 40
0
 40
0
 40
0
 40
0
 40
1
 40
1
 40
1
 40
1
 10
114.377559
 20
254.009488
 30
0.0
 10
115.436917
 20
254.516137
 30
0.0
 10
116.634451
 20
254.385046
 30
0.0
 10
117.541460
 20
253.775650
 30
0.0
  0
SPLINE
  5
150
100
AcDbEntity
  8
Capa_1
 62
7
100
AcDbSpline
 70
8
 71
3
 72
8
 73
4
 74
0
 40
0
 40
0
 40
0
 40
0
 40
1
 40
1
 40
1
 40
1
 10
117.541460
 20
253.775650
 30
0.0
 10
116.921434
 20
254.898781
 30
0.0
 10
116.227006
 20
255.993569
 30
0.0
 10
115.465261
 20
257.031668
 30
0.0
  0
SPLINE
  5
151
100
AcDbEntity
  8
Capa_1
 62
7
100
AcDbSpline
 70
8
 71
3
 72
8
 73
4
 74
0
 40
0
 40
0
 40
0
 40
0
 40
1
 40
1
 40
1
 40
1
 10
115.465261
 20
257.031668
 30
0.0
 10
115.444003
 20
257.010410
 30
0.0
 10
115.429831
 20
256.985609
 30
0.0
 10
115.405030
 20
256.964351
 30
0.0
  0
SPLINE
  5
152
100
AcDbEntity
  8
Capa_1
 62
7
100
AcDbSpline
 70
8
 71
3
 72
8
 73
4
 74
0
 40
0
 40
0
 40
0
 40
0
 40
1
 40
1
 40
1
 40
1
 10
115.405030
 20
256.964351
 30
0.0
 10
114.058689
 20
255.986483
 30
0.0
 10
112.173813
 20
256.284095
 30
0.0
 10
111.192401
 20
257.630435
 30
0.0
  0
LWPOLYLINE
  5
153
100
AcDbEntity
  8
Capa_1
 62
7
100
AcDbPolyline
 90
3
 70
0
 10
114.136635
 20
253.329232
 30
0.0
 10
113.916969
 20
253.789822
 30
0.0
 10
114.377559
 20
254.009488
 30
0.0
  0
SPLINE
  5
154
100
AcDbEntity
  8
Capa_1
 62
7
100
AcDbSpline
 70
8
 71
3
 72
8
 73
4
 74
0
 40
0
 40
0
 40
0
 40
0
 40
1
 40
1
 40
1
 40
1
 10
111.298691
 20
258.303605
 30
0.0
 10
112.163184
 20
258.930717
 30
0.0
 10
113.243799
 20
259.029921
 30
0.0
 10
114.168522
 20
258.672078
 30
0.0
  0
SPLINE
  5
155
100
AcDbEntity
  8
Capa_1
 62
7
100
AcDbSpline
 70
8
 71
3
 72
8
 73
4
 74
0
 40
0
 40
0
 40
0
 40
0
 40
1
 40
1
 40
1
 40
1
 10
114.168522
 20
258.672078
 30
0.0
 10
113.275686
 20
259.731435
 30
0.0
 10
112.311990
 20
260.730561
 30
0.0
 10
111.280976
 20
261.658828
 30
0.0
  0
SPLINE
  5
156
100
AcDbEntity
  8
Capa_1
 62
7
100
AcDbSpline
 70
8
 71
3
 72
8
 73
4
 74
0
 40
0
 40
0
 40
0
 40
0
 40
1
 40
1
 40
1
 40
1
 10
111.280976
 20
261.658828
 30
0.0
 10
111.278614
 20
261.656466
 30
0.0
 10
111.277433
 20
261.654104
 30
0.0
 10
111.277433
 20
261.651742
 30
0.0
  0
SPLINE
  5
157
100
AcDbEntity
  8
Capa_1
 62
7
100
AcDbSpline
 70
8
 71
3
 72
8
 73
4
 74
0
 40
0
 40
0
 40
0
 40
0
 40
1
 40
1
 40
1
 40
1
 10
111.277433
 20
261.651742
 30
0.0
 10
110.409398
 20
260.734104
 30
0.0
 10
108.963854
 20
260.691588
 30
0.0
 10
108.042673
 20
261.556081
 30
0.0
  0
LWPOLYLINE
  5
158
100
AcDbEntity
  8
Capa_1
 62
7
100
AcDbPolyline
 90
3
 70
0
 10
111.192401
 20
257.630435
 30
0.0
 10
110.908961
 20
258.020165
 30
0.0
 10
111.298691
 20
258.303605
 30
0.0
  0
SPLINE
  5
159
100
AcDbEntity
  8
Capa_1
 62
7
100
AcDbSpline
 70
8
 71
3
 72
8
 73
4
 74
0
 40
0
 40
0
 40
0
 40
0
 40
1
 40
1
 40
1
 40
1
 10
108.028501
 20
262.073359
 30
0.0
 10
108.545779
 20
262.622524
 30
0.0
 10
109.265009
 20
262.856362
 30
0.0
 10
109.959437
 20
262.774873
 30
0.0
  0
SPLINE
  5
15a
100
AcDbEntity
  8
Capa_1
 62
7
100
AcDbSpline
 70
8
 71
3
 72
8
 73
4
 74
0
 40
0
 40
0
 40
0
 40
0
 40
1
 40
1
 40
1
 40
1
 10
109.959437
 20
262.774873
 30
0.0
 10
108.963854
 20
263.575591
 30
0.0
 10
107.918668
 20
264.312535
 30
0.0
 10
106.841596
 20
264.967991
 30
0.0
  0
LWPOLYLINE
  5
15b
100
AcDbEntity
  8
Capa_1
 62
7
100
AcDbPolyline
 90
3
 70
0
 10
108.042673
 20
261.556081
 30
0.0
 10
107.776948
 20
261.807634
 30
0.0
 10
108.028501
 20
262.073359
 30
0.0
  0
SPLINE
  5
15c
100
AcDbEntity
  8
Capa_1
 62
7
100
AcDbSpline
 70
8
 71
3
 72
8
 73
4
 74
0
 40
0
 40
0
 40
0
 40
0
 40
1
 40
1
 40
1
 40
1
 10
106.760107
 20
265.017593
 30
0.0
 10
106.728220
 20
265.038851
 30
0.0
 10
106.692790
 20
265.056566
 30
0.0
 10
106.660903
 20
265.077824
 30
0.0
  0
SPLINE
  5
15d
100
AcDbEntity
  8
Capa_1
 62
7
100
AcDbSpline
 70
8
 71
3
 72
8
 73
4
 74
0
 40
0
 40
0
 40
0
 40
0
 40
1
 40
1
 40
1
 40
1
 10
106.660903
 20
265.077824
 30
0.0
 10
106.136539
 20
264.202702
 30
0.0
 10
105.002778
 20
263.919262
 30
0.0
 10
104.127657
 20
264.440083
 30
0.0
  0
LWPOLYLINE
  5
15e
100
AcDbEntity
  8
Capa_1
 62
7
100
AcDbPolyline
 90
3
 70
0
 10
106.841596
 20
264.967991
 30
0.0
 10
106.791994
 20
264.985706
 30
0.0
 10
106.760107
 20
265.017593
 30
0.0
  0
SPLINE
  5
15f
100
AcDbEntity
  8
Capa_1
 62
7
100
AcDbSpline
 70
8
 71
3
 72
8
 73
4
 74
0
 40
0
 40
0
 40
0
 40
0
 40
1
 40
1
 40
1
 40
1
 10
104.024910
 20
264.847529
 30
0.0
 10
104.464242
 20
265.580930
 30
0.0
 10
105.328734
 20
265.892714
 30
0.0
 10
106.111738
 20
265.669505
 30
0.0
  0
SPLINE
  5
160
100
AcDbEntity
  8
Capa_1
 62
7
100
AcDbSpline
 70
8
 71
3
 72
8
 73
4
 74
0
 40
0
 40
0
 40
0
 40
0
 40
1
 40
1
 40
1
 40
1
 10
106.111738
 20
265.669505
 30
0.0
 10
105.530685
 20
266.254100
 30
0.0
 10
105.388965
 20
267.175280
 30
0.0
 10
105.831841
 20
267.919311
 30
0.0
  0
LWPOLYLINE
  5
161
100
AcDbEntity
  8
Capa_1
 62
7
100
AcDbPolyline
 90
3
 70
0
 10
104.127657
 20
264.440083
 30
0.0
 10
103.872561
 20
264.592433
 30
0.0
 10
104.024910
 20
264.847529
 30
0.0
  0
SPLINE
  5
162
100
AcDbEntity
  8
Capa_1
 62
7
100
AcDbSpline
 70
8
 71
3
 72
8
 73
4
 74
0
 40
0
 40
0
 40
0
 40
0
 40
1
 40
1
 40
1
 40
1
 10
106.235743
 20
268.022058
 30
0.0
 10
107.047090
 20
267.536667
 30
0.0
 10
107.344702
 20
266.533997
 30
0.0
 10
106.972687
 20
265.690763
 30
0.0
  0
SPLINE
  5
163
100
AcDbEntity
  8
Capa_1
 62
7
100
AcDbSpline
 70
8
 71
3
 72
8
 73
4
 74
0
 40
0
 40
0
 40
0
 40
0
 40
1
 40
1
 40
1
 40
1
 10
106.972687
 20
265.690763
 30
0.0
 10
107.032918
 20
265.655333
 30
0.0
 10
107.093149
 20
265.619903
 30
0.0
 10
107.153380
 20
265.584473
 30
0.0
  0
LWPOLYLINE
  5
164
100
AcDbEntity
  8
Capa_1
 62
7
100
AcDbPolyline
 90
3
 70
0
 10
105.831841
 20
267.919311
 30
0.0
 10
105.980647
 20
268.170864
 30
0.0
 10
106.235743
 20
268.022058
 30
0.0
  0
SPLINE
  5
165
100
AcDbEntity
  8
Capa_1
 62
7
100
AcDbSpline
 70
8
 71
3
 72
8
 73
4
 74
0
 40
0
 40
0
 40
0
 40
0
 40
1
 40
1
 40
1
 40
1
 10
107.164009
 20
265.577387
 30
0.0
 10
108.315484
 20
264.875873
 30
0.0
 10
109.413815
 20
264.096412
 30
0.0
 10
110.459000
 20
263.253178
 30
0.0
  0
SPLINE
  5
166
100
AcDbEntity
  8
Capa_1
 62
7
100
AcDbSpline
 70
8
 71
3
 72
8
 73
4
 74
0
 40
0
 40
0
 40
0
 40
0
 40
1
 40
1
 40
1
 40
1
 10
110.459000
 20
263.253178
 30
0.0
 10
110.306651
 20
263.965321
 30
0.0
 10
110.494430
 20
264.734153
 30
0.0
 10
111.029423
 20
265.304576
 30
0.0
  0
LWPOLYLINE
  5
167
100
AcDbEntity
  8
Capa_1
 62
7
100
AcDbPolyline
 90
2
 70
0
 10
107.153380
 20
265.584473
 30
0.0
 10
107.164009
 20
265.577387
 30
0.0
  0
SPLINE
  5
168
100
AcDbEntity
  8
Capa_1
 62
7
100
AcDbSpline
 70
8
 71
3
 72
8
 73
4
 74
0
 40
0
 40
0
 40
0
 40
0
 40
1
 40
1
 40
1
 40
1
 10
111.546701
 20
265.318748
 30
0.0
 10
112.435995
 20
264.482600
 30
0.0
 10
112.503312
 20
263.104372
 30
0.0
 10
111.723852
 20
262.183192
 30
0.0
  0
SPLINE
  5
169
100
AcDbEntity
  8
Capa_1
 62
7
100
AcDbSpline
 70
8
 71
3
 72
8
 73
4
 74
0
 40
0
 40
0
 40
0
 40
0
 40
1
 40
1
 40
1
 40
1
 10
111.723852
 20
262.183192
 30
0.0
 10
112.818639
 20
261.198237
 30
0.0
 10
113.828394
 20
260.149509
 30
0.0
 10
114.749575
 20
259.047636
 30
0.0
  0
SPLINE
  5
16a
100
AcDbEntity
  8
Capa_1
 62
7
100
AcDbSpline
 70
8
 71
3
 72
8
 73
4
 74
0
 40
0
 40
0
 40
0
 40
0
 40
1
 40
1
 40
1
 40
1
 10
114.749575
 20
259.047636
 30
0.0
 10
114.657457
 20
260.064477
 30
0.0
 10
115.086160
 20
261.106119
 30
0.0
 10
115.975453
 20
261.754489
 30
0.0
  0
LWPOLYLINE
  5
16b
100
AcDbEntity
  8
Capa_1
 62
7
100
AcDbPolyline
 90
3
 70
0
 10
111.029423
 20
265.304576
 30
0.0
 10
111.280976
 20
265.570301
 30
0.0
 10
111.546701
 20
265.318748
 30
0.0
  0
SPLINE
  5
16c
100
AcDbEntity
  8
Capa_1
 62
7
100
AcDbSpline
 70
8
 71
3
 72
8
 73
4
 74
0
 40
0
 40
0
 40
0
 40
0
 40
1
 40
1
 40
1
 40
1
 10
116.648623
 20
261.648199
 30
0.0
 10
117.622949
 20
260.308944
 30
0.0
 10
117.332422
 20
258.438239
 30
0.0
 10
116.007340
 20
257.456828
 30
0.0
  0
SPLINE
  5
16d
100
AcDbEntity
  8
Capa_1
 62
7
100
AcDbSpline
 70
8
 71
3
 72
8
 73
4
 74
0
 40
0
 40
0
 40
0
 40
0
 40
1
 40
1
 40
1
 40
1
 10
116.007340
 20
257.456828
 30
0.0
 10
116.786800
 20
256.393928
 30
0.0
 10
117.495401
 20
255.281425
 30
0.0
 10
118.126055
 20
254.137036
 30
0.0
  0
SPLINE
  5
16e
100
AcDbEntity
  8
Capa_1
 62
7
100
AcDbSpline
 70
8
 71
3
 72
8
 73
4
 74
0
 40
0
 40
0
 40
0
 40
0
 40
1
 40
1
 40
1
 40
1
 10
118.126055
 20
254.137036
 30
0.0
 10
118.235888
 20
255.210565
 30
0.0
 10
118.884257
 20
256.206149
 30
0.0
 10
119.929442
 20
256.702169
 30
0.0
  0
LWPOLYLINE
  5
16f
100
AcDbEntity
  8
Capa_1
 62
7
100
AcDbPolyline
 90
3
 70
0
 10
115.975453
 20
261.754489
 30
0.0
 10
116.365183
 20
262.037929
 30
0.0
 10
116.648623
 20
261.648199
 30
0.0
  0
SPLINE
  5
170
100
AcDbEntity
  8
Capa_1
 62
7
100
AcDbSpline
 70
8
 71
3
 72
8
 73
4
 74
0
 40
0
 40
0
 40
0
 40
0
 40
1
 40
1
 40
1
 40
1
 10
120.613242
 20
256.461245
 30
0.0
 10
121.371444
 20
254.870437
 30
0.0
 10
120.698274
 20
252.964303
 30
0.0
 10
119.111009
 20
252.202557
 30
0.0
  0
SPLINE
  5
171
100
AcDbEntity
  8
Capa_1
 62
7
100
AcDbSpline
 70
8
 71
3
 72
8
 73
4
 74
0
 40
0
 40
0
 40
0
 40
0
 40
1
 40
1
 40
1
 40
1
 10
119.111009
 20
252.202557
 30
0.0
 10
119.663717
 20
251.015652
 30
0.0
 10
120.142022
 20
249.761430
 30
0.0
 10
120.545925
 20
248.482406
 30
0.0
  0
SPLINE
  5
172
100
AcDbEntity
  8
Capa_1
 62
7
100
AcDbSpline
 70
8
 71
3
 72
8
 73
4
 74
0
 40
0
 40
0
 40
0
 40
0
 40
1
 40
1
 40
1
 40
1
 10
120.545925
 20
248.482406
 30
0.0
 10
120.779763
 20
249.648053
 30
0.0
 10
121.630083
 20
250.650723
 30
0.0
 10
122.848875
 20
251.019195
 30
0.0
  0
LWPOLYLINE
  5
173
100
AcDbEntity
  8
Capa_1
 62
7
100
AcDbPolyline
 90
3
 70
0
 10
119.929442
 20
256.702169
 30
0.0
 10
120.390032
 20
256.925378
 30
0.0
 10
120.613242
 20
256.461245
 30
0.0
  0
SPLINE
  5
174
100
AcDbEntity
  8
Capa_1
 62
7
100
AcDbSpline
 70
8
 71
3
 72
8
 73
4
 74
0
 40
0
 40
0
 40
0
 40
0
 40
1
 40
1
 40
1
 40
1
 10
123.514960
 20
250.664895
 30
0.0
 10
123.614164
 20
250.342482
 30
0.0
 10
123.660223
 20
250.016526
 30
0.0
 10
123.660223
 20
249.694112
 30
0.0
  0
SPLINE
  5
175
100
AcDbEntity
  8
Capa_1
 62
7
100
AcDbSpline
 70
8
 71
3
 72
8
 73
4
 74
0
 40
0
 40
0
 40
0
 40
0
 40
1
 40
1
 40
1
 40
1
 10
123.660223
 20
249.694112
 30
0.0
 10
123.660223
 20
248.262740
 30
0.0
 10
122.731956
 20
246.937658
 30
0.0
 10
121.289955
 20
246.501868
 30
0.0
  0
SPLINE
  5
176
100
AcDbEntity
  8
Capa_1
 62
7
100
AcDbSpline
 70
8
 71
3
 72
8
 73
4
 74
0
 40
0
 40
0
 40
0
 40
0
 40
1
 40
1
 40
1
 40
1
 10
121.289955
 20
246.501868
 30
0.0
 10
121.226181
 20
246.480610
 30
0.0
 10
121.162407
 20
246.477067
 30
0.0
 10
121.102176
 20
246.480610
 30
0.0
  0
SPLINE
  5
177
100
AcDbEntity
  8
Capa_1
 62
7
100
AcDbSpline
 70
8
 71
3
 72
8
 73
4
 74
0
 40
0
 40
0
 40
0
 40
0
 40
1
 40
1
 40
1
 40
1
 10
121.102176
 20
246.480610
 30
0.0
 10
121.102176
 20
246.477067
 30
0.0
 10
121.102176
 20
246.473524
 30
0.0
 10
121.105719
 20
246.469981
 30
0.0
  0
SPLINE
  5
178
100
AcDbEntity
  8
Capa_1
 62
7
100
AcDbSpline
 70
8
 71
3
 72
8
 73
4
 74
0
 40
0
 40
0
 40
0
 40
0
 40
1
 40
1
 40
1
 40
1
 10
121.105719
 20
246.469981
 30
0.0
 10
121.403331
 20
245.229931
 30
0.0
 10
121.622997
 20
243.954451
 30
0.0
 10
121.761174
 20
242.668341
 30
0.0
  0
SPLINE
  5
179
100
AcDbEntity
  8
Capa_1
 62
7
100
AcDbSpline
 70
8
 71
3
 72
8
 73
4
 74
0
 40
0
 40
0
 40
0
 40
0
 40
1
 40
1
 40
1
 40
1
 10
121.761174
 20
242.668341
 30
0.0
 10
122.313882
 20
243.830446
 30
0.0
 10
123.447643
 20
244.677223
 30
0.0
 10
124.818784
 20
244.804771
 30
0.0
  0
LWPOLYLINE
  5
17a
100
AcDbEntity
  8
Capa_1
 62
7
100
AcDbPolyline
 90
3
 70
0
 10
122.848875
 20
251.019195
 30
0.0
 10
123.359067
 20
251.175087
 30
0.0
 10
123.514960
 20
250.664895
 30
0.0
  0
SPLINE
  5
17b
100
AcDbEntity
  8
Capa_1
 62
7
100
AcDbSpline
 70
8
 71
3
 72
8
 73
4
 74
0
 40
0
 40
0
 40
0
 40
0
 40
1
 40
1
 40
1
 40
1
 10
125.474239
 20
244.259149
 30
0.0
 10
125.662018
 20
242.186493
 30
0.0
 10
124.134985
 20
240.358304
 30
0.0
 10
122.065872
 20
240.170525
 30
0.0
  0
SPLINE
  5
17c
100
AcDbEntity
  8
Capa_1
 62
7
100
AcDbSpline
 70
8
 71
3
 72
8
 73
4
 74
0
 40
0
 40
0
 40
0
 40
0
 40
1
 40
1
 40
1
 40
1
 10
122.065872
 20
240.170525
 30
0.0
 10
122.023356
 20
240.166982
 30
0.0
 10
121.980840
 20
240.170525
 30
0.0
 10
121.938324
 20
240.174068
 30
0.0
  0
SPLINE
  5
17d
100
AcDbEntity
  8
Capa_1
 62
7
100
AcDbSpline
 70
8
 71
3
 72
8
 73
4
 74
0
 40
0
 40
0
 40
0
 40
0
 40
1
 40
1
 40
1
 40
1
 10
121.938324
 20
240.174068
 30
0.0
 10
121.948953
 20
239.872913
 30
0.0
 10
121.956039
 20
239.568215
 30
0.0
 10
121.956039
 20
239.259974
 30
0.0
  0
SPLINE
  5
17e
100
AcDbEntity
  8
Capa_1
 62
7
100
AcDbSpline
 70
8
 71
3
 72
8
 73
4
 74
0
 40
0
 40
0
 40
0
 40
0
 40
1
 40
1
 40
1
 40
1
 10
121.956039
 20
239.259974
 30
0.0
 10
121.956039
 20
238.133300
 30
0.0
 10
121.888722
 20
236.999539
 30
0.0
 10
121.768260
 20
235.876408
 30
0.0
  0
SPLINE
  5
17f
100
AcDbEntity
  8
Capa_1
 62
7
100
AcDbSpline
 70
8
 71
3
 72
8
 73
4
 74
0
 40
0
 40
0
 40
0
 40
0
 40
1
 40
1
 40
1
 40
1
 10
121.768260
 20
235.876408
 30
0.0
 10
122.625666
 20
236.978281
 30
0.0
 10
124.032238
 20
237.601849
 30
0.0
 10
125.513212
 20
237.385726
 30
0.0
  0
LWPOLYLINE
  5
180
100
AcDbEntity
  8
Capa_1
 62
7
100
AcDbPolyline
 90
3
 70
0
 10
124.818784
 20
244.804771
 30
0.0
 10
125.421094
 20
244.857916
 30
0.0
 10
125.474239
 20
244.259149
 30
0.0
  0
SPLINE
  5
181
100
AcDbEntity
  8
Capa_1
 62
7
100
AcDbSpline
 70
8
 71
3
 72
8
 73
4
 74
0
 40
0
 40
0
 40
0
 40
0
 40
1
 40
1
 40
1
 40
1
 10
126.055291
 20
236.659411
 30
0.0
 10
125.732878
 20
234.466293
 30
0.0
 10
123.699196
 20
232.949889
 30
0.0
 10
121.506078
 20
233.268759
 30
0.0
  0
SPLINE
  5
182
100
AcDbEntity
  8
Capa_1
 62
7
100
AcDbSpline
 70
8
 71
3
 72
8
 73
4
 74
0
 40
0
 40
0
 40
0
 40
0
 40
1
 40
1
 40
1
 40
1
 10
121.506078
 20
233.268759
 30
0.0
 10
121.460019
 20
233.275845
 30
0.0
 10
121.417503
 20
233.286474
 30
0.0
 10
121.374987
 20
233.304189
 30
0.0
  0
LWPOLYLINE
  5
183
100
AcDbEntity
  8
Capa_1
 62
7
100
AcDbPolyline
 90
3
 70
0
 10
125.513212
 20
237.385726
 30
0.0
 10
126.147409
 20
237.293608
 30
0.0
 10
126.055291
 20
236.659411
 30
0.0
  0
SPLINE
  5
184
100
AcDbEntity
  8
Capa_1
 62
7
100
AcDbSpline
 70
8
 71
3
 72
8
 73
4
 74
0
 40
0
 40
0
 40
0
 40
0
 40
1
 40
1
 40
1
 40
1
 10
84.729725
 20
211.532447
 30
0.0
 10
84.729725
 20
211.489931
 30
0.0
 10
84.729725
 20
211.443872
 30
0.0
 10
84.726182
 20
211.401356
 30
0.0
  0
SPLINE
  5
185
100
AcDbEntity
  8
Capa_1
 62
7
100
AcDbSpline
 70
8
 71
3
 72
8
 73
4
 74
0
 40
0
 40
0
 40
0
 40
0
 40
1
 40
1
 40
1
 40
1
 10
84.726182
 20
211.401356
 30
0.0
 10
84.719096
 20
211.188775
 30
0.0
 10
84.697838
 20
210.969109
 30
0.0
 10
84.658865
 20
210.756529
 30
0.0
  0
SPLINE
  5
186
100
AcDbEntity
  8
Capa_1
 62
7
100
AcDbSpline
 70
8
 71
3
 72
8
 73
4
 74
0
 40
0
 40
0
 40
0
 40
0
 40
1
 40
1
 40
1
 40
1
 10
84.658865
 20
210.756529
 30
0.0
 10
84.641150
 20
210.618352
 30
0.0
 10
84.612806
 20
210.480175
 30
0.0
 10
84.577376
 20
210.341998
 30
0.0
  0
SPLINE
  5
187
100
AcDbEntity
  8
Capa_1
 62
7
100
AcDbSpline
 70
8
 71
3
 72
8
 73
4
 74
0
 40
0
 40
0
 40
0
 40
0
 40
1
 40
1
 40
1
 40
1
 10
84.577376
 20
210.341998
 30
0.0
 10
84.527774
 20
210.140047
 30
0.0
 10
84.400226
 20
209.973526
 30
0.0
 10
84.240791
 20
209.867236
 30
0.0
  0
LWPOLYLINE
  5
188
100
AcDbEntity
  8
Capa_1
 62
7
100
AcDbPolyline
 90
1
 70
1
 10
121.374987
 20
233.304189
 30
0.0
  0
SPLINE
  5
189
100
AcDbEntity
  8
Capa_1
 62
7
100
AcDbSpline
 70
8
 71
3
 72
8
 73
4
 74
0
 40
0
 40
0
 40
0
 40
0
 40
1
 40
1
 40
1
 40
1
 10
84.184103
 20
209.612140
 30
0.0
 10
84.237248
 20
209.466877
 30
0.0
 10
84.251420
 20
209.303899
 30
0.0
 10
84.208904
 20
209.140921
 30
0.0
  0
SPLINE
  5
18a
100
AcDbEntity
  8
Capa_1
 62
7
100
AcDbSpline
 70
8
 71
3
 72
8
 73
4
 74
0
 40
0
 40
0
 40
0
 40
0
 40
1
 40
1
 40
1
 40
1
 10
84.208904
 20
209.140921
 30
0.0
 10
84.184103
 20
209.048803
 30
0.0
 10
84.159302
 20
208.956685
 30
0.0
 10
84.134501
 20
208.868110
 30
0.0
  0
SPLINE
  5
18b
100
AcDbEntity
  8
Capa_1
 62
7
100
AcDbSpline
 70
8
 71
3
 72
8
 73
4
 74
0
 40
0
 40
0
 40
0
 40
0
 40
1
 40
1
 40
1
 40
1
 10
84.134501
 20
208.868110
 30
0.0
 10
83.936093
 20
208.240998
 30
0.0
 10
83.627852
 20
207.674118
 30
0.0
 10
83.234579
 20
207.188727
 30
0.0
  0
SPLINE
  5
18c
100
AcDbEntity
  8
Capa_1
 62
7
100
AcDbSpline
 70
8
 71
3
 72
8
 73
4
 74
0
 40
0
 40
0
 40
0
 40
0
 40
1
 40
1
 40
1
 40
1
 10
83.234579
 20
207.188727
 30
0.0
 10
82.037044
 20
205.700667
 30
0.0
 10
80.038792
 20
204.960179
 30
0.0
 10
78.061797
 20
205.456200
 30
0.0
  0
LWPOLYLINE
  5
18d
100
AcDbEntity
  8
Capa_1
 62
7
100
AcDbPolyline
 90
2
 70
0
 10
84.240791
 20
209.867236
 30
0.0
 10
84.184103
 20
209.612140
 30
0.0
  0
SPLINE
  5
18e
100
AcDbEntity
  8
Capa_1
 62
7
100
AcDbSpline
 70
8
 71
3
 72
8
 73
4
 74
0
 40
0
 40
0
 40
0
 40
0
 40
1
 40
1
 40
1
 40
1
 10
77.473659
 20
206.437611
 30
0.0
 10
77.944878
 20
208.318944
 30
0.0
 10
79.408138
 20
209.686543
 30
0.0
 10
81.165466
 20
210.125875
 30
0.0
  0
SPLINE
  5
18f
100
AcDbEntity
  8
Capa_1
 62
7
100
AcDbSpline
 70
8
 71
3
 72
8
 73
4
 74
0
 40
0
 40
0
 40
0
 40
0
 40
1
 40
1
 40
1
 40
1
 10
81.165466
 20
210.125875
 30
0.0
 10
79.758895
 20
210.607723
 30
0.0
 10
78.391296
 20
211.185232
 30
0.0
 10
77.083929
 20
211.861946
 30
0.0
  0
SPLINE
  5
190
100
AcDbEntity
  8
Capa_1
 62
7
100
AcDbSpline
 70
8
 71
3
 72
8
 73
4
 74
0
 40
0
 40
0
 40
0
 40
0
 40
1
 40
1
 40
1
 40
1
 10
77.083929
 20
211.861946
 30
0.0
 10
77.066214
 20
211.780457
 30
0.0
 10
77.037870
 20
211.702511
 30
0.0
 10
76.988268
 20
211.628108
 30
0.0
  0
SPLINE
  5
191
100
AcDbEntity
  8
Capa_1
 62
7
100
AcDbSpline
 70
8
 71
3
 72
8
 73
4
 74
0
 40
0
 40
0
 40
0
 40
0
 40
1
 40
1
 40
1
 40
1
 10
76.988268
 20
211.628108
 30
0.0
 10
75.631298
 20
209.470420
 30
0.0
 10
72.782725
 20
208.822051
 30
0.0
 10
70.625038
 20
210.182563
 30
0.0
  0
LWPOLYLINE
  5
192
100
AcDbEntity
  8
Capa_1
 62
7
100
AcDbPolyline
 90
3
 70
0
 10
78.061797
 20
205.456200
 30
0.0
 10
77.275251
 20
205.651065
 30
0.0
 10
77.473659
 20
206.437611
 30
0.0
  0
SPLINE
  5
193
100
AcDbEntity
  8
Capa_1
 62
7
100
AcDbSpline
 70
8
 71
3
 72
8
 73
4
 74
0
 40
0
 40
0
 40
0
 40
0
 40
1
 40
1
 40
1
 40
1
 10
70.394743
 20
211.199404
 30
0.0
 10
71.312380
 20
212.655578
 30
0.0
 10
72.910273
 20
213.420866
 30
0.0
 10
74.515253
 20
213.350006
 30
0.0
  0
SPLINE
  5
194
100
AcDbEntity
  8
Capa_1
 62
7
100
AcDbSpline
 70
8
 71
3
 72
8
 73
4
 74
0
 40
0
 40
0
 40
0
 40
0
 40
1
 40
1
 40
1
 40
1
 10
74.515253
 20
213.350006
 30
0.0
 10
73.310633
 20
214.122380
 30
0.0
 10
72.152071
 20
214.979787
 30
0.0
 10
71.071456
 20
215.915139
 30
0.0
  0
SPLINE
  5
195
100
AcDbEntity
  8
Capa_1
 62
7
100
AcDbSpline
 70
8
 71
3
 72
8
 73
4
 74
0
 40
0
 40
0
 40
0
 40
0
 40
1
 40
1
 40
1
 40
1
 10
71.071456
 20
215.915139
 30
0.0
 10
71.043112
 20
215.869080
 30
0.0
 10
71.011225
 20
215.826564
 30
0.0
 10
70.972252
 20
215.787591
 30
0.0
  0
SPLINE
  5
196
100
AcDbEntity
  8
Capa_1
 62
7
100
AcDbSpline
 70
8
 71
3
 72
8
 73
4
 74
0
 40
0
 40
0
 40
0
 40
0
 40
1
 40
1
 40
1
 40
1
 10
70.972252
 20
215.787591
 30
0.0
 10
69.214923
 20
214.037348
 30
0.0
 10
66.373436
 20
214.044434
 30
0.0
 10
64.623194
 20
215.801763
 30
0.0
  0
LWPOLYLINE
  5
197
100
AcDbEntity
  8
Capa_1
 62
7
100
AcDbPolyline
 90
3
 70
0
 10
70.625038
 20
210.182563
 30
0.0
 10
70.001469
 20
210.575836
 30
0.0
 10
70.394743
 20
211.199404
 30
0.0
  0
SPLINE
  5
198
100
AcDbEntity
  8
Capa_1
 62
7
100
AcDbSpline
 70
8
 71
3
 72
8
 73
4
 74
0
 40
0
 40
0
 40
0
 40
0
 40
1
 40
1
 40
1
 40
1
 10
64.626737
 20
216.818604
 30
0.0
 10
65.785298
 20
217.973623
 30
0.0
 10
67.418622
 20
218.356267
 30
0.0
 10
68.899596
 20
217.980709
 30
0.0
  0
SPLINE
  5
199
100
AcDbEntity
  8
Capa_1
 62
7
100
AcDbSpline
 70
8
 71
3
 72
8
 73
4
 74
0
 40
0
 40
0
 40
0
 40
0
 40
1
 40
1
 40
1
 40
1
 10
68.899596
 20
217.980709
 30
0.0
 10
67.999674
 20
218.919604
 30
0.0
 10
67.149353
 20
219.922273
 30
0.0
 10
66.369893
 20
220.974545
 30
0.0
  0
SPLINE
  5
19a
100
AcDbEntity
  8
Capa_1
 62
7
100
AcDbSpline
 70
8
 71
3
 72
8
 73
4
 74
0
 40
0
 40
0
 40
0
 40
0
 40
1
 40
1
 40
1
 40
1
 10
66.369893
 20
220.974545
 30
0.0
 10
66.367531
 20
220.974545
 30
0.0
 10
66.365169
 20
220.973364
 30
0.0
 10
66.362807
 20
220.971002
 30
0.0
  0
SPLINE
  5
19b
100
AcDbEntity
  8
Capa_1
 62
7
100
AcDbSpline
 70
8
 71
3
 72
8
 73
4
 74
0
 40
0
 40
0
 40
0
 40
0
 40
1
 40
1
 40
1
 40
1
 10
66.362807
 20
220.971002
 30
0.0
 10
64.353926
 20
219.663634
 30
0.0
 10
61.668331
 20
220.234058
 30
0.0
 10
60.360963
 20
222.242939
 30
0.0
  0
LWPOLYLINE
  5
19c
100
AcDbEntity
  8
Capa_1
 62
7
100
AcDbPolyline
 90
3
 70
0
 10
64.623194
 20
215.801763
 30
0.0
 10
64.116544
 20
216.308412
 30
0.0
 10
64.626737
 20
216.818604
 30
0.0
  0
SPLINE
  5
19d
100
AcDbEntity
  8
Capa_1
 62
7
100
AcDbSpline
 70
8
 71
3
 72
8
 73
4
 74
0
 40
0
 40
0
 40
0
 40
0
 40
1
 40
1
 40
1
 40
1
 10
60.562914
 20
223.203093
 30
0.0
 10
61.834852
 20
224.032155
 30
0.0
 10
63.379600
 20
224.103015
 30
0.0
 10
64.672796
 20
223.536135
 30
0.0
  0
SPLINE
  5
19e
100
AcDbEntity
  8
Capa_1
 62
7
100
AcDbSpline
 70
8
 71
3
 72
8
 73
4
 74
0
 40
0
 40
0
 40
0
 40
0
 40
1
 40
1
 40
1
 40
1
 10
64.672796
 20
223.536135
 30
0.0
 10
64.066942
 20
224.552976
 30
0.0
 10
63.507148
 20
225.626505
 30
0.0
 10
63.011128
 20
226.735465
 30
0.0
  0
SPLINE
  5
19f
100
AcDbEntity
  8
Capa_1
 62
7
100
AcDbSpline
 70
8
 71
3
 72
8
 73
4
 74
0
 40
0
 40
0
 40
0
 40
0
 40
1
 40
1
 40
1
 40
1
 10
63.011128
 20
226.735465
 30
0.0
 10
62.982784
 20
226.717750
 30
0.0
 10
62.950897
 20
226.703578
 30
0.0
 10
62.919010
 20
226.689406
 30
0.0
  0
SPLINE
  5
1a0
100
AcDbEntity
  8
Capa_1
 62
7
100
AcDbSpline
 70
8
 71
3
 72
8
 73
4
 74
0
 40
0
 40
0
 40
0
 40
0
 40
1
 40
1
 40
1
 40
1
 10
62.919010
 20
226.689406
 30
0.0
 10
60.740064
 20
225.931203
 30
0.0
 10
58.359167
 20
227.082679
 30
0.0
 10
57.600965
 20
229.261625
 30
0.0
  0
LWPOLYLINE
  5
1a1
100
AcDbEntity
  8
Capa_1
 62
7
100
AcDbPolyline
 90
3
 70
0
 10
60.360963
 20
222.242939
 30
0.0
 10
59.981862
 20
222.823991
 30
0.0
 10
60.562914
 20
223.203093
 30
0.0
  0
SPLINE
  5
1a2
100
AcDbEntity
  8
Capa_1
 62
7
100
AcDbSpline
 70
8
 71
3
 72
8
 73
4
 74
0
 40
0
 40
0
 40
0
 40
0
 40
1
 40
1
 40
1
 40
1
 10
58.011953
 20
230.115488
 30
0.0
 10
59.404353
 20
230.597336
 30
0.0
 10
60.874698
 20
230.299724
 30
0.0
 10
61.955314
 20
229.456490
 30
0.0
  0
SPLINE
  5
1a3
100
AcDbEntity
  8
Capa_1
 62
7
100
AcDbSpline
 70
8
 71
3
 72
8
 73
4
 74
0
 40
0
 40
0
 40
0
 40
0
 40
1
 40
1
 40
1
 40
1
 10
61.955314
 20
229.456490
 30
0.0
 10
61.537240
 20
230.707169
 30
0.0
 10
61.193568
 20
231.982649
 30
0.0
 10
60.942015
 20
233.261673
 30
0.0
  0
SPLINE
  5
1a4
100
AcDbEntity
  8
Capa_1
 62
7
100
AcDbSpline
 70
8
 71
3
 72
8
 73
4
 74
0
 40
0
 40
0
 40
0
 40
0
 40
1
 40
1
 40
1
 40
1
 10
60.942015
 20
233.261673
 30
0.0
 10
58.780785
 20
232.985319
 30
0.0
 10
56.786075
 20
234.491094
 30
0.0
 10
56.467205
 20
236.659411
 30
0.0
  0
LWPOLYLINE
  5
1a5
100
AcDbEntity
  8
Capa_1
 62
7
100
AcDbPolyline
 90
3
 70
0
 10
57.600965
 20
229.261625
 30
0.0
 10
57.381299
 20
229.895822
 30
0.0
 10
58.011953
 20
230.115488
 30
0.0
  0
SPLINE
  5
1a6
100
AcDbEntity
  8
Capa_1
 62
7
100
AcDbSpline
 70
8
 71
3
 72
8
 73
4
 74
0
 40
0
 40
0
 40
0
 40
0
 40
1
 40
1
 40
1
 40
1
 10
57.009284
 20
237.385726
 30
0.0
 10
58.359167
 20
237.584134
 30
0.0
 10
59.648820
 20
237.081028
 30
0.0
 10
60.516855
 20
236.156305
 30
0.0
  0
SPLINE
  5
1a7
100
AcDbEntity
  8
Capa_1
 62
7
100
AcDbSpline
 70
8
 71
3
 72
8
 73
4
 74
0
 40
0
 40
0
 40
0
 40
0
 40
1
 40
1
 40
1
 40
1
 10
60.516855
 20
236.156305
 30
0.0
 10
60.414108
 20
237.176689
 30
0.0
 10
60.357420
 20
238.214789
 30
0.0
 10
60.357420
 20
239.259974
 30
0.0
  0
SPLINE
  5
1a8
100
AcDbEntity
  8
Capa_1
 62
7
100
AcDbSpline
 70
8
 71
3
 72
8
 73
4
 74
0
 40
0
 40
0
 40
0
 40
0
 40
1
 40
1
 40
1
 40
1
 10
60.357420
 20
239.259974
 30
0.0
 10
60.357420
 20
239.568215
 30
0.0
 10
60.360963
 20
239.876456
 30
0.0
 10
60.375135
 20
240.184697
 30
0.0
  0
SPLINE
  5
1a9
100
AcDbEntity
  8
Capa_1
 62
7
100
AcDbSpline
 70
8
 71
3
 72
8
 73
4
 74
0
 40
0
 40
0
 40
0
 40
0
 40
1
 40
1
 40
1
 40
1
 10
60.375135
 20
240.184697
 30
0.0
 10
58.348538
 20
240.411449
 30
0.0
 10
56.864021
 20
242.214837
 30
0.0
 10
57.048257
 20
244.259149
 30
0.0
  0
LWPOLYLINE
  5
1aa
100
AcDbEntity
  8
Capa_1
 62
7
100
AcDbPolyline
 90
3
 70
0
 10
56.467205
 20
236.659411
 30
0.0
 10
56.375087
 20
237.293608
 30
0.0
 10
57.009284
 20
237.385726
 30
0.0
  0
SPLINE
  5
1ab
100
AcDbEntity
  8
Capa_1
 62
7
100
AcDbSpline
 70
8
 71
3
 72
8
 73
4
 74
0
 40
0
 40
0
 40
0
 40
0
 40
1
 40
1
 40
1
 40
1
 10
57.703712
 20
244.804771
 30
0.0
 10
58.943763
 20
244.691395
 30
0.0
 10
59.988948
 20
243.986338
 30
0.0
 10
60.584172
 20
242.994297
 30
0.0
  0
SPLINE
  5
1ac
100
AcDbEntity
  8
Capa_1
 62
7
100
AcDbSpline
 70
8
 71
3
 72
8
 73
4
 74
0
 40
0
 40
0
 40
0
 40
0
 40
1
 40
1
 40
1
 40
1
 10
60.584172
 20
242.994297
 30
0.0
 10
60.729435
 20
244.181203
 30
0.0
 10
60.942015
 20
245.361022
 30
0.0
 10
61.218369
 20
246.505411
 30
0.0
  0
SPLINE
  5
1ad
100
AcDbEntity
  8
Capa_1
 62
7
100
AcDbSpline
 70
8
 71
3
 72
8
 73
4
 74
0
 40
0
 40
0
 40
0
 40
0
 40
1
 40
1
 40
1
 40
1
 10
61.218369
 20
246.505411
 30
0.0
 10
59.464584
 20
247.047491
 30
0.0
 10
58.472544
 20
248.904023
 30
0.0
 10
59.007537
 20
250.664895
 30
0.0
  0
LWPOLYLINE
  5
1ae
100
AcDbEntity
  8
Capa_1
 62
7
100
AcDbPolyline
 90
3
 70
0
 10
57.048257
 20
244.259149
 30
0.0
 10
57.101402
 20
244.857916
 30
0.0
 10
57.703712
 20
244.804771
 30
0.0
  0
SPLINE
  5
1af
100
AcDbEntity
  8
Capa_1
 62
7
100
AcDbSpline
 70
8
 71
3
 72
8
 73
4
 74
0
 40
0
 40
0
 40
0
 40
0
 40
1
 40
1
 40
1
 40
1
 10
59.673621
 20
251.019195
 30
0.0
 10
60.764865
 20
250.689696
 30
0.0
 10
61.562041
 20
249.850005
 30
0.0
 10
61.884454
 20
248.840249
 30
0.0
  0
SPLINE
  5
1b0
100
AcDbEntity
  8
Capa_1
 62
7
100
AcDbSpline
 70
8
 71
3
 72
8
 73
4
 74
0
 40
0
 40
0
 40
0
 40
0
 40
1
 40
1
 40
1
 40
1
 10
61.884454
 20
248.840249
 30
0.0
 10
62.267098
 20
250.016526
 30
0.0
 10
62.720602
 20
251.175087
 30
0.0
 10
63.244966
 20
252.291132
 30
0.0
  0
SPLINE
  5
1b1
100
AcDbEntity
  8
Capa_1
 62
7
100
AcDbSpline
 70
8
 71
3
 72
8
 73
4
 74
0
 40
0
 40
0
 40
0
 40
0
 40
1
 40
1
 40
1
 40
1
 10
63.244966
 20
252.291132
 30
0.0
 10
61.778164
 20
253.106023
 30
0.0
 10
61.179396
 20
254.927125
 30
0.0
 10
61.909255
 20
256.461245
 30
0.0
  0
LWPOLYLINE
  5
1b2
100
AcDbEntity
  8
Capa_1
 62
7
100
AcDbPolyline
 90
3
 70
0
 10
59.007537
 20
250.664895
 30
0.0
 10
59.163429
 20
251.175087
 30
0.0
 10
59.673621
 20
251.019195
 30
0.0
  0
SPLINE
  5
1b3
100
AcDbEntity
  8
Capa_1
 62
7
100
AcDbSpline
 70
8
 71
3
 72
8
 73
4
 74
0
 40
0
 40
0
 40
0
 40
0
 40
1
 40
1
 40
1
 40
1
 10
62.593054
 20
256.702169
 30
0.0
 10
63.542578
 20
256.252208
 30
0.0
 10
64.162603
 20
255.387715
 30
0.0
 10
64.353926
 20
254.431105
 30
0.0
  0
SPLINE
  5
1b4
100
AcDbEntity
  8
Capa_1
 62
7
100
AcDbSpline
 70
8
 71
3
 72
8
 73
4
 74
0
 40
0
 40
0
 40
0
 40
0
 40
1
 40
1
 40
1
 40
1
 10
64.353926
 20
254.431105
 30
0.0
 10
64.970408
 20
255.518806
 30
0.0
 10
65.650664
 20
256.571078
 30
0.0
 10
66.384065
 20
257.563118
 30
0.0
  0
SPLINE
  5
1b5
100
AcDbEntity
  8
Capa_1
 62
7
100
AcDbSpline
 70
8
 71
3
 72
8
 73
4
 74
0
 40
0
 40
0
 40
0
 40
0
 40
1
 40
1
 40
1
 40
1
 10
66.384065
 20
257.563118
 30
0.0
 10
65.172359
 20
258.569331
 30
0.0
 10
64.934978
 20
260.355003
 30
0.0
 10
65.873873
 20
261.648199
 30
0.0
  0
LWPOLYLINE
  5
1b6
100
AcDbEntity
  8
Capa_1
 62
7
100
AcDbPolyline
 90
3
 70
0
 10
61.909255
 20
256.461245
 30
0.0
 10
62.132464
 20
256.925378
 30
0.0
 10
62.593054
 20
256.702169
 30
0.0
  0
SPLINE
  5
1b7
100
AcDbEntity
  8
Capa_1
 62
7
100
AcDbSpline
 70
8
 71
3
 72
8
 73
4
 74
0
 40
0
 40
0
 40
0
 40
0
 40
1
 40
1
 40
1
 40
1
 10
66.547043
 20
261.754489
 30
0.0
 10
67.358391
 20
261.162807
 30
0.0
 10
67.787094
 20
260.241627
 30
0.0
 10
67.787094
 20
259.309818
 30
0.0
  0
SPLINE
  5
1b8
100
AcDbEntity
  8
Capa_1
 62
7
100
AcDbSpline
 70
8
 71
3
 72
8
 73
4
 74
0
 40
0
 40
0
 40
0
 40
0
 40
1
 40
1
 40
1
 40
1
 10
67.787094
 20
259.309818
 30
0.0
 10
68.676387
 20
260.351460
 30
0.0
 10
69.661341
 20
261.361215
 30
0.0
 10
70.706527
 20
262.293025
 30
0.0
  0
SPLINE
  5
1b9
100
AcDbEntity
  8
Capa_1
 62
7
100
AcDbSpline
 70
8
 71
3
 72
8
 73
4
 74
0
 40
0
 40
0
 40
0
 40
0
 40
1
 40
1
 40
1
 40
1
 10
70.706527
 20
262.293025
 30
0.0
 10
70.022727
 20
263.210662
 30
0.0
 10
70.121931
 20
264.514487
 30
0.0
 10
70.975795
 20
265.318748
 30
0.0
  0
LWPOLYLINE
  5
1ba
100
AcDbEntity
  8
Capa_1
 62
7
100
AcDbPolyline
 90
3
 70
0
 10
65.873873
 20
261.648199
 30
0.0
 10
66.157313
 20
262.037929
 30
0.0
 10
66.547043
 20
261.754489
 30
0.0
  0
SPLINE
  5
1bb
100
AcDbEntity
  8
Capa_1
 62
7
100
AcDbSpline
 70
8
 71
3
 72
8
 73
4
 74
0
 40
0
 40
0
 40
0
 40
0
 40
1
 40
1
 40
1
 40
1
 10
71.493073
 20
265.304576
 30
0.0
 10
71.982007
 20
264.787298
 30
0.0
 10
72.180415
 20
264.099955
 30
0.0
 10
72.095383
 20
263.444500
 30
0.0
  0
SPLINE
  5
1bc
100
AcDbEntity
  8
Capa_1
 62
7
100
AcDbSpline
 70
8
 71
3
 72
8
 73
4
 74
0
 40
0
 40
0
 40
0
 40
0
 40
1
 40
1
 40
1
 40
1
 10
72.095383
 20
263.444500
 30
0.0
 10
73.087423
 20
264.231046
 30
0.0
 10
74.136152
 20
264.964448
 30
0.0
 10
75.223853
 20
265.619903
 30
0.0
  0
SPLINE
  5
1bd
100
AcDbEntity
  8
Capa_1
 62
7
100
AcDbSpline
 70
8
 71
3
 72
8
 73
4
 74
0
 40
0
 40
0
 40
0
 40
0
 40
1
 40
1
 40
1
 40
1
 10
75.223853
 20
265.619903
 30
0.0
 10
75.372659
 20
265.712021
 30
0.0
 10
75.507293
 20
265.793510
 30
0.0
 10
75.638384
 20
265.871456
 30
0.0
  0
SPLINE
  5
1be
100
AcDbEntity
  8
Capa_1
 62
7
100
AcDbSpline
 70
8
 71
3
 72
8
 73
4
 74
0
 40
0
 40
0
 40
0
 40
0
 40
1
 40
1
 40
1
 40
1
 10
75.638384
 20
265.871456
 30
0.0
 10
75.269912
 20
266.711147
 30
0.0
 10
75.567524
 20
267.713817
 30
0.0
 10
76.375329
 20
268.195665
 30
0.0
  0
LWPOLYLINE
  5
1bf
100
AcDbEntity
  8
Capa_1
 62
7
100
AcDbPolyline
 90
3
 70
0
 10
70.975795
 20
265.318748
 30
0.0
 10
71.241520
 20
265.570301
 30
0.0
 10
71.493073
 20
265.304576
 30
0.0
  0
SPLINE
  5
1c0
100
AcDbEntity
  8
Capa_1
 62
7
100
AcDbSpline
 70
8
 71
3
 72
8
 73
4
 74
0
 40
0
 40
0
 40
0
 40
0
 40
1
 40
1
 40
1
 40
1
 10
76.782774
 20
268.096461
 30
0.0
 10
77.222106
 20
267.352430
 30
0.0
 10
77.080386
 20
266.431250
 30
0.0
 10
76.499334
 20
265.846655
 30
0.0
  0
SPLINE
  5
1c1
100
AcDbEntity
  8
Capa_1
 62
7
100
AcDbSpline
 70
8
 71
3
 72
8
 73
4
 74
0
 40
0
 40
0
 40
0
 40
0
 40
1
 40
1
 40
1
 40
1
 10
76.499334
 20
265.846655
 30
0.0
 10
77.282337
 20
266.069864
 30
0.0
 10
78.150372
 20
265.754537
 30
0.0
 10
78.586161
 20
265.021136
 30
0.0
  0
LWPOLYLINE
  5
1c2
100
AcDbEntity
  8
Capa_1
 62
7
100
AcDbPolyline
 90
3
 70
0
 10
76.375329
 20
268.195665
 30
0.0
 10
76.630425
 20
268.348014
 30
0.0
 10
76.782774
 20
268.096461
 30
0.0
  0
SPLINE
  5
1c3
100
AcDbEntity
  8
Capa_1
 62
7
100
AcDbSpline
 70
8
 71
3
 72
8
 73
4
 74
0
 40
0
 40
0
 40
0
 40
0
 40
1
 40
1
 40
1
 40
1
 10
78.483414
 20
264.617234
 30
0.0
 10
77.608293
 20
264.092869
 30
0.0
 10
76.474533
 20
264.379852
 30
0.0
 10
75.950168
 20
265.254974
 30
0.0
  0
SPLINE
  5
1c4
100
AcDbEntity
  8
Capa_1
 62
7
100
AcDbSpline
 70
8
 71
3
 72
8
 73
4
 74
0
 40
0
 40
0
 40
0
 40
0
 40
1
 40
1
 40
1
 40
1
 10
75.950168
 20
265.254974
 30
0.0
 10
75.833249
 20
265.187657
 30
0.0
 10
75.712787
 20
265.113254
 30
0.0
 10
75.581696
 20
265.031765
 30
0.0
  0
SPLINE
  5
1c5
100
AcDbEntity
  8
Capa_1
 62
7
100
AcDbSpline
 70
8
 71
3
 72
8
 73
4
 74
0
 40
0
 40
0
 40
0
 40
0
 40
1
 40
1
 40
1
 40
1
 10
75.581696
 20
265.031765
 30
0.0
 10
74.433764
 20
264.340879
 30
0.0
 10
73.331891
 20
263.568505
 30
0.0
 10
72.297334
 20
262.728814
 30
0.0
  0
SPLINE
  5
1c6
100
AcDbEntity
  8
Capa_1
 62
7
100
AcDbSpline
 70
8
 71
3
 72
8
 73
4
 74
0
 40
0
 40
0
 40
0
 40
0
 40
1
 40
1
 40
1
 40
1
 10
72.297334
 20
262.728814
 30
0.0
 10
73.066165
 20
262.913050
 30
0.0
 10
73.912943
 20
262.693384
 30
0.0
 10
74.493995
 20
262.073359
 30
0.0
  0
LWPOLYLINE
  5
1c7
100
AcDbEntity
  8
Capa_1
 62
7
100
AcDbPolyline
 90
3
 70
0
 10
78.586161
 20
265.021136
 30
0.0
 10
78.738510
 20
264.769583
 30
0.0
 10
78.483414
 20
264.617234
 30
0.0
  0
SPLINE
  5
1c8
100
AcDbEntity
  8
Capa_1
 62
7
100
AcDbSpline
 70
8
 71
3
 72
8
 73
4
 74
0
 40
0
 40
0
 40
0
 40
0
 40
1
 40
1
 40
1
 40
1
 10
74.479823
 20
261.556081
 30
0.0
 10
74.036948
 20
261.141549
 30
0.0
 10
73.473611
 20
260.936055
 30
0.0
 10
72.910273
 20
260.936055
 30
0.0
  0
SPLINE
  5
1c9
100
AcDbEntity
  8
Capa_1
 62
7
100
AcDbSpline
 70
8
 71
3
 72
8
 73
4
 74
0
 40
0
 40
0
 40
0
 40
0
 40
1
 40
1
 40
1
 40
1
 10
72.910273
 20
260.936055
 30
0.0
 10
72.300877
 20
260.936055
 30
0.0
 10
71.695024
 20
261.173436
 30
0.0
 10
71.245063
 20
261.651742
 30
0.0
  0
SPLINE
  5
1ca
100
AcDbEntity
  8
Capa_1
 62
7
100
AcDbSpline
 70
8
 71
3
 72
8
 73
4
 74
0
 40
0
 40
0
 40
0
 40
0
 40
1
 40
1
 40
1
 40
1
 10
71.245063
 20
261.651742
 30
0.0
 10
71.209633
 20
261.690715
 30
0.0
 10
71.184832
 20
261.733231
 30
0.0
 10
71.167117
 20
261.779290
 30
0.0
  0
LWPOLYLINE
  5
1cb
100
AcDbEntity
  8
Capa_1
 62
7
100
AcDbPolyline
 90
3
 70
0
 10
74.493995
 20
262.073359
 30
0.0
 10
74.745548
 20
261.807634
 30
0.0
 10
74.479823
 20
261.556081
 30
0.0
  0
SPLINE
  5
1cc
100
AcDbEntity
  8
Capa_1
 62
7
100
AcDbSpline
 70
8
 71
3
 72
8
 73
4
 74
0
 40
0
 40
0
 40
0
 40
0
 40
1
 40
1
 40
1
 40
1
 10
71.067913
 20
261.694258
 30
0.0
 10
69.966039
 20
260.705760
 30
0.0
 10
68.935026
 20
259.632231
 30
0.0
 10
67.996131
 20
258.502013
 30
0.0
  0
SPLINE
  5
1cd
100
AcDbEntity
  8
Capa_1
 62
7
100
AcDbSpline
 70
8
 71
3
 72
8
 73
4
 74
0
 40
0
 40
0
 40
0
 40
0
 40
1
 40
1
 40
1
 40
1
 10
67.996131
 20
258.502013
 30
0.0
 10
68.988171
 20
259.047636
 30
0.0
 10
70.245937
 20
259.012206
 30
0.0
 10
71.223805
 20
258.303605
 30
0.0
  0
LWPOLYLINE
  5
1ce
100
AcDbEntity
  8
Capa_1
 62
7
100
AcDbPolyline
 90
2
 70
0
 10
71.167117
 20
261.779290
 30
0.0
 10
71.067913
 20
261.694258
 30
0.0
  0
SPLINE
  5
1cf
100
AcDbEntity
  8
Capa_1
 62
7
100
AcDbSpline
 70
8
 71
3
 72
8
 73
4
 74
0
 40
0
 40
0
 40
0
 40
0
 40
1
 40
1
 40
1
 40
1
 10
71.330095
 20
257.630435
 30
0.0
 10
70.348684
 20
256.284095
 30
0.0
 10
68.463807
 20
255.986483
 30
0.0
 10
67.117466
 20
256.964351
 30
0.0
  0
SPLINE
  5
1d0
100
AcDbEntity
  8
Capa_1
 62
7
100
AcDbSpline
 70
8
 71
3
 72
8
 73
4
 74
0
 40
0
 40
0
 40
0
 40
0
 40
1
 40
1
 40
1
 40
1
 10
67.117466
 20
256.964351
 30
0.0
 10
67.039520
 20
257.024582
 30
0.0
 10
66.993461
 20
257.102528
 30
0.0
 10
66.961574
 20
257.187560
 30
0.0
  0
SPLINE
  5
1d1
100
AcDbEntity
  8
Capa_1
 62
7
100
AcDbSpline
 70
8
 71
3
 72
8
 73
4
 74
0
 40
0
 40
0
 40
0
 40
0
 40
1
 40
1
 40
1
 40
1
 10
66.961574
 20
257.187560
 30
0.0
 10
66.954488
 20
257.176931
 30
0.0
 10
66.950945
 20
257.173388
 30
0.0
 10
66.943859
 20
257.162759
 30
0.0
  0
SPLINE
  5
1d2
100
AcDbEntity
  8
Capa_1
 62
7
100
AcDbSpline
 70
8
 71
3
 72
8
 73
4
 74
0
 40
0
 40
0
 40
0
 40
0
 40
1
 40
1
 40
1
 40
1
 10
66.943859
 20
257.162759
 30
0.0
 10
66.146684
 20
256.092773
 30
0.0
 10
65.413283
 20
254.948383
 30
0.0
 10
64.761371
 20
253.761478
 30
0.0
  0
LWPOLYLINE
  5
1d3
100
AcDbEntity
  8
Capa_1
 62
7
100
AcDbPolyline
 90
3
 70
0
 10
71.223805
 20
258.303605
 30
0.0
 10
71.613535
 20
258.020165
 30
0.0
 10
71.330095
 20
257.630435
 30
0.0
  0
SPLINE
  5
1d4
100
AcDbEntity
  8
Capa_1
 62
7
100
AcDbSpline
 70
8
 71
3
 72
8
 73
4
 74
0
 40
0
 40
0
 40
0
 40
0
 40
1
 40
1
 40
1
 40
1
 10
64.718855
 20
253.679989
 30
0.0
 10
64.683425
 20
253.619758
 30
0.0
 10
64.655081
 20
253.555984
 30
0.0
 10
64.619651
 20
253.495753
 30
0.0
  0
SPLINE
  5
1d5
100
AcDbEntity
  8
Capa_1
 62
7
100
AcDbSpline
 70
8
 71
3
 72
8
 73
4
 74
0
 40
0
 40
0
 40
0
 40
0
 40
1
 40
1
 40
1
 40
1
 10
64.619651
 20
253.495753
 30
0.0
 10
65.551460
 20
254.338987
 30
0.0
 10
66.936773
 20
254.586997
 30
0.0
 10
68.144937
 20
254.009488
 30
0.0
  0
LWPOLYLINE
  5
1d6
100
AcDbEntity
  8
Capa_1
 62
7
100
AcDbPolyline
 90
2
 70
0
 10
64.761371
 20
253.761478
 30
0.0
 10
64.718855
 20
253.679989
 30
0.0
  0
SPLINE
  5
1d7
100
AcDbEntity
  8
Capa_1
 62
7
100
AcDbSpline
 70
8
 71
3
 72
8
 73
4
 74
0
 40
0
 40
0
 40
0
 40
0
 40
1
 40
1
 40
1
 40
1
 10
68.385861
 20
253.329232
 30
0.0
 10
67.624116
 20
251.731338
 30
0.0
 10
65.714438
 20
251.058168
 30
0.0
 10
64.120087
 20
251.816370
 30
0.0
  0
SPLINE
  5
1d8
100
AcDbEntity
  8
Capa_1
 62
7
100
AcDbSpline
 70
8
 71
3
 72
8
 73
4
 74
0
 40
0
 40
0
 40
0
 40
0
 40
1
 40
1
 40
1
 40
1
 10
64.120087
 20
251.816370
 30
0.0
 10
64.017340
 20
251.865972
 30
0.0
 10
63.935851
 20
251.947461
 30
0.0
 10
63.886249
 20
252.043122
 30
0.0
  0
SPLINE
  5
1d9
100
AcDbEntity
  8
Capa_1
 62
7
100
AcDbSpline
 70
8
 71
3
 72
8
 73
4
 74
0
 40
0
 40
0
 40
0
 40
0
 40
1
 40
1
 40
1
 40
1
 10
63.886249
 20
252.043122
 30
0.0
 10
63.882706
 20
252.032493
 30
0.0
 10
63.875620
 20
252.021864
 30
0.0
 10
63.872077
 20
252.011235
 30
0.0
  0
SPLINE
  5
1da
100
AcDbEntity
  8
Capa_1
 62
7
100
AcDbSpline
 70
8
 71
3
 72
8
 73
4
 74
0
 40
0
 40
0
 40
0
 40
0
 40
1
 40
1
 40
1
 40
1
 10
63.872077
 20
252.011235
 30
0.0
 10
63.287482
 20
250.767642
 30
0.0
 10
62.787919
 20
249.474446
 30
0.0
 10
62.384017
 20
248.159993
 30
0.0
  0
SPLINE
  5
1db
100
AcDbEntity
  8
Capa_1
 62
7
100
AcDbSpline
 70
8
 71
3
 72
8
 73
4
 74
0
 40
0
 40
0
 40
0
 40
0
 40
1
 40
1
 40
1
 40
1
 10
62.384017
 20
248.159993
 30
0.0
 10
63.223708
 20
249.081173
 30
0.0
 10
64.548791
 20
249.495704
 30
0.0
 10
65.820728
 20
249.109517
 30
0.0
  0
LWPOLYLINE
  5
1dc
100
AcDbEntity
  8
Capa_1
 62
7
100
AcDbPolyline
 90
3
 70
0
 10
68.144937
 20
254.009488
 30
0.0
 10
68.605527
 20
253.789822
 30
0.0
 10
68.385861
 20
253.329232
 30
0.0
  0
SPLINE
  5
1dd
100
AcDbEntity
  8
Capa_1
 62
7
100
AcDbSpline
 70
8
 71
3
 72
8
 73
4
 74
0
 40
0
 40
0
 40
0
 40
0
 40
1
 40
1
 40
1
 40
1
 10
66.175028
 20
248.443433
 30
0.0
 10
65.739239
 20
247.001432
 30
0.0
 10
64.414157
 20
246.073165
 30
0.0
 10
62.982784
 20
246.073165
 30
0.0
  0
SPLINE
  5
1de
100
AcDbEntity
  8
Capa_1
 62
7
100
AcDbSpline
 70
8
 71
3
 72
8
 73
4
 74
0
 40
0
 40
0
 40
0
 40
0
 40
1
 40
1
 40
1
 40
1
 10
62.982784
 20
246.073165
 30
0.0
 10
62.660371
 20
246.073165
 30
0.0
 10
62.334415
 20
246.119224
 30
0.0
 10
62.012002
 20
246.218428
 30
0.0
  0
SPLINE
  5
1df
100
AcDbEntity
  8
Capa_1
 62
7
100
AcDbSpline
 70
8
 71
3
 72
8
 73
4
 74
0
 40
0
 40
0
 40
0
 40
0
 40
1
 40
1
 40
1
 40
1
 10
62.012002
 20
246.218428
 30
0.0
 10
61.962400
 20
246.232600
 30
0.0
 10
61.916341
 20
246.257401
 30
0.0
 10
61.873825
 20
246.285745
 30
0.0
  0
SPLINE
  5
1e0
100
AcDbEntity
  8
Capa_1
 62
7
100
AcDbSpline
 70
8
 71
3
 72
8
 73
4
 74
0
 40
0
 40
0
 40
0
 40
0
 40
1
 40
1
 40
1
 40
1
 10
61.873825
 20
246.285745
 30
0.0
 10
61.569127
 20
245.013808
 30
0.0
 10
61.342374
 20
243.713526
 30
0.0
 10
61.204197
 20
242.402616
 30
0.0
  0
SPLINE
  5
1e1
100
AcDbEntity
  8
Capa_1
 62
7
100
AcDbSpline
 70
8
 71
3
 72
8
 73
4
 74
0
 40
0
 40
0
 40
0
 40
0
 40
1
 40
1
 40
1
 40
1
 10
61.204197
 20
242.402616
 30
0.0
 10
61.190025
 20
242.239638
 30
0.0
 10
61.179396
 20
242.076660
 30
0.0
 10
61.165224
 20
241.917225
 30
0.0
  0
SPLINE
  5
1e2
100
AcDbEntity
  8
Capa_1
 62
7
100
AcDbSpline
 70
8
 71
3
 72
8
 73
4
 74
0
 40
0
 40
0
 40
0
 40
0
 40
1
 40
1
 40
1
 40
1
 10
61.165224
 20
241.917225
 30
0.0
 10
61.810051
 20
243.327339
 30
0.0
 10
63.291025
 20
244.248520
 30
0.0
 10
64.924349
 20
244.103257
 30
0.0
  0
LWPOLYLINE
  5
1e3
100
AcDbEntity
  8
Capa_1
 62
7
100
AcDbPolyline
 90
3
 70
0
 10
65.820728
 20
249.109517
 30
0.0
 10
66.330920
 20
248.953625
 30
0.0
 10
66.175028
 20
248.443433
 30
0.0
  0
SPLINE
  5
1e4
100
AcDbEntity
  8
Capa_1
 62
7
100
AcDbSpline
 70
8
 71
3
 72
8
 73
4
 74
0
 40
0
 40
0
 40
0
 40
0
 40
1
 40
1
 40
1
 40
1
 10
65.469971
 20
243.447801
 30
0.0
 10
65.282192
 20
241.378689
 30
0.0
 10
63.454003
 20
239.851655
 30
0.0
 10
61.384890
 20
240.039434
 30
0.0
  0
SPLINE
  5
1e5
100
AcDbEntity
  8
Capa_1
 62
7
100
AcDbSpline
 70
8
 71
3
 72
8
 73
4
 74
0
 40
0
 40
0
 40
0
 40
0
 40
1
 40
1
 40
1
 40
1
 10
61.384890
 20
240.039434
 30
0.0
 10
61.260885
 20
240.050063
 30
0.0
 10
61.151052
 20
240.096122
 30
0.0
 10
61.062477
 20
240.166982
 30
0.0
  0
SPLINE
  5
1e6
100
AcDbEntity
  8
Capa_1
 62
7
100
AcDbSpline
 70
8
 71
3
 72
8
 73
4
 74
0
 40
0
 40
0
 40
0
 40
0
 40
1
 40
1
 40
1
 40
1
 10
61.062477
 20
240.166982
 30
0.0
 10
61.048305
 20
239.862284
 30
0.0
 10
61.044762
 20
239.561129
 30
0.0
 10
61.044762
 20
239.259974
 30
0.0
  0
SPLINE
  5
1e7
100
AcDbEntity
  8
Capa_1
 62
7
100
AcDbSpline
 70
8
 71
3
 72
8
 73
4
 74
0
 40
0
 40
0
 40
0
 40
0
 40
1
 40
1
 40
1
 40
1
 10
61.044762
 20
239.259974
 30
0.0
 10
61.044762
 20
238.062440
 30
0.0
 10
61.115622
 20
236.868448
 30
0.0
 10
61.253799
 20
235.713430
 30
0.0
  0
LWPOLYLINE
  5
1e8
100
AcDbEntity
  8
Capa_1
 62
7
100
AcDbPolyline
 90
3
 70
0
 10
64.924349
 20
244.103257
 30
0.0
 10
65.523116
 20
244.046569
 30
0.0
 10
65.469971
 20
243.447801
 30
0.0
  0
SPLINE
  5
1e9
100
AcDbEntity
  8
Capa_1
 62
7
100
AcDbSpline
 70
8
 71
3
 72
8
 73
4
 74
0
 40
0
 40
0
 40
0
 40
0
 40
1
 40
1
 40
1
 40
1
 10
61.257342
 20
235.688629
 30
0.0
 10
61.275057
 20
235.543366
 30
0.0
 10
61.296315
 20
235.398103
 30
0.0
 10
61.317573
 20
235.252840
 30
0.0
  0
SPLINE
  5
1ea
100
AcDbEntity
  8
Capa_1
 62
7
100
AcDbSpline
 70
8
 71
3
 72
8
 73
4
 74
0
 40
0
 40
0
 40
0
 40
0
 40
1
 40
1
 40
1
 40
1
 10
61.317573
 20
235.252840
 30
0.0
 10
61.632901
 20
236.875534
 30
0.0
 10
62.940268
 20
238.200617
 30
0.0
 10
64.669253
 20
238.452170
 30
0.0
  0
LWPOLYLINE
  5
1eb
100
AcDbEntity
  8
Capa_1
 62
7
100
AcDbPolyline
 90
2
 70
0
 10
61.253799
 20
235.713430
 30
0.0
 10
61.257342
 20
235.688629
 30
0.0
  0
SPLINE
  5
1ec
100
AcDbEntity
  8
Capa_1
 62
7
100
AcDbSpline
 70
8
 71
3
 72
8
 73
4
 74
0
 40
0
 40
0
 40
0
 40
0
 40
1
 40
1
 40
1
 40
1
 10
65.395568
 20
237.910091
 30
0.0
 10
65.423912
 20
237.711682
 30
0.0
 10
65.438084
 20
237.516817
 30
0.0
 10
65.438084
 20
237.321952
 30
0.0
  0
SPLINE
  5
1ed
100
AcDbEntity
  8
Capa_1
 62
7
100
AcDbSpline
 70
8
 71
3
 72
8
 73
4
 74
0
 40
0
 40
0
 40
0
 40
0
 40
1
 40
1
 40
1
 40
1
 10
65.438084
 20
237.321952
 30
0.0
 10
65.438084
 20
235.366216
 30
0.0
 10
64.003168
 20
233.654946
 30
0.0
 10
62.008459
 20
233.360877
 30
0.0
  0
SPLINE
  5
1ee
100
AcDbEntity
  8
Capa_1
 62
7
100
AcDbSpline
 70
8
 71
3
 72
8
 73
4
 74
0
 40
0
 40
0
 40
0
 40
0
 40
1
 40
1
 40
1
 40
1
 10
62.008459
 20
233.360877
 30
0.0
 10
61.976572
 20
233.357334
 30
0.0
 10
61.948228
 20
233.353791
 30
0.0
 10
61.919884
 20
233.353791
 30
0.0
  0
SPLINE
  5
1ef
100
AcDbEntity
  8
Capa_1
 62
7
100
AcDbSpline
 70
8
 71
3
 72
8
 73
4
 74
0
 40
0
 40
0
 40
0
 40
0
 40
1
 40
1
 40
1
 40
1
 10
61.919884
 20
233.353791
 30
0.0
 10
61.806508
 20
233.353791
 30
0.0
 10
61.700218
 20
233.385678
 30
0.0
 10
61.608100
 20
233.435280
 30
0.0
  0
SPLINE
  5
1f0
100
AcDbEntity
  8
Capa_1
 62
7
100
AcDbSpline
 70
8
 71
3
 72
8
 73
4
 74
0
 40
0
 40
0
 40
0
 40
0
 40
1
 40
1
 40
1
 40
1
 10
61.608100
 20
233.435280
 30
0.0
 10
61.895083
 20
231.968477
 30
0.0
 10
62.298985
 20
230.505218
 30
0.0
 10
62.805634
 20
229.088018
 30
0.0
  0
SPLINE
  5
1f1
100
AcDbEntity
  8
Capa_1
 62
7
100
AcDbSpline
 70
8
 71
3
 72
8
 73
4
 74
0
 40
0
 40
0
 40
0
 40
0
 40
1
 40
1
 40
1
 40
1
 10
62.805634
 20
229.088018
 30
0.0
 10
62.816263
 20
229.056131
 30
0.0
 10
62.830435
 20
229.027786
 30
0.0
 10
62.841064
 20
228.999442
 30
0.0
  0
SPLINE
  5
1f2
100
AcDbEntity
  8
Capa_1
 62
7
100
AcDbSpline
 70
8
 71
3
 72
8
 73
4
 74
0
 40
0
 40
0
 40
0
 40
0
 40
1
 40
1
 40
1
 40
1
 10
62.841064
 20
228.999442
 30
0.0
 10
62.933182
 20
230.636309
 30
0.0
 10
63.988996
 20
232.134999
 30
0.0
 10
65.636492
 20
232.708965
 30
0.0
  0
LWPOLYLINE
  5
1f3
100
AcDbEntity
  8
Capa_1
 62
7
100
AcDbPolyline
 90
3
 70
0
 10
64.669253
 20
238.452170
 30
0.0
 10
65.303450
 20
238.544288
 30
0.0
 10
65.395568
 20
237.910091
 30
0.0
  0
SPLINE
  5
1f4
100
AcDbEntity
  8
Capa_1
 62
7
100
AcDbSpline
 70
8
 71
3
 72
8
 73
4
 74
0
 40
0
 40
0
 40
0
 40
0
 40
1
 40
1
 40
1
 40
1
 10
66.486812
 20
232.297977
 30
0.0
 10
67.245014
 20
230.119031
 30
0.0
 10
66.093539
 20
227.738134
 30
0.0
 10
63.914593
 20
226.979932
 30
0.0
  0
SPLINE
  5
1f5
100
AcDbEntity
  8
Capa_1
 62
7
100
AcDbSpline
 70
8
 71
3
 72
8
 73
4
 74
0
 40
0
 40
0
 40
0
 40
0
 40
1
 40
1
 40
1
 40
1
 10
63.914593
 20
226.979932
 30
0.0
 10
63.833104
 20
226.951588
 30
0.0
 10
63.751615
 20
226.940959
 30
0.0
 10
63.670126
 20
226.944502
 30
0.0
  0
SPLINE
  5
1f6
100
AcDbEntity
  8
Capa_1
 62
7
100
AcDbSpline
 70
8
 71
3
 72
8
 73
4
 74
0
 40
0
 40
0
 40
0
 40
0
 40
1
 40
1
 40
1
 40
1
 10
63.670126
 20
226.944502
 30
0.0
 10
64.222834
 20
225.715080
 30
0.0
 10
64.857032
 20
224.521089
 30
0.0
 10
65.555003
 20
223.401501
 30
0.0
  0
SPLINE
  5
1f7
100
AcDbEntity
  8
Capa_1
 62
7
100
AcDbSpline
 70
8
 71
3
 72
8
 73
4
 74
0
 40
0
 40
0
 40
0
 40
0
 40
1
 40
1
 40
1
 40
1
 10
65.555003
 20
223.401501
 30
0.0
 10
65.618777
 20
223.302297
 30
0.0
 10
65.686094
 20
223.199550
 30
0.0
 10
65.749868
 20
223.100345
 30
0.0
  0
SPLINE
  5
1f8
100
AcDbEntity
  8
Capa_1
 62
7
100
AcDbSpline
 70
8
 71
3
 72
8
 73
4
 74
0
 40
0
 40
0
 40
0
 40
0
 40
1
 40
1
 40
1
 40
1
 10
65.749868
 20
223.100345
 30
0.0
 10
65.349509
 20
224.825787
 30
0.0
 10
66.036851
 20
226.696492
 30
0.0
 10
67.606401
 20
227.716876
 30
0.0
  0
LWPOLYLINE
  5
1f9
100
AcDbEntity
  8
Capa_1
 62
7
100
AcDbPolyline
 90
3
 70
0
 10
65.636492
 20
232.708965
 30
0.0
 10
66.267146
 20
232.928631
 30
0.0
 10
66.486812
 20
232.297977
 30
0.0
  0
SPLINE
  5
1fa
100
AcDbEntity
  8
Capa_1
 62
7
100
AcDbSpline
 70
8
 71
3
 72
8
 73
4
 74
0
 40
0
 40
0
 40
0
 40
0
 40
1
 40
1
 40
1
 40
1
 10
68.570097
 20
227.514925
 30
0.0
 10
69.873921
 20
225.506043
 30
0.0
 10
69.307041
 20
222.816905
 30
0.0
 10
67.298160
 20
221.509538
 30
0.0
  0
SPLINE
  5
1fb
100
AcDbEntity
  8
Capa_1
 62
7
100
AcDbSpline
 70
8
 71
3
 72
8
 73
4
 74
0
 40
0
 40
0
 40
0
 40
0
 40
1
 40
1
 40
1
 40
1
 10
67.298160
 20
221.509538
 30
0.0
 10
67.177697
 20
221.431592
 30
0.0
 10
67.043063
 20
221.396162
 30
0.0
 10
66.911972
 20
221.399705
 30
0.0
  0
SPLINE
  5
1fc
100
AcDbEntity
  8
Capa_1
 62
7
100
AcDbSpline
 70
8
 71
3
 72
8
 73
4
 74
0
 40
0
 40
0
 40
0
 40
0
 40
1
 40
1
 40
1
 40
1
 10
66.911972
 20
221.399705
 30
0.0
 10
67.794180
 20
220.205714
 30
0.0
 10
68.764962
 20
219.075496
 30
0.0
 10
69.795975
 20
218.037397
 30
0.0
  0
SPLINE
  5
1fd
100
AcDbEntity
  8
Capa_1
 62
7
100
AcDbSpline
 70
8
 71
3
 72
8
 73
4
 74
0
 40
0
 40
0
 40
0
 40
0
 40
1
 40
1
 40
1
 40
1
 10
69.795975
 20
218.037397
 30
0.0
 10
69.154692
 20
219.656548
 30
0.0
 10
69.487734
 20
221.573312
 30
0.0
 10
70.802188
 20
222.880679
 30
0.0
  0
LWPOLYLINE
  5
1fe
100
AcDbEntity
  8
Capa_1
 62
7
100
AcDbPolyline
 90
3
 70
0
 10
67.606401
 20
227.716876
 30
0.0
 10
68.190996
 20
228.095977
 30
0.0
 10
68.570097
 20
227.514925
 30
0.0
  0
SPLINE
  5
1ff
100
AcDbEntity
  8
Capa_1
 62
7
100
AcDbSpline
 70
8
 71
3
 72
8
 73
4
 74
0
 40
0
 40
0
 40
0
 40
0
 40
1
 40
1
 40
1
 40
1
 10
71.815486
 20
222.880679
 30
0.0
 10
73.565729
 20
221.123351
 30
0.0
 10
73.558643
 20
218.281864
 30
0.0
 10
71.801314
 20
216.531621
 30
0.0
  0
SPLINE
  5
200
100
AcDbEntity
  8
Capa_1
 62
7
100
AcDbSpline
 70
8
 71
3
 72
8
 73
4
 74
0
 40
0
 40
0
 40
0
 40
0
 40
1
 40
1
 40
1
 40
1
 10
71.801314
 20
216.531621
 30
0.0
 10
71.737540
 20
216.464304
 30
0.0
 10
71.663137
 20
216.418245
 30
0.0
 10
71.581648
 20
216.382815
 30
0.0
  0
SPLINE
  5
201
100
AcDbEntity
  8
Capa_1
 62
7
100
AcDbSpline
 70
8
 71
3
 72
8
 73
4
 74
0
 40
0
 40
0
 40
0
 40
0
 40
1
 40
1
 40
1
 40
1
 10
71.581648
 20
216.382815
 30
0.0
 10
72.733123
 20
215.394318
 30
0.0
 10
73.959002
 20
214.494396
 30
0.0
 10
75.241568
 20
213.697220
 30
0.0
  0
SPLINE
  5
202
100
AcDbEntity
  8
Capa_1
 62
7
100
AcDbSpline
 70
8
 71
3
 72
8
 73
4
 74
0
 40
0
 40
0
 40
0
 40
0
 40
1
 40
1
 40
1
 40
1
 10
75.241568
 20
213.697220
 30
0.0
 10
74.277872
 20
215.164023
 30
0.0
 10
74.189297
 20
217.116216
 30
0.0
 10
75.184880
 20
218.696395
 30
0.0
  0
LWPOLYLINE
  5
203
100
AcDbEntity
  8
Capa_1
 62
7
100
AcDbPolyline
 90
3
 70
0
 10
70.802188
 20
222.880679
 30
0.0
 10
71.308837
 20
223.387329
 30
0.0
 10
71.815486
 20
222.880679
 30
0.0
  0
SPLINE
  5
204
100
AcDbEntity
  8
Capa_1
 62
7
100
AcDbSpline
 70
8
 71
3
 72
8
 73
4
 74
0
 40
0
 40
0
 40
0
 40
0
 40
1
 40
1
 40
1
 40
1
 10
76.205265
 20
218.930233
 30
0.0
 10
78.362952
 20
217.569721
 30
0.0
 10
79.007778
 20
214.721148
 30
0.0
 10
77.650809
 20
212.563460
 30
0.0
  0
SPLINE
  5
205
100
AcDbEntity
  8
Capa_1
 62
7
100
AcDbSpline
 70
8
 71
3
 72
8
 73
4
 74
0
 40
0
 40
0
 40
0
 40
0
 40
1
 40
1
 40
1
 40
1
 10
77.650809
 20
212.563460
 30
0.0
 10
77.615379
 20
212.506772
 30
0.0
 10
77.569320
 20
212.457170
 30
0.0
 10
77.519718
 20
212.411111
 30
0.0
  0
SPLINE
  5
206
100
AcDbEntity
  8
Capa_1
 62
7
100
AcDbSpline
 70
8
 71
3
 72
8
 73
4
 74
0
 40
0
 40
0
 40
0
 40
0
 40
1
 40
1
 40
1
 40
1
 10
77.519718
 20
212.411111
 30
0.0
 10
78.869601
 20
211.723769
 30
0.0
 10
80.283259
 20
211.132087
 30
0.0
 10
81.735889
 20
210.653782
 30
0.0
  0
SPLINE
  5
207
100
AcDbEntity
  8
Capa_1
 62
7
100
AcDbSpline
 70
8
 71
3
 72
8
 73
4
 74
0
 40
0
 40
0
 40
0
 40
0
 40
1
 40
1
 40
1
 40
1
 10
81.735889
 20
210.653782
 30
0.0
 10
81.448906
 20
210.876991
 30
0.0
 10
81.186724
 20
211.125001
 30
0.0
 10
80.956429
 20
211.401356
 30
0.0
  0
SPLINE
  5
208
100
AcDbEntity
  8
Capa_1
 62
7
100
AcDbSpline
 70
8
 71
3
 72
8
 73
4
 74
0
 40
0
 40
0
 40
0
 40
0
 40
1
 40
1
 40
1
 40
1
 10
80.956429
 20
211.401356
 30
0.0
 10
80.761564
 20
211.631651
 30
0.0
 10
80.587957
 20
211.883204
 30
0.0
 10
80.435608
 20
212.145386
 30
0.0
  0
SPLINE
  5
209
100
AcDbEntity
  8
Capa_1
 62
7
100
AcDbSpline
 70
8
 71
3
 72
8
 73
4
 74
0
 40
0
 40
0
 40
0
 40
0
 40
1
 40
1
 40
1
 40
1
 10
80.435608
 20
212.145386
 30
0.0
 10
80.520640
 20
212.117042
 30
0.0
 10
80.612758
 20
212.102870
 30
0.0
 10
80.708419
 20
212.102870
 30
0.0
  0
LWPOLYLINE
  5
20a
100
AcDbEntity
  8
Capa_1
 62
7
100
AcDbPolyline
 90
3
 70
0
 10
75.184880
 20
218.696395
 30
0.0
 10
75.578153
 20
219.323506
 30
0.0
 10
76.205265
 20
218.930233
 30
0.0
  0
SPLINE
  5
20b
100
AcDbEntity
  8
Capa_1
 62
7
100
AcDbSpline
 70
8
 71
3
 72
8
 73
4
 74
0
 40
0
 40
0
 40
0
 40
0
 40
1
 40
1
 40
1
 40
1
 10
83.252294
 20
212.102870
 30
0.0
 10
83.284181
 20
211.780457
 30
0.0
 10
83.556992
 20
211.532447
 30
0.0
 10
83.886491
 20
211.532447
 30
0.0
  0
LWPOLYLINE
  5
20c
100
AcDbEntity
  8
Capa_1
 62
7
100
AcDbPolyline
 90
2
 70
0
 10
80.708419
 20
212.102870
 30
0.0
 10
83.252294
 20
212.102870
 30
0.0
  0
LWPOLYLINE
  5
20d
100
AcDbEntity
  8
Capa_1
 62
7
100
AcDbPolyline
 90
2
 70
0
 10
83.886491
 20
211.532447
 30
0.0
 10
84.729725
 20
211.532447
 30
0.0
  0
LWPOLYLINE
  5
20e
100
AcDbEntity
  8
Capa_1
 62
7
100
AcDbPolyline
 90
9
 70
1
 10
84.728663
 20
263.647514
 30
0.0
 10
83.892514
 20
263.647514
 30
0.0
 10
83.719616
 20
263.254241
 30
0.0
 10
83.488258
 20
263.254241
 30
0.0
 10
84.200755
 20
264.827334
 30
0.0
 10
84.423256
 20
264.827334
 30
0.0
 10
85.137879
 20
263.254241
 30
0.0
 10
84.901915
 20
263.254241
 30
0.0
 10
84.729017
 20
263.647514
 30
0.0
  0
SPLINE
  5
20f
100
AcDbEntity
  8
Capa_1
 62
7
100
AcDbSpline
 70
8
 71
3
 72
8
 73
4
 74
0
 40
0
 40
0
 40
0
 40
0
 40
1
 40
1
 40
1
 40
1
 10
86.102993
 20
263.340690
 30
0.0
 10
85.976508
 20
263.410487
 30
0.0
 10
85.877303
 20
263.506148
 30
0.0
 10
85.805381
 20
263.628382
 30
0.0
  0
SPLINE
  5
210
100
AcDbEntity
  8
Capa_1
 62
7
100
AcDbSpline
 70
8
 71
3
 72
8
 73
4
 74
0
 40
0
 40
0
 40
0
 40
0
 40
1
 40
1
 40
1
 40
1
 10
85.805381
 20
263.628382
 30
0.0
 10
85.733458
 20
263.750615
 30
0.0
 10
85.697673
 20
263.888084
 30
0.0
 10
85.697673
 20
264.040787
 30
0.0
  0
SPLINE
  5
211
100
AcDbEntity
  8
Capa_1
 62
7
100
AcDbSpline
 70
8
 71
3
 72
8
 73
4
 74
0
 40
0
 40
0
 40
0
 40
0
 40
1
 40
1
 40
1
 40
1
 10
85.697673
 20
264.040787
 30
0.0
 10
85.697673
 20
264.193491
 30
0.0
 10
85.733458
 20
264.330959
 30
0.0
 10
85.805381
 20
264.453193
 30
0.0
  0
SPLINE
  5
212
100
AcDbEntity
  8
Capa_1
 62
7
100
AcDbSpline
 70
8
 71
3
 72
8
 73
4
 74
0
 40
0
 40
0
 40
0
 40
0
 40
1
 40
1
 40
1
 40
1
 10
85.805381
 20
264.453193
 30
0.0
 10
85.877303
 20
264.575426
 30
0.0
 10
85.976862
 20
264.671087
 30
0.0
 10
86.104410
 20
264.740884
 30
0.0
  0
SPLINE
  5
213
100
AcDbEntity
  8
Capa_1
 62
7
100
AcDbSpline
 70
8
 71
3
 72
8
 73
4
 74
0
 40
0
 40
0
 40
0
 40
0
 40
1
 40
1
 40
1
 40
1
 10
86.104410
 20
264.740884
 30
0.0
 10
86.231604
 20
264.810681
 30
0.0
 10
86.374032
 20
264.845403
 30
0.0
 10
86.531342
 20
264.845403
 30
0.0
  0
SPLINE
  5
214
100
AcDbEntity
  8
Capa_1
 62
7
100
AcDbSpline
 70
8
 71
3
 72
8
 73
4
 74
0
 40
0
 40
0
 40
0
 40
0
 40
1
 40
1
 40
1
 40
1
 10
86.531342
 20
264.845403
 30
0.0
 10
86.654284
 20
264.845403
 30
0.0
 10
86.766597
 20
264.824853
 30
0.0
 10
86.868281
 20
264.783755
 30
0.0
  0
SPLINE
  5
215
100
AcDbEntity
  8
Capa_1
 62
7
100
AcDbSpline
 70
8
 71
3
 72
8
 73
4
 74
0
 40
0
 40
0
 40
0
 40
0
 40
1
 40
1
 40
1
 40
1
 10
86.868281
 20
264.783755
 30
0.0
 10
86.970319
 20
264.742656
 30
0.0
 10
87.057123
 20
264.681362
 30
0.0
 10
87.129046
 20
264.600581
 30
0.0
  0
LWPOLYLINE
  5
216
100
AcDbEntity
  8
Capa_1
 62
7
100
AcDbPolyline
 90
3
 70
1
 10
84.650008
 20
263.827144
 30
0.0
 10
84.310588
 20
264.598101
 30
0.0
 10
83.971169
 20
263.827144
 30
0.0
  0
SPLINE
  5
217
100
AcDbEntity
  8
Capa_1
 62
7
100
AcDbSpline
 70
8
 71
3
 72
8
 73
4
 74
0
 40
0
 40
0
 40
0
 40
0
 40
1
 40
1
 40
1
 40
1
 10
86.983074
 20
264.458861
 30
0.0
 10
86.864738
 20
264.583221
 30
0.0
 10
86.716995
 20
264.645223
 30
0.0
 10
86.540553
 20
264.645223
 30
0.0
  0
SPLINE
  5
218
100
AcDbEntity
  8
Capa_1
 62
7
100
AcDbSpline
 70
8
 71
3
 72
8
 73
4
 74
0
 40
0
 40
0
 40
0
 40
0
 40
1
 40
1
 40
1
 40
1
 10
86.540553
 20
264.645223
 30
0.0
 10
86.423634
 20
264.645223
 30
0.0
 10
86.318053
 20
264.619005
 30
0.0
 10
86.223809
 20
264.566569
 30
0.0
  0
SPLINE
  5
219
100
AcDbEntity
  8
Capa_1
 62
7
100
AcDbSpline
 70
8
 71
3
 72
8
 73
4
 74
0
 40
0
 40
0
 40
0
 40
0
 40
1
 40
1
 40
1
 40
1
 10
86.223809
 20
264.566569
 30
0.0
 10
86.129565
 20
264.514132
 30
0.0
 10
86.055516
 20
264.441855
 30
0.0
 10
86.002371
 20
264.349737
 30
0.0
  0
SPLINE
  5
21a
100
AcDbEntity
  8
Capa_1
 62
7
100
AcDbSpline
 70
8
 71
3
 72
8
 73
4
 74
0
 40
0
 40
0
 40
0
 40
0
 40
1
 40
1
 40
1
 40
1
 10
86.002371
 20
264.349737
 30
0.0
 10
85.949226
 20
264.257619
 30
0.0
 10
85.922654
 20
264.154518
 30
0.0
 10
85.922654
 20
264.040787
 30
0.0
  0
SPLINE
  5
21b
100
AcDbEntity
  8
Capa_1
 62
7
100
AcDbSpline
 70
8
 71
3
 72
8
 73
4
 74
0
 40
0
 40
0
 40
0
 40
0
 40
1
 40
1
 40
1
 40
1
 10
85.922654
 20
264.040787
 30
0.0
 10
85.922654
 20
263.927057
 30
0.0
 10
85.949226
 20
263.823956
 30
0.0
 10
86.002371
 20
263.731838
 30
0.0
  0
SPLINE
  5
21c
100
AcDbEntity
  8
Capa_1
 62
7
100
AcDbSpline
 70
8
 71
3
 72
8
 73
4
 74
0
 40
0
 40
0
 40
0
 40
0
 40
1
 40
1
 40
1
 40
1
 10
86.002371
 20
263.731838
 30
0.0
 10
86.055516
 20
263.639720
 30
0.0
 10
86.129211
 20
263.567442
 30
0.0
 10
86.223809
 20
263.515006
 30
0.0
  0
SPLINE
  5
21d
100
AcDbEntity
  8
Capa_1
 62
7
100
AcDbSpline
 70
8
 71
3
 72
8
 73
4
 74
0
 40
0
 40
0
 40
0
 40
0
 40
1
 40
1
 40
1
 40
1
 10
86.223809
 20
263.515006
 30
0.0
 10
86.318053
 20
263.462569
 30
0.0
 10
86.423634
 20
263.436351
 30
0.0
 10
86.540553
 20
263.436351
 30
0.0
  0
SPLINE
  5
21e
100
AcDbEntity
  8
Capa_1
 62
7
100
AcDbSpline
 70
8
 71
3
 72
8
 73
4
 74
0
 40
0
 40
0
 40
0
 40
0
 40
1
 40
1
 40
1
 40
1
 10
86.540553
 20
263.436351
 30
0.0
 10
86.715932
 20
263.436351
 30
0.0
 10
86.863321
 20
263.499417
 30
0.0
 10
86.983074
 20
263.625193
 30
0.0
  0
LWPOLYLINE
  5
21f
100
AcDbEntity
  8
Capa_1
 62
7
100
AcDbPolyline
 90
2
 70
0
 10
87.129046
 20
264.600581
 30
0.0
 10
86.983074
 20
264.458861
 30
0.0
  0
SPLINE
  5
220
100
AcDbEntity
  8
Capa_1
 62
7
100
AcDbSpline
 70
8
 71
3
 72
8
 73
4
 74
0
 40
0
 40
0
 40
0
 40
0
 40
1
 40
1
 40
1
 40
1
 10
87.129046
 20
263.483473
 30
0.0
 10
87.057123
 20
263.402693
 30
0.0
 10
86.969965
 20
263.341045
 30
0.0
 10
86.867218
 20
263.299237
 30
0.0
  0
SPLINE
  5
221
100
AcDbEntity
  8
Capa_1
 62
7
100
AcDbSpline
 70
8
 71
3
 72
8
 73
4
 74
0
 40
0
 40
0
 40
0
 40
0
 40
1
 40
1
 40
1
 40
1
 10
86.867218
 20
263.299237
 30
0.0
 10
86.764471
 20
263.257430
 30
0.0
 10
86.651804
 20
263.236172
 30
0.0
 10
86.528861
 20
263.236172
 30
0.0
  0
SPLINE
  5
222
100
AcDbEntity
  8
Capa_1
 62
7
100
AcDbSpline
 70
8
 71
3
 72
8
 73
4
 74
0
 40
0
 40
0
 40
0
 40
0
 40
1
 40
1
 40
1
 40
1
 10
86.528861
 20
263.236172
 30
0.0
 10
86.371552
 20
263.236172
 30
0.0
 10
86.229478
 20
263.270893
 30
0.0
 10
86.102993
 20
263.340690
 30
0.0
  0
LWPOLYLINE
  5
223
100
AcDbEntity
  8
Capa_1
 62
7
100
AcDbPolyline
 90
2
 70
0
 10
86.983074
 20
263.625193
 30
0.0
 10
87.129046
 20
263.483473
 30
0.0
  0
LWPOLYLINE
  5
224
100
AcDbEntity
  8
Capa_1
 62
7
100
AcDbPolyline
 90
1
 70
1
 10
86.102993
 20
263.340690
 30
0.0
  0
LWPOLYLINE
  5
225
100
AcDbEntity
  8
Capa_1
 62
7
100
AcDbPolyline
 90
9
 70
1
 10
88.890626
 20
263.647514
 30
0.0
 10
88.054478
 20
263.647514
 30
0.0
 10
87.881579
 20
263.254241
 30
0.0
 10
87.650221
 20
263.254241
 30
0.0
 10
88.362719
 20
264.827334
 30
0.0
 10
88.585219
 20
264.827334
 30
0.0
 10
89.299843
 20
263.254241
 30
0.0
 10
89.063879
 20
263.254241
 30
0.0
 10
88.890980
 20
263.647514
 30
0.0
  0
LWPOLYLINE
  5
226
100
AcDbEntity
  8
Capa_1
 62
7
100
AcDbPolyline
 90
3
 70
1
 10
88.811971
 20
263.827144
 30
0.0
 10
88.472552
 20
264.598101
 30
0.0
 10
88.133132
 20
263.827144
 30
0.0
  0
SPLINE
  5
227
100
AcDbEntity
  8
Capa_1
 62
7
100
AcDbSpline
 70
8
 71
3
 72
8
 73
4
 74
0
 40
0
 40
0
 40
0
 40
0
 40
1
 40
1
 40
1
 40
1
 10
90.672756
 20
264.827334
 30
0.0
 10
90.838922
 20
264.827334
 30
0.0
 10
90.986666
 20
264.794384
 30
0.0
 10
91.115631
 20
264.728484
 30
0.0
  0
SPLINE
  5
228
100
AcDbEntity
  8
Capa_1
 62
7
100
AcDbSpline
 70
8
 71
3
 72
8
 73
4
 74
0
 40
0
 40
0
 40
0
 40
0
 40
1
 40
1
 40
1
 40
1
 10
91.115631
 20
264.728484
 30
0.0
 10
91.244596
 20
264.662584
 30
0.0
 10
91.344509
 20
264.570112
 30
0.0
 10
91.415723
 20
264.451067
 30
0.0
  0
SPLINE
  5
229
100
AcDbEntity
  8
Capa_1
 62
7
100
AcDbSpline
 70
8
 71
3
 72
8
 73
4
 74
0
 40
0
 40
0
 40
0
 40
0
 40
1
 40
1
 40
1
 40
1
 10
91.415723
 20
264.451067
 30
0.0
 10
91.486937
 20
264.332022
 30
0.0
 10
91.522367
 20
264.195262
 30
0.0
 10
91.522367
 20
264.040787
 30
0.0
  0
SPLINE
  5
22a
100
AcDbEntity
  8
Capa_1
 62
7
100
AcDbSpline
 70
8
 71
3
 72
8
 73
4
 74
0
 40
0
 40
0
 40
0
 40
0
 40
1
 40
1
 40
1
 40
1
 10
91.522367
 20
264.040787
 30
0.0
 10
91.522367
 20
263.886312
 30
0.0
 10
91.486937
 20
263.749907
 30
0.0
 10
91.415723
 20
263.630508
 30
0.0
  0
SPLINE
  5
22b
100
AcDbEntity
  8
Capa_1
 62
7
100
AcDbSpline
 70
8
 71
3
 72
8
 73
4
 74
0
 40
0
 40
0
 40
0
 40
0
 40
1
 40
1
 40
1
 40
1
 10
91.415723
 20
263.630508
 30
0.0
 10
91.344509
 20
263.511463
 30
0.0
 10
91.244596
 20
263.418991
 30
0.0
 10
91.115631
 20
263.353091
 30
0.0
  0
SPLINE
  5
22c
100
AcDbEntity
  8
Capa_1
 62
7
100
AcDbSpline
 70
8
 71
3
 72
8
 73
4
 74
0
 40
0
 40
0
 40
0
 40
0
 40
1
 40
1
 40
1
 40
1
 10
91.115631
 20
263.353091
 30
0.0
 10
90.986666
 20
263.287191
 30
0.0
 10
90.839277
 20
263.254241
 30
0.0
 10
90.672756
 20
263.254241
 30
0.0
  0
LWPOLYLINE
  5
22d
100
AcDbEntity
  8
Capa_1
 62
7
100
AcDbPolyline
 90
2
 70
0
 10
90.009860
 20
264.827334
 30
0.0
 10
90.672756
 20
264.827334
 30
0.0
  0
SPLINE
  5
22e
100
AcDbEntity
  8
Capa_1
 62
7
100
AcDbSpline
 70
8
 71
3
 72
8
 73
4
 74
0
 40
0
 40
0
 40
0
 40
0
 40
1
 40
1
 40
1
 40
1
 10
90.659292
 20
263.449815
 30
0.0
 10
90.786486
 20
263.449815
 30
0.0
 10
90.898445
 20
263.474616
 30
0.0
 10
90.995169
 20
263.523863
 30
0.0
  0
SPLINE
  5
22f
100
AcDbEntity
  8
Capa_1
 62
7
100
AcDbSpline
 70
8
 71
3
 72
8
 73
4
 74
0
 40
0
 40
0
 40
0
 40
0
 40
1
 40
1
 40
1
 40
1
 10
90.995169
 20
263.523863
 30
0.0
 10
91.091893
 20
263.573465
 30
0.0
 10
91.166296
 20
263.642554
 30
0.0
 10
91.218732
 20
263.731838
 30
0.0
  0
SPLINE
  5
230
100
AcDbEntity
  8
Capa_1
 62
7
100
AcDbSpline
 70
8
 71
3
 72
8
 73
4
 74
0
 40
0
 40
0
 40
0
 40
0
 40
1
 40
1
 40
1
 40
1
 10
91.218732
 20
263.731838
 30
0.0
 10
91.271169
 20
263.821121
 30
0.0
 10
91.297387
 20
263.923868
 30
0.0
 10
91.297387
 20
264.040787
 30
0.0
  0
SPLINE
  5
231
100
AcDbEntity
  8
Capa_1
 62
7
100
AcDbSpline
 70
8
 71
3
 72
8
 73
4
 74
0
 40
0
 40
0
 40
0
 40
0
 40
1
 40
1
 40
1
 40
1
 10
91.297387
 20
264.040787
 30
0.0
 10
91.297387
 20
264.157706
 30
0.0
 10
91.271169
 20
264.260808
 30
0.0
 10
91.218732
 20
264.349737
 30
0.0
  0
SPLINE
  5
232
100
AcDbEntity
  8
Capa_1
 62
7
100
AcDbSpline
 70
8
 71
3
 72
8
 73
4
 74
0
 40
0
 40
0
 40
0
 40
0
 40
1
 40
1
 40
1
 40
1
 10
91.218732
 20
264.349737
 30
0.0
 10
91.166296
 20
264.439021
 30
0.0
 10
91.091893
 20
264.508109
 30
0.0
 10
90.995169
 20
264.557711
 30
0.0
  0
SPLINE
  5
233
100
AcDbEntity
  8
Capa_1
 62
7
100
AcDbSpline
 70
8
 71
3
 72
8
 73
4
 74
0
 40
0
 40
0
 40
0
 40
0
 40
1
 40
1
 40
1
 40
1
 10
90.995169
 20
264.557711
 30
0.0
 10
90.898445
 20
264.607313
 30
0.0
 10
90.786486
 20
264.631760
 30
0.0
 10
90.659292
 20
264.631760
 30
0.0
  0
LWPOLYLINE
  5
234
100
AcDbEntity
  8
Capa_1
 62
7
100
AcDbPolyline
 90
3
 70
0
 10
90.672756
 20
263.254241
 30
0.0
 10
90.009860
 20
263.254241
 30
0.0
 10
90.009860
 20
264.827334
 30
0.0
  0
LWPOLYLINE
  5
235
100
AcDbEntity
  8
Capa_1
 62
7
100
AcDbPolyline
 90
4
 70
0
 10
90.659292
 20
264.631760
 30
0.0
 10
90.234486
 20
264.631760
 30
0.0
 10
90.234486
 20
263.449815
 30
0.0
 10
90.659292
 20
263.449815
 30
0.0
  0
LWPOLYLINE
  5
236
100
AcDbEntity
  8
Capa_1
 62
7
100
AcDbPolyline
 90
12
 70
1
 10
93.483773
 20
263.449460
 30
0.0
 10
93.483773
 20
263.253887
 30
0.0
 10
92.342218
 20
263.253887
 30
0.0
 10
92.342218
 20
264.826979
 30
0.0
 10
93.452240
 20
264.826979
 30
0.0
 10
93.452240
 20
264.631406
 30
0.0
 10
92.566844
 20
264.631406
 30
0.0
 10
92.566844
 20
264.148140
 30
0.0
 10
93.355516
 20
264.148140
 30
0.0
 10
93.355516
 20
263.957172
 30
0.0
 10
92.566844
 20
263.957172
 30
0.0
 10
92.566844
 20
263.449460
 30
0.0
  0
LWPOLYLINE
  5
237
100
AcDbEntity
  8
Capa_1
 62
7
100
AcDbPolyline
 90
14
 70
1
 10
95.782826
 20
263.254241
 30
0.0
 10
95.780700
 20
264.400402
 30
0.0
 10
95.212049
 20
263.445209
 30
0.0
 10
95.108593
 20
263.445209
 30
0.0
 10
94.539941
 20
264.393670
 30
0.0
 10
94.539941
 20
263.254241
 30
0.0
 10
94.324173
 20
263.254241
 30
0.0
 10
94.324173
 20
264.827334
 30
0.0
 10
94.508409
 20
264.827334
 30
0.0
 10
95.164573
 20
263.721563
 30
0.0
 10
95.811879
 20
264.827334
 30
0.0
 10
95.996115
 20
264.827334
 30
0.0
 10
95.998241
 20
263.254241
 30
0.0
 10
95.782472
 20
263.254241
 30
0.0
  0
LWPOLYLINE
  5
238
100
AcDbEntity
  8
Capa_1
 62
7
100
AcDbPolyline
 90
4
 70
1
 10
96.946702
 20
264.827334
 30
0.0
 10
97.171328
 20
264.827334
 30
0.0
 10
97.171328
 20
263.254241
 30
0.0
 10
96.946702
 20
263.254241
 30
0.0
  0
LWPOLYLINE
  5
239
100
AcDbEntity
  8
Capa_1
 62
7
100
AcDbPolyline
 90
9
 70
1
 10
99.122105
 20
263.647514
 30
0.0
 10
98.285957
 20
263.647514
 30
0.0
 10
98.113058
 20
263.254241
 30
0.0
 10
97.881700
 20
263.254241
 30
0.0
 10
98.594198
 20
264.827334
 30
0.0
 10
98.816698
 20
264.827334
 30
0.0
 10
99.531322
 20
263.254241
 30
0.0
 10
99.295358
 20
263.254241
 30
0.0
 10
99.122459
 20
263.647514
 30
0.0
  0
LWPOLYLINE
  5
23a
100
AcDbEntity
  8
Capa_1
 62
7
100
AcDbPolyline
 90
4
 70
1
 10
99.043450
 20
263.827144
 30
0.0
 10
98.704031
 20
264.598101
 30
0.0
 10
98.364611
 20
263.827144
 30
0.0
 10
99.043096
 20
263.827144
 30
0.0
  0
SPLINE
  5
23b
100
AcDbEntity
  8
Capa_1
 62
7
100
AcDbSpline
 70
8
 71
3
 72
8
 73
4
 74
0
 40
0
 40
0
 40
0
 40
0
 40
1
 40
1
 40
1
 40
1
 10
80.628347
 20
258.076853
 30
0.0
 10
80.631182
 20
258.083585
 30
0.0
 10
80.634370
 20
258.090317
 30
0.0
 10
80.637205
 20
258.096694
 30
0.0
  0
LWPOLYLINE
  5
23c
100
AcDbEntity
  8
Capa_1
 62
7
100
AcDbPolyline
 90
6
 70
0
 10
79.553046
 20
261.623043
 30
0.0
 10
78.633992
 20
261.623043
 30
0.0
 10
78.633992
 20
256.822631
 30
0.0
 10
79.676697
 20
256.822631
 30
0.0
 10
79.676697
 20
259.640734
 30
0.0
 10
80.628347
 20
258.076853
 30
0.0
  0
LWPOLYLINE
  5
23d
100
AcDbEntity
  8
Capa_1
 62
7
100
AcDbPolyline
 90
6
 70
0
 10
80.637205
 20
258.096694
 30
0.0
 10
80.647479
 20
258.116535
 30
0.0
 10
80.693184
 20
258.192355
 30
0.0
 10
81.150940
 20
258.971107
 30
0.0
 10
79.553046
 20
261.623398
 30
0.0
 10
79.553046
 20
261.623043
 30
0.0
  0
SPLINE
  5
23e
100
AcDbEntity
  8
Capa_1
 62
7
100
AcDbSpline
 70
8
 71
3
 72
8
 73
4
 74
0
 40
0
 40
0
 40
0
 40
0
 40
1
 40
1
 40
1
 40
1
 10
80.941549
 20
257.950368
 30
0.0
 10
80.914622
 20
257.894034
 30
0.0
 10
80.900095
 20
257.831323
 30
0.0
 10
80.900095
 20
257.764715
 30
0.0
  0
SPLINE
  5
23f
100
AcDbEntity
  8
Capa_1
 62
7
100
AcDbSpline
 70
8
 71
3
 72
8
 73
4
 74
0
 40
0
 40
0
 40
0
 40
0
 40
1
 40
1
 40
1
 40
1
 10
80.900095
 20
257.764715
 30
0.0
 10
80.900095
 20
257.535837
 30
0.0
 10
81.076183
 20
257.348058
 30
0.0
 10
81.299392
 20
257.329634
 30
0.0
  0
LWPOLYLINE
  5
240
100
AcDbEntity
  8
Capa_1
 62
7
100
AcDbPolyline
 90
7
 70
0
 10
84.031754
 20
261.623043
 30
0.0
 10
83.119431
 20
261.623043
 30
0.0
 10
81.349702
 20
258.639482
 30
0.0
 10
81.348639
 20
258.641253
 30
0.0
 10
80.981939
 20
258.018394
 30
0.0
 10
80.943320
 20
257.953911
 30
0.0
 10
80.941549
 20
257.950368
 30
0.0
  0
SPLINE
  5
241
100
AcDbEntity
  8
Capa_1
 62
7
100
AcDbSpline
 70
8
 71
3
 72
8
 73
4
 74
0
 40
0
 40
0
 40
0
 40
0
 40
1
 40
1
 40
1
 40
1
 10
81.373440
 20
257.329634
 30
0.0
 10
81.503469
 20
257.340263
 30
0.0
 10
81.616845
 20
257.408289
 30
0.0
 10
81.689476
 20
257.507847
 30
0.0
  0
LWPOLYLINE
  5
242
100
AcDbEntity
  8
Capa_1
 62
7
100
AcDbPolyline
 90
2
 70
0
 10
81.299392
 20
257.329634
 30
0.0
 10
81.373440
 20
257.329634
 30
0.0
  0
SPLINE
  5
243
100
AcDbEntity
  8
Capa_1
 62
7
100
AcDbSpline
 70
8
 71
3
 72
8
 73
4
 74
0
 40
0
 40
0
 40
0
 40
0
 40
1
 40
1
 40
1
 40
1
 10
81.728803
 20
257.574101
 30
0.0
 10
81.728803
 20
257.574101
 30
0.0
 10
81.729512
 20
257.574810
 30
0.0
 10
81.729512
 20
257.575164
 30
0.0
  0
LWPOLYLINE
  5
244
100
AcDbEntity
  8
Capa_1
 62
7
100
AcDbPolyline
 90
2
 70
0
 10
81.689476
 20
257.507847
 30
0.0
 10
81.728803
 20
257.574101
 30
0.0
  0
SPLINE
  5
245
100
AcDbEntity
  8
Capa_1
 62
7
100
AcDbSpline
 70
8
 71
3
 72
8
 73
4
 74
0
 40
0
 40
0
 40
0
 40
0
 40
1
 40
1
 40
1
 40
1
 10
81.342971
 20
257.637875
 30
0.0
 10
81.265379
 20
257.637875
 30
0.0
 10
81.202313
 20
257.700941
 30
0.0
 10
81.202313
 20
257.778533
 30
0.0
  0
SPLINE
  5
246
100
AcDbEntity
  8
Capa_1
 62
7
100
AcDbSpline
 70
8
 71
3
 72
8
 73
4
 74
0
 40
0
 40
0
 40
0
 40
0
 40
1
 40
1
 40
1
 40
1
 10
81.202313
 20
257.778533
 30
0.0
 10
81.202313
 20
257.856124
 30
0.0
 10
81.265379
 20
257.919190
 30
0.0
 10
81.342971
 20
257.919190
 30
0.0
  0
SPLINE
  5
247
100
AcDbEntity
  8
Capa_1
 62
7
100
AcDbSpline
 70
8
 71
3
 72
8
 73
4
 74
0
 40
0
 40
0
 40
0
 40
0
 40
1
 40
1
 40
1
 40
1
 10
81.342971
 20
257.919190
 30
0.0
 10
81.420562
 20
257.919190
 30
0.0
 10
81.483628
 20
257.856124
 30
0.0
 10
81.483628
 20
257.778533
 30
0.0
  0
SPLINE
  5
248
100
AcDbEntity
  8
Capa_1
 62
7
100
AcDbSpline
 70
8
 71
3
 72
8
 73
4
 74
0
 40
0
 40
0
 40
0
 40
0
 40
1
 40
1
 40
1
 40
1
 10
81.483628
 20
257.778533
 30
0.0
 10
81.483628
 20
257.700941
 30
0.0
 10
81.420562
 20
257.637875
 30
0.0
 10
81.342971
 20
257.637875
 30
0.0
  0
LWPOLYLINE
  5
249
100
AcDbEntity
  8
Capa_1
 62
7
100
AcDbPolyline
 90
6
 70
0
 10
81.729512
 20
257.575164
 30
0.0
 10
82.996135
 20
259.702382
 30
0.0
 10
83.003575
 20
256.821568
 30
0.0
 10
84.045926
 20
256.821568
 30
0.0
 10
84.032463
 20
261.622689
 30
0.0
 10
84.031754
 20
261.623043
 30
0.0
  0
LWPOLYLINE
  5
24a
100
AcDbEntity
  8
Capa_1
 62
7
100
AcDbPolyline
 90
1
 70
1
 10
81.342971
 20
257.637875
 30
0.0
  0
SPLINE
  5
24b
100
AcDbEntity
  8
Capa_1
 62
7
100
AcDbSpline
 70
8
 71
3
 72
8
 73
4
 74
0
 40
0
 40
0
 40
0
 40
0
 40
1
 40
1
 40
1
 40
1
 10
85.992805
 20
257.552843
 30
0.0
 10
85.690942
 20
257.654173
 30
0.0
 10
85.475527
 20
257.938676
 30
0.0
 10
85.475527
 20
258.274199
 30
0.0
  0
SPLINE
  5
24c
100
AcDbEntity
  8
Capa_1
 62
7
100
AcDbSpline
 70
8
 71
3
 72
8
 73
4
 74
0
 40
0
 40
0
 40
0
 40
0
 40
1
 40
1
 40
1
 40
1
 10
85.475527
 20
258.274199
 30
0.0
 10
85.475527
 20
258.691918
 30
0.0
 10
85.814947
 20
259.033109
 30
0.0
 10
86.232667
 20
259.034881
 30
0.0
  0
LWPOLYLINE
  5
24d
100
AcDbEntity
  8
Capa_1
 62
7
100
AcDbPolyline
 90
5
 70
0
 10
86.990160
 20
260.242336
 30
0.0
 10
86.561103
 20
261.327911
 30
0.0
 10
84.552930
 20
256.822631
 30
0.0
 10
85.691296
 20
256.822631
 30
0.0
 10
85.992805
 20
257.552843
 30
0.0
  0
LWPOLYLINE
  5
24e
100
AcDbEntity
  8
Capa_1
 62
7
100
AcDbPolyline
 90
5
 70
0
 10
86.232667
 20
259.034881
 30
0.0
 10
86.613185
 20
259.032755
 30
0.0
 10
87.051808
 20
260.092467
 30
0.0
 10
86.989806
 20
260.242690
 30
0.0
 10
86.990160
 20
260.242336
 30
0.0
  0
SPLINE
  5
24f
100
AcDbEntity
  8
Capa_1
 62
7
100
AcDbSpline
 70
8
 71
3
 72
8
 73
4
 74
0
 40
0
 40
0
 40
0
 40
0
 40
1
 40
1
 40
1
 40
1
 10
86.234792
 20
258.697587
 30
0.0
 10
86.001309
 20
258.696524
 30
0.0
 10
85.813175
 20
258.506974
 30
0.0
 10
85.813175
 20
258.273844
 30
0.0
  0
SPLINE
  5
250
100
AcDbEntity
  8
Capa_1
 62
7
100
AcDbSpline
 70
8
 71
3
 72
8
 73
4
 74
0
 40
0
 40
0
 40
0
 40
0
 40
1
 40
1
 40
1
 40
1
 10
85.813175
 20
258.273844
 30
0.0
 10
85.813175
 20
258.047446
 30
0.0
 10
85.991388
 20
257.861793
 30
0.0
 10
86.215306
 20
257.851164
 30
0.0
  0
LWPOLYLINE
  5
251
100
AcDbEntity
  8
Capa_1
 62
7
100
AcDbPolyline
 90
8
 70
0
 10
87.790170
 20
261.623043
 30
0.0
 10
86.807341
 20
261.623043
 30
0.0
 10
87.301590
 20
260.370947
 30
0.0
 10
87.996018
 20
258.694044
 30
0.0
 10
86.473591
 20
258.694044
 30
0.0
 10
86.474299
 20
258.695816
 30
0.0
 10
86.238335
 20
258.697587
 30
0.0
 10
86.234792
 20
258.697587
 30
0.0
  0
SPLINE
  5
252
100
AcDbEntity
  8
Capa_1
 62
7
100
AcDbSpline
 70
8
 71
3
 72
8
 73
4
 74
0
 40
0
 40
0
 40
0
 40
0
 40
1
 40
1
 40
1
 40
1
 10
86.271285
 20
258.154445
 30
0.0
 10
86.193694
 20
258.154445
 30
0.0
 10
86.130628
 20
258.217510
 30
0.0
 10
86.130628
 20
258.295102
 30
0.0
  0
SPLINE
  5
253
100
AcDbEntity
  8
Capa_1
 62
7
100
AcDbSpline
 70
8
 71
3
 72
8
 73
4
 74
0
 40
0
 40
0
 40
0
 40
0
 40
1
 40
1
 40
1
 40
1
 10
86.130628
 20
258.295102
 30
0.0
 10
86.130628
 20
258.372694
 30
0.0
 10
86.193694
 20
258.435759
 30
0.0
 10
86.271285
 20
258.435759
 30
0.0
  0
SPLINE
  5
254
100
AcDbEntity
  8
Capa_1
 62
7
100
AcDbSpline
 70
8
 71
3
 72
8
 73
4
 74
0
 40
0
 40
0
 40
0
 40
0
 40
1
 40
1
 40
1
 40
1
 10
86.271285
 20
258.435759
 30
0.0
 10
86.348877
 20
258.435759
 30
0.0
 10
86.411942
 20
258.372694
 30
0.0
 10
86.411942
 20
258.295102
 30
0.0
  0
SPLINE
  5
255
100
AcDbEntity
  8
Capa_1
 62
7
100
AcDbSpline
 70
8
 71
3
 72
8
 73
4
 74
0
 40
0
 40
0
 40
0
 40
0
 40
1
 40
1
 40
1
 40
1
 10
86.411942
 20
258.295102
 30
0.0
 10
86.411942
 20
258.217510
 30
0.0
 10
86.348877
 20
258.154445
 30
0.0
 10
86.271285
 20
258.154445
 30
0.0
  0
LWPOLYLINE
  5
256
100
AcDbEntity
  8
Capa_1
 62
7
100
AcDbPolyline
 90
6
 70
0
 10
86.215306
 20
257.851164
 30
0.0
 10
88.346067
 20
257.851164
 30
0.0
 10
88.771581
 20
256.822277
 30
0.0
 10
89.937583
 20
256.822277
 30
0.0
 10
87.790524
 20
261.623398
 30
0.0
 10
87.790170
 20
261.623043
 30
0.0
  0
LWPOLYLINE
  5
257
100
AcDbEntity
  8
Capa_1
 62
7
100
AcDbPolyline
 90
1
 70
1
 10
86.271285
 20
258.154445
 30
0.0
  0
SPLINE
  5
258
100
AcDbEntity
  8
Capa_1
 62
7
100
AcDbSpline
 70
8
 71
3
 72
8
 73
4
 74
0
 40
0
 40
0
 40
0
 40
0
 40
1
 40
1
 40
1
 40
1
 10
93.109278
 20
259.234706
 30
0.0
 10
93.013262
 20
259.345956
 30
0.0
 10
92.870834
 20
259.416462
 30
0.0
 10
92.712461
 20
259.416462
 30
0.0
  0
SPLINE
  5
259
100
AcDbEntity
  8
Capa_1
 62
7
100
AcDbSpline
 70
8
 71
3
 72
8
 73
4
 74
0
 40
0
 40
0
 40
0
 40
0
 40
1
 40
1
 40
1
 40
1
 10
92.712461
 20
259.416462
 30
0.0
 10
92.422290
 20
259.416462
 30
0.0
 10
92.187389
 20
259.180853
 30
0.0
 10
92.187389
 20
258.891389
 30
0.0
  0
SPLINE
  5
25a
100
AcDbEntity
  8
Capa_1
 62
7
100
AcDbSpline
 70
8
 71
3
 72
8
 73
4
 74
0
 40
0
 40
0
 40
0
 40
0
 40
1
 40
1
 40
1
 40
1
 10
92.187389
 20
258.891389
 30
0.0
 10
92.187389
 20
258.782973
 30
0.0
 10
92.219984
 20
258.681644
 30
0.0
 10
92.276672
 20
258.597320
 30
0.0
  0
SPLINE
  5
25b
100
AcDbEntity
  8
Capa_1
 62
7
100
AcDbSpline
 70
8
 71
3
 72
8
 73
4
 74
0
 40
0
 40
0
 40
0
 40
0
 40
1
 40
1
 40
1
 40
1
 10
92.276672
 20
258.597320
 30
0.0
 10
92.277735
 20
258.596257
 30
0.0
 10
92.278798
 20
258.594486
 30
0.0
 10
92.280215
 20
258.592714
 30
0.0
  0
LWPOLYLINE
  5
25c
100
AcDbEntity
  8
Capa_1
 62
7
100
AcDbPolyline
 90
2
 70
0
 10
93.133016
 20
259.204945
 30
0.0
 10
93.109278
 20
259.234706
 30
0.0
  0
SPLINE
  5
25d
100
AcDbEntity
  8
Capa_1
 62
7
100
AcDbSpline
 70
8
 71
3
 72
8
 73
4
 74
0
 40
0
 40
0
 40
0
 40
0
 40
1
 40
1
 40
1
 40
1
 10
92.719193
 20
258.763133
 30
0.0
 10
92.641601
 20
258.763133
 30
0.0
 10
92.578536
 20
258.826198
 30
0.0
 10
92.578536
 20
258.903790
 30
0.0
  0
SPLINE
  5
25e
100
AcDbEntity
  8
Capa_1
 62
7
100
AcDbSpline
 70
8
 71
3
 72
8
 73
4
 74
0
 40
0
 40
0
 40
0
 40
0
 40
1
 40
1
 40
1
 40
1
 10
92.578536
 20
258.903790
 30
0.0
 10
92.578536
 20
258.981382
 30
0.0
 10
92.641601
 20
259.044447
 30
0.0
 10
92.719193
 20
259.044447
 30
0.0
  0
SPLINE
  5
25f
100
AcDbEntity
  8
Capa_1
 62
7
100
AcDbSpline
 70
8
 71
3
 72
8
 73
4
 74
0
 40
0
 40
0
 40
0
 40
0
 40
1
 40
1
 40
1
 40
1
 10
92.719193
 20
259.044447
 30
0.0
 10
92.796785
 20
259.044447
 30
0.0
 10
92.859850
 20
258.981382
 30
0.0
 10
92.859850
 20
258.903790
 30
0.0
  0
SPLINE
  5
260
100
AcDbEntity
  8
Capa_1
 62
7
100
AcDbSpline
 70
8
 71
3
 72
8
 73
4
 74
0
 40
0
 40
0
 40
0
 40
0
 40
1
 40
1
 40
1
 40
1
 10
92.859850
 20
258.903790
 30
0.0
 10
92.859850
 20
258.826198
 30
0.0
 10
92.796785
 20
258.763133
 30
0.0
 10
92.719193
 20
258.763133
 30
0.0
  0
LWPOLYLINE
  5
261
100
AcDbEntity
  8
Capa_1
 62
7
100
AcDbPolyline
 90
6
 70
0
 10
92.280215
 20
258.592714
 30
0.0
 10
92.330172
 20
258.530712
 30
0.0
 10
93.722571
 20
256.821568
 30
0.0
 10
95.018955
 20
256.821568
 30
0.0
 10
93.132661
 20
259.204591
 30
0.0
 10
93.133016
 20
259.204945
 30
0.0
  0
LWPOLYLINE
  5
262
100
AcDbEntity
  8
Capa_1
 62
7
100
AcDbPolyline
 90
1
 70
1
 10
92.719193
 20
258.763133
 30
0.0
  0
SPLINE
  5
263
100
AcDbEntity
  8
Capa_1
 62
7
100
AcDbSpline
 70
8
 71
3
 72
8
 73
4
 74
0
 40
0
 40
0
 40
0
 40
0
 40
1
 40
1
 40
1
 40
1
 10
91.959219
 20
258.471544
 30
0.0
 10
91.887296
 20
258.598737
 30
0.0
 10
91.850095
 20
258.743646
 30
0.0
 10
91.850095
 20
258.892098
 30
0.0
  0
SPLINE
  5
264
100
AcDbEntity
  8
Capa_1
 62
7
100
AcDbSpline
 70
8
 71
3
 72
8
 73
4
 74
0
 40
0
 40
0
 40
0
 40
0
 40
1
 40
1
 40
1
 40
1
 10
91.850095
 20
258.892098
 30
0.0
 10
91.850095
 20
259.367214
 30
0.0
 10
92.236991
 20
259.753756
 30
0.0
 10
92.712461
 20
259.753756
 30
0.0
  0
SPLINE
  5
265
100
AcDbEntity
  8
Capa_1
 62
7
100
AcDbSpline
 70
8
 71
3
 72
8
 73
4
 74
0
 40
0
 40
0
 40
0
 40
0
 40
1
 40
1
 40
1
 40
1
 10
92.712461
 20
259.753756
 30
0.0
 10
92.843552
 20
259.753756
 30
0.0
 10
92.971100
 20
259.723995
 30
0.0
 10
93.085894
 20
259.668369
 30
0.0
  0
LWPOLYLINE
  5
266
100
AcDbEntity
  8
Capa_1
 62
7
100
AcDbPolyline
 90
8
 70
0
 10
93.667655
 20
261.623043
 30
0.0
 10
91.541500
 20
259.380323
 30
0.0
 10
91.541500
 20
261.623043
 30
0.0
 10
90.437500
 20
261.623043
 30
0.0
 10
90.437500
 20
256.822631
 30
0.0
 10
91.541500
 20
256.822631
 30
0.0
 10
91.541500
 20
258.035755
 30
0.0
 10
91.959219
 20
258.471544
 30
0.0
  0
LWPOLYLINE
  5
267
100
AcDbEntity
  8
Capa_1
 62
7
100
AcDbPolyline
 90
3
 70
0
 10
93.085894
 20
259.668369
 30
0.0
 10
94.902390
 20
261.623043
 30
0.0
 10
93.667655
 20
261.623043
 30
0.0
  0
SPLINE
  5
268
100
AcDbEntity
  8
Capa_1
 62
7
100
AcDbSpline
 70
8
 71
3
 72
8
 73
4
 74
0
 40
0
 40
0
 40
0
 40
0
 40
1
 40
1
 40
1
 40
1
 10
96.616849
 20
258.494573
 30
0.0
 10
96.242354
 20
258.549135
 30
0.0
 10
95.956788
 20
258.874029
 30
0.0
 10
95.956788
 20
259.258444
 30
0.0
  0
SPLINE
  5
269
100
AcDbEntity
  8
Capa_1
 62
7
100
AcDbSpline
 70
8
 71
3
 72
8
 73
4
 74
0
 40
0
 40
0
 40
0
 40
0
 40
1
 40
1
 40
1
 40
1
 10
95.956788
 20
259.258444
 30
0.0
 10
95.956788
 20
259.640025
 30
0.0
 10
96.239519
 20
259.966690
 30
0.0
 10
96.616849
 20
260.021961
 30
0.0
  0
LWPOLYLINE
  5
26a
100
AcDbEntity
  8
Capa_1
 62
7
100
AcDbPolyline
 90
2
 70
0
 10
96.616849
 20
257.713696
 30
0.0
 10
96.616849
 20
258.494573
 30
0.0
  0
SPLINE
  5
26b
100
AcDbEntity
  8
Capa_1
 62
7
100
AcDbSpline
 70
8
 71
3
 72
8
 73
4
 74
0
 40
0
 40
0
 40
0
 40
0
 40
1
 40
1
 40
1
 40
1
 10
96.671411
 20
259.688565
 30
0.0
 10
96.458477
 20
259.660575
 30
0.0
 10
96.294081
 20
259.478465
 30
0.0
 10
96.294081
 20
259.258090
 30
0.0
  0
SPLINE
  5
26c
100
AcDbEntity
  8
Capa_1
 62
7
100
AcDbSpline
 70
8
 71
3
 72
8
 73
4
 74
0
 40
0
 40
0
 40
0
 40
0
 40
1
 40
1
 40
1
 40
1
 10
96.294081
 20
259.258090
 30
0.0
 10
96.294081
 20
259.028149
 30
0.0
 10
96.473003
 20
258.839661
 30
0.0
 10
96.698692
 20
258.824781
 30
0.0
  0
LWPOLYLINE
  5
26d
100
AcDbEntity
  8
Capa_1
 62
7
100
AcDbPolyline
 90
9
 70
0
 10
96.616849
 20
260.021961
 30
0.0
 10
96.616849
 20
260.731978
 30
0.0
 10
99.140883
 20
260.731978
 30
0.0
 10
99.140883
 20
261.623043
 30
0.0
 10
95.512495
 20
261.623043
 30
0.0
 10
95.512495
 20
256.822631
 30
0.0
 10
99.229812
 20
256.822631
 30
0.0
 10
99.229812
 20
257.713696
 30
0.0
 10
96.616849
 20
257.713696
 30
0.0
  0
SPLINE
  5
26e
100
AcDbEntity
  8
Capa_1
 62
7
100
AcDbSpline
 70
8
 71
3
 72
8
 73
4
 74
0
 40
0
 40
0
 40
0
 40
0
 40
1
 40
1
 40
1
 40
1
 10
96.719596
 20
259.138336
 30
0.0
 10
96.642004
 20
259.138336
 30
0.0
 10
96.578939
 20
259.201402
 30
0.0
 10
96.578939
 20
259.278994
 30
0.0
  0
SPLINE
  5
26f
100
AcDbEntity
  8
Capa_1
 62
7
100
AcDbSpline
 70
8
 71
3
 72
8
 73
4
 74
0
 40
0
 40
0
 40
0
 40
0
 40
1
 40
1
 40
1
 40
1
 10
96.578939
 20
259.278994
 30
0.0
 10
96.578939
 20
259.357294
 30
0.0
 10
96.642004
 20
259.419651
 30
0.0
 10
96.719596
 20
259.419651
 30
0.0
  0
SPLINE
  5
270
100
AcDbEntity
  8
Capa_1
 62
7
100
AcDbSpline
 70
8
 71
3
 72
8
 73
4
 74
0
 40
0
 40
0
 40
0
 40
0
 40
1
 40
1
 40
1
 40
1
 10
96.719596
 20
259.419651
 30
0.0
 10
96.797896
 20
259.419651
 30
0.0
 10
96.860253
 20
259.357294
 30
0.0
 10
96.860253
 20
259.278994
 30
0.0
  0
SPLINE
  5
271
100
AcDbEntity
  8
Capa_1
 62
7
100
AcDbSpline
 70
8
 71
3
 72
8
 73
4
 74
0
 40
0
 40
0
 40
0
 40
0
 40
1
 40
1
 40
1
 40
1
 10
96.860253
 20
259.278994
 30
0.0
 10
96.860253
 20
259.201402
 30
0.0
 10
96.797896
 20
259.138336
 30
0.0
 10
96.719596
 20
259.138336
 30
0.0
  0
LWPOLYLINE
  5
272
100
AcDbEntity
  8
Capa_1
 62
7
100
AcDbPolyline
 90
5
 70
0
 10
96.698692
 20
258.824781
 30
0.0
 10
98.845751
 20
258.824781
 30
0.0
 10
98.845751
 20
259.688919
 30
0.0
 10
96.671057
 20
259.688919
 30
0.0
 10
96.671411
 20
259.688565
 30
0.0
  0
SPLINE
  5
273
100
AcDbEntity
  8
Capa_1
 62
7
100
AcDbSpline
 70
8
 71
3
 72
8
 73
4
 74
0
 40
0
 40
0
 40
0
 40
0
 40
1
 40
1
 40
1
 40
1
 10
104.024201
 20
260.806736
 30
0.0
 10
103.854846
 20
261.067501
 30
0.0
 10
103.613922
 20
261.268389
 30
0.0
 10
103.300720
 20
261.410463
 30
0.0
  0
SPLINE
  5
274
100
AcDbEntity
  8
Capa_1
 62
7
100
AcDbSpline
 70
8
 71
3
 72
8
 73
4
 74
0
 40
0
 40
0
 40
0
 40
0
 40
1
 40
1
 40
1
 40
1
 10
103.300720
 20
261.410463
 30
0.0
 10
102.987519
 20
261.552183
 30
0.0
 10
102.618338
 20
261.623043
 30
0.0
 10
102.193178
 20
261.623043
 30
0.0
  0
LWPOLYLINE
  5
275
100
AcDbEntity
  8
Capa_1
 62
7
100
AcDbPolyline
 90
1
 70
1
 10
96.719596
 20
259.138336
 30
0.0
  0
SPLINE
  5
276
100
AcDbEntity
  8
Capa_1
 62
7
100
AcDbSpline
 70
8
 71
3
 72
8
 73
4
 74
0
 40
0
 40
0
 40
0
 40
0
 40
1
 40
1
 40
1
 40
1
 10
100.563398
 20
261.622335
 30
0.0
 10
100.439038
 20
261.621272
 30
0.0
 10
100.326725
 20
261.570607
 30
0.0
 10
100.245591
 20
261.489118
 30
0.0
  0
SPLINE
  5
277
100
AcDbEntity
  8
Capa_1
 62
7
100
AcDbSpline
 70
8
 71
3
 72
8
 73
4
 74
0
 40
0
 40
0
 40
0
 40
0
 40
1
 40
1
 40
1
 40
1
 10
100.245591
 20
261.489118
 30
0.0
 10
100.164810
 20
261.407629
 30
0.0
 10
100.114500
 20
261.295316
 30
0.0
 10
100.114500
 20
261.169893
 30
0.0
  0
SPLINE
  5
278
100
AcDbEntity
  8
Capa_1
 62
7
100
AcDbSpline
 70
8
 71
3
 72
8
 73
4
 74
0
 40
0
 40
0
 40
0
 40
0
 40
1
 40
1
 40
1
 40
1
 10
100.114500
 20
261.169893
 30
0.0
 10
100.114500
 20
260.921883
 30
0.0
 10
100.314679
 20
260.720287
 30
0.0
 10
100.563043
 20
260.718515
 30
0.0
  0
LWPOLYLINE
  5
279
100
AcDbEntity
  8
Capa_1
 62
7
100
AcDbPolyline
 90
4
 70
0
 10
102.193178
 20
261.623043
 30
0.0
 10
101.867577
 20
261.623043
 30
0.0
 10
101.867577
 20
261.622335
 30
0.0
 10
100.563398
 20
261.622335
 30
0.0
  0
SPLINE
  5
27a
100
AcDbEntity
  8
Capa_1
 62
7
100
AcDbSpline
 70
8
 71
3
 72
8
 73
4
 74
0
 40
0
 40
0
 40
0
 40
0
 40
1
 40
1
 40
1
 40
1
 10
102.130821
 20
260.717806
 30
0.0
 10
102.464218
 20
260.717806
 30
0.0
 10
102.718251
 20
260.645884
 30
0.0
 10
102.891858
 20
260.502038
 30
0.0
  0
SPLINE
  5
27b
100
AcDbEntity
  8
Capa_1
 62
7
100
AcDbSpline
 70
8
 71
3
 72
8
 73
4
 74
0
 40
0
 40
0
 40
0
 40
0
 40
1
 40
1
 40
1
 40
1
 10
102.891858
 20
260.502038
 30
0.0
 10
103.065465
 20
260.357483
 30
0.0
 10
103.152623
 20
260.151281
 30
0.0
 10
103.152623
 20
259.881304
 30
0.0
  0
SPLINE
  5
27c
100
AcDbEntity
  8
Capa_1
 62
7
100
AcDbSpline
 70
8
 71
3
 72
8
 73
4
 74
0
 40
0
 40
0
 40
0
 40
0
 40
1
 40
1
 40
1
 40
1
 10
103.152623
 20
259.881304
 30
0.0
 10
103.152623
 20
259.615933
 30
0.0
 10
103.065465
 20
259.410085
 30
0.0
 10
102.891858
 20
259.264113
 30
0.0
  0
SPLINE
  5
27d
100
AcDbEntity
  8
Capa_1
 62
7
100
AcDbSpline
 70
8
 71
3
 72
8
 73
4
 74
0
 40
0
 40
0
 40
0
 40
0
 40
1
 40
1
 40
1
 40
1
 10
102.891858
 20
259.264113
 30
0.0
 10
102.718251
 20
259.117787
 30
0.0
 10
102.463864
 20
259.044801
 30
0.0
 10
102.130821
 20
259.044801
 30
0.0
  0
LWPOLYLINE
  5
27e
100
AcDbEntity
  8
Capa_1
 62
7
100
AcDbPolyline
 90
3
 70
0
 10
100.563043
 20
260.718515
 30
0.0
 10
101.911155
 20
260.717806
 30
0.0
 10
102.130821
 20
260.717806
 30
0.0
  0
SPLINE
  5
27f
100
AcDbEntity
  8
Capa_1
 62
7
100
AcDbSpline
 70
8
 71
3
 72
8
 73
4
 74
0
 40
0
 40
0
 40
0
 40
0
 40
1
 40
1
 40
1
 40
1
 10
100.563043
 20
260.380158
 30
0.0
 10
100.390499
 20
260.381221
 30
0.0
 10
100.233190
 20
260.447121
 30
0.0
 10
100.114500
 20
260.553765
 30
0.0
  0
LWPOLYLINE
  5
280
100
AcDbEntity
  8
Capa_1
 62
7
100
AcDbPolyline
 90
4
 70
0
 10
102.130821
 20
259.044801
 30
0.0
 10
101.225230
 20
259.044801
 30
0.0
 10
101.225230
 20
260.379450
 30
0.0
 10
100.563043
 20
260.380158
 30
0.0
  0
SPLINE
  5
281
100
AcDbEntity
  8
Capa_1
 62
7
100
AcDbSpline
 70
8
 71
3
 72
8
 73
4
 74
0
 40
0
 40
0
 40
0
 40
0
 40
1
 40
1
 40
1
 40
1
 10
102.067402
 20
258.159760
 30
0.0
 10
102.104603
 20
258.580668
 30
0.0
 10
102.459258
 20
258.912647
 30
0.0
 10
102.889732
 20
258.912647
 30
0.0
  0
SPLINE
  5
282
100
AcDbEntity
  8
Capa_1
 62
7
100
AcDbSpline
 70
8
 71
3
 72
8
 73
4
 74
0
 40
0
 40
0
 40
0
 40
0
 40
1
 40
1
 40
1
 40
1
 10
102.889732
 20
258.912647
 30
0.0
 10
103.160063
 20
258.912647
 30
0.0
 10
103.413742
 20
258.780139
 30
0.0
 10
103.567863
 20
258.557284
 30
0.0
  0
LWPOLYLINE
  5
283
100
AcDbEntity
  8
Capa_1
 62
7
100
AcDbPolyline
 90
5
 70
0
 10
100.114500
 20
260.553765
 30
0.0
 10
100.114500
 20
256.822277
 30
0.0
 10
101.225230
 20
256.822277
 30
0.0
 10
101.225230
 20
258.159760
 30
0.0
 10
102.067402
 20
258.159760
 30
0.0
  0
SPLINE
  5
284
100
AcDbEntity
  8
Capa_1
 62
7
100
AcDbSpline
 70
8
 71
3
 72
8
 73
4
 74
0
 40
0
 40
0
 40
0
 40
0
 40
1
 40
1
 40
1
 40
1
 10
103.588766
 20
258.527523
 30
0.0
 10
103.763436
 20
258.645151
 30
0.0
 10
103.907637
 20
258.788997
 30
0.0
 10
104.020658
 20
258.958706
 30
0.0
  0
SPLINE
  5
285
100
AcDbEntity
  8
Capa_1
 62
7
100
AcDbSpline
 70
8
 71
3
 72
8
 73
4
 74
0
 40
0
 40
0
 40
0
 40
0
 40
1
 40
1
 40
1
 40
1
 10
104.020658
 20
258.958706
 30
0.0
 10
104.192140
 20
259.216637
 30
0.0
 10
104.277526
 20
259.524878
 30
0.0
 10
104.277526
 20
259.881304
 30
0.0
  0
SPLINE
  5
286
100
AcDbEntity
  8
Capa_1
 62
7
100
AcDbSpline
 70
8
 71
3
 72
8
 73
4
 74
0
 40
0
 40
0
 40
0
 40
0
 40
1
 40
1
 40
1
 40
1
 10
104.277526
 20
259.881304
 30
0.0
 10
104.277526
 20
260.237730
 30
0.0
 10
104.193202
 20
260.546325
 30
0.0
 10
104.023847
 20
260.806736
 30
0.0
  0
LWPOLYLINE
  5
287
100
AcDbEntity
  8
Capa_1
 62
7
100
AcDbPolyline
 90
2
 70
0
 10
103.567863
 20
258.557284
 30
0.0
 10
103.588766
 20
258.527523
 30
0.0
  0
SPLINE
  5
288
100
AcDbEntity
  8
Capa_1
 62
7
100
AcDbSpline
 70
8
 71
3
 72
8
 73
4
 74
0
 40
0
 40
0
 40
0
 40
0
 40
1
 40
1
 40
1
 40
1
 10
100.579696
 20
261.031008
 30
0.0
 10
100.502104
 20
261.031008
 30
0.0
 10
100.439038
 20
261.094073
 30
0.0
 10
100.439038
 20
261.171665
 30
0.0
  0
SPLINE
  5
289
100
AcDbEntity
  8
Capa_1
 62
7
100
AcDbSpline
 70
8
 71
3
 72
8
 73
4
 74
0
 40
0
 40
0
 40
0
 40
0
 40
1
 40
1
 40
1
 40
1
 10
100.439038
 20
261.171665
 30
0.0
 10
100.439038
 20
261.249257
 30
0.0
 10
100.502104
 20
261.312322
 30
0.0
 10
100.579696
 20
261.312322
 30
0.0
  0
SPLINE
  5
28a
100
AcDbEntity
  8
Capa_1
 62
7
100
AcDbSpline
 70
8
 71
3
 72
8
 73
4
 74
0
 40
0
 40
0
 40
0
 40
0
 40
1
 40
1
 40
1
 40
1
 10
100.579696
 20
261.312322
 30
0.0
 10
100.657287
 20
261.312322
 30
0.0
 10
100.720353
 20
261.249257
 30
0.0
 10
100.720353
 20
261.171665
 30
0.0
  0
SPLINE
  5
28b
100
AcDbEntity
  8
Capa_1
 62
7
100
AcDbSpline
 70
8
 71
3
 72
8
 73
4
 74
0
 40
0
 40
0
 40
0
 40
0
 40
1
 40
1
 40
1
 40
1
 10
100.720353
 20
261.171665
 30
0.0
 10
100.720353
 20
261.094073
 30
0.0
 10
100.657287
 20
261.031008
 30
0.0
 10
100.579696
 20
261.031008
 30
0.0
  0
LWPOLYLINE
  5
28c
100
AcDbEntity
  8
Capa_1
 62
7
100
AcDbPolyline
 90
2
 70
0
 10
104.023847
 20
260.806736
 30
0.0
 10
104.024201
 20
260.806736
 30
0.0
  0
LWPOLYLINE
  5
28d
100
AcDbEntity
  8
Capa_1
 62
7
100
AcDbPolyline
 90
1
 70
1
 10
100.579696
 20
261.031008
 30
0.0
  0
SPLINE
  5
28e
100
AcDbEntity
  8
Capa_1
 62
7
100
AcDbSpline
 70
8
 71
3
 72
8
 73
4
 74
0
 40
0
 40
0
 40
0
 40
0
 40
1
 40
1
 40
1
 40
1
 10
103.308161
 20
258.340453
 30
0.0
 10
103.308161
 20
258.340453
 30
0.0
 10
103.306035
 20
258.344350
 30
0.0
 10
103.304618
 20
258.345413
 30
0.0
  0
SPLINE
  5
28f
100
AcDbEntity
  8
Capa_1
 62
7
100
AcDbSpline
 70
8
 71
3
 72
8
 73
4
 74
0
 40
0
 40
0
 40
0
 40
0
 40
1
 40
1
 40
1
 40
1
 10
103.304618
 20
258.345413
 30
0.0
 10
103.302492
 20
258.348956
 30
0.0
 10
103.300012
 20
258.352145
 30
0.0
 10
103.297886
 20
258.355688
 30
0.0
  0
LWPOLYLINE
  5
290
100
AcDbEntity
  8
Capa_1
 62
7
100
AcDbPolyline
 90
2
 70
0
 10
103.492397
 20
258.076145
 30
0.0
 10
103.308161
 20
258.340453
 30
0.0
  0
SPLINE
  5
291
100
AcDbEntity
  8
Capa_1
 62
7
100
AcDbSpline
 70
8
 71
3
 72
8
 73
4
 74
0
 40
0
 40
0
 40
0
 40
0
 40
1
 40
1
 40
1
 40
1
 10
103.291154
 20
258.365962
 30
0.0
 10
103.203288
 20
258.492447
 30
0.0
 10
103.056608
 20
258.575708
 30
0.0
 10
102.890441
 20
258.575708
 30
0.0
  0
SPLINE
  5
292
100
AcDbEntity
  8
Capa_1
 62
7
100
AcDbSpline
 70
8
 71
3
 72
8
 73
4
 74
0
 40
0
 40
0
 40
0
 40
0
 40
1
 40
1
 40
1
 40
1
 10
102.890441
 20
258.575708
 30
0.0
 10
102.620464
 20
258.575708
 30
0.0
 10
102.401861
 20
258.357105
 30
0.0
 10
102.401861
 20
258.087128
 30
0.0
  0
SPLINE
  5
293
100
AcDbEntity
  8
Capa_1
 62
7
100
AcDbSpline
 70
8
 71
3
 72
8
 73
4
 74
0
 40
0
 40
0
 40
0
 40
0
 40
1
 40
1
 40
1
 40
1
 10
102.401861
 20
258.087128
 30
0.0
 10
102.401861
 20
257.998199
 30
0.0
 10
102.425599
 20
257.915647
 30
0.0
 10
102.467052
 20
257.843724
 30
0.0
  0
LWPOLYLINE
  5
294
100
AcDbEntity
  8
Capa_1
 62
7
100
AcDbPolyline
 90
3
 70
0
 10
103.297886
 20
258.355688
 30
0.0
 10
103.290446
 20
258.365962
 30
0.0
 10
103.291154
 20
258.365962
 30
0.0
  0
SPLINE
  5
295
100
AcDbEntity
  8
Capa_1
 62
7
100
AcDbSpline
 70
8
 71
3
 72
8
 73
4
 74
0
 40
0
 40
0
 40
0
 40
0
 40
1
 40
1
 40
1
 40
1
 10
102.513111
 20
257.777115
 30
0.0
 10
102.513111
 20
257.777115
 30
0.0
 10
102.513111
 20
257.776407
 30
0.0
 10
102.513820
 20
257.776053
 30
0.0
  0
LWPOLYLINE
  5
296
100
AcDbEntity
  8
Capa_1
 62
7
100
AcDbPolyline
 90
3
 70
0
 10
102.467052
 20
257.843724
 30
0.0
 10
102.481579
 20
257.822820
 30
0.0
 10
102.513111
 20
257.777115
 30
0.0
  0
SPLINE
  5
297
100
AcDbEntity
  8
Capa_1
 62
7
100
AcDbSpline
 70
8
 71
3
 72
8
 73
4
 74
0
 40
0
 40
0
 40
0
 40
0
 40
1
 40
1
 40
1
 40
1
 10
102.897527
 20
257.982964
 30
0.0
 10
102.820644
 20
257.982964
 30
0.0
 10
102.756870
 20
258.046384
 30
0.0
 10
102.756870
 20
258.123621
 30
0.0
  0
SPLINE
  5
298
100
AcDbEntity
  8
Capa_1
 62
7
100
AcDbSpline
 70
8
 71
3
 72
8
 73
4
 74
0
 40
0
 40
0
 40
0
 40
0
 40
1
 40
1
 40
1
 40
1
 10
102.756870
 20
258.123621
 30
0.0
 10
102.756870
 20
258.201921
 30
0.0
 10
102.820290
 20
258.264278
 30
0.0
 10
102.897527
 20
258.264278
 30
0.0
  0
SPLINE
  5
299
100
AcDbEntity
  8
Capa_1
 62
7
100
AcDbSpline
 70
8
 71
3
 72
8
 73
4
 74
0
 40
0
 40
0
 40
0
 40
0
 40
1
 40
1
 40
1
 40
1
 10
102.897527
 20
258.264278
 30
0.0
 10
102.975827
 20
258.264278
 30
0.0
 10
103.038184
 20
258.201921
 30
0.0
 10
103.038184
 20
258.123621
 30
0.0
  0
SPLINE
  5
29a
100
AcDbEntity
  8
Capa_1
 62
7
100
AcDbSpline
 70
8
 71
3
 72
8
 73
4
 74
0
 40
0
 40
0
 40
0
 40
0
 40
1
 40
1
 40
1
 40
1
 10
103.038184
 20
258.123621
 30
0.0
 10
103.038184
 20
258.046738
 30
0.0
 10
102.975827
 20
257.982964
 30
0.0
 10
102.897527
 20
257.982964
 30
0.0
  0
LWPOLYLINE
  5
29b
100
AcDbEntity
  8
Capa_1
 62
7
100
AcDbPolyline
 90
5
 70
0
 10
102.513820
 20
257.776053
 30
0.0
 10
103.173881
 20
256.822631
 30
0.0
 10
104.367518
 20
256.822631
 30
0.0
 10
103.492751
 20
258.076145
 30
0.0
 10
103.492397
 20
258.076145
 30
0.0
  0
SPLINE
  5
29c
100
AcDbEntity
  8
Capa_1
 62
7
100
AcDbSpline
 70
8
 71
3
 72
8
 73
4
 74
0
 40
0
 40
0
 40
0
 40
0
 40
1
 40
1
 40
1
 40
1
 10
91.230424
 20
252.984852
 30
0.0
 10
82.823591
 20
252.984852
 30
0.0
 10
75.984181
 20
246.145442
 30
0.0
 10
75.984181
 20
237.741798
 30
0.0
  0
SPLINE
  5
29d
100
AcDbEntity
  8
Capa_1
 62
7
100
AcDbSpline
 70
8
 71
3
 72
8
 73
4
 74
0
 40
0
 40
0
 40
0
 40
0
 40
1
 40
1
 40
1
 40
1
 10
75.984181
 20
237.741798
 30
0.0
 10
75.984181
 20
232.329155
 30
0.0
 10
78.894757
 20
227.275064
 30
0.0
 10
83.577187
 20
224.551913
 30
0.0
  0
LWPOLYLINE
  5
29e
100
AcDbEntity
  8
Capa_1
 62
7
100
AcDbPolyline
 90
1
 70
1
 10
102.897527
 20
257.982964
 30
0.0
  0
SPLINE
  5
29f
100
AcDbEntity
  8
Capa_1
 62
7
100
AcDbSpline
 70
8
 71
3
 72
8
 73
4
 74
0
 40
0
 40
0
 40
0
 40
0
 40
1
 40
1
 40
1
 40
1
 10
84.129895
 20
231.079538
 30
0.0
 10
84.763030
 20
231.166696
 30
0.0
 10
85.322115
 20
231.478126
 30
0.0
 10
85.727435
 20
231.930213
 30
0.0
  0
SPLINE
  5
2a0
100
AcDbEntity
  8
Capa_1
 62
7
100
AcDbSpline
 70
8
 71
3
 72
8
 73
4
 74
0
 40
0
 40
0
 40
0
 40
0
 40
1
 40
1
 40
1
 40
1
 10
85.727435
 20
231.930213
 30
0.0
 10
86.223100
 20
231.725782
 30
0.0
 10
86.638340
 20
231.612052
 30
0.0
 10
86.943393
 20
231.612052
 30
0.0
  0
SPLINE
  5
2a1
100
AcDbEntity
  8
Capa_1
 62
7
100
AcDbSpline
 70
8
 71
3
 72
8
 73
4
 74
0
 40
0
 40
0
 40
0
 40
0
 40
1
 40
1
 40
1
 40
1
 10
86.943393
 20
231.612052
 30
0.0
 10
87.074129
 20
231.612052
 30
0.0
 10
87.184671
 20
231.632247
 30
0.0
 10
87.271474
 20
231.672283
 30
0.0
  0
SPLINE
  5
2a2
100
AcDbEntity
  8
Capa_1
 62
7
100
AcDbSpline
 70
8
 71
3
 72
8
 73
4
 74
0
 40
0
 40
0
 40
0
 40
0
 40
1
 40
1
 40
1
 40
1
 10
87.271474
 20
231.672283
 30
0.0
 10
87.428784
 20
231.745977
 30
0.0
 10
87.525862
 20
231.886634
 30
0.0
 10
87.542868
 20
232.054218
 30
0.0
  0
SPLINE
  5
2a3
100
AcDbEntity
  8
Capa_1
 62
7
100
AcDbSpline
 70
8
 71
3
 72
8
 73
4
 74
0
 40
0
 40
0
 40
0
 40
0
 40
1
 40
1
 40
1
 40
1
 10
87.542868
 20
232.054218
 30
0.0
 10
87.579716
 20
232.492842
 30
0.0
 10
87.033739
 20
233.062556
 30
0.0
 10
86.404148
 20
233.571331
 30
0.0
  0
SPLINE
  5
2a4
100
AcDbEntity
  8
Capa_1
 62
7
100
AcDbSpline
 70
8
 71
3
 72
8
 73
4
 74
0
 40
0
 40
0
 40
0
 40
0
 40
1
 40
1
 40
1
 40
1
 10
86.404148
 20
233.571331
 30
0.0
 10
86.404148
 20
233.614910
 30
0.0
 10
86.410879
 20
233.654946
 30
0.0
 10
86.410879
 20
233.698525
 30
0.0
  0
SPLINE
  5
2a5
100
AcDbEntity
  8
Capa_1
 62
7
100
AcDbSpline
 70
8
 71
3
 72
8
 73
4
 74
0
 40
0
 40
0
 40
0
 40
0
 40
1
 40
1
 40
1
 40
1
 10
86.410879
 20
233.698525
 30
0.0
 10
86.410879
 20
234.060265
 30
0.0
 10
86.337185
 20
234.401811
 30
0.0
 10
86.206448
 20
234.716784
 30
0.0
  0
SPLINE
  5
2a6
100
AcDbEntity
  8
Capa_1
 62
7
100
AcDbSpline
 70
8
 71
3
 72
8
 73
4
 74
0
 40
0
 40
0
 40
0
 40
0
 40
1
 40
1
 40
1
 40
1
 10
86.206448
 20
234.716784
 30
0.0
 10
87.566252
 20
235.899083
 30
0.0
 10
87.311865
 20
236.284207
 30
0.0
 10
87.214786
 20
236.431596
 30
0.0
  0
SPLINE
  5
2a7
100
AcDbEntity
  8
Capa_1
 62
7
100
AcDbSpline
 70
8
 71
3
 72
8
 73
4
 74
0
 40
0
 40
0
 40
0
 40
0
 40
1
 40
1
 40
1
 40
1
 10
87.214786
 20
236.431596
 30
0.0
 10
86.903357
 20
236.890415
 30
0.0
 10
85.905293
 20
236.585717
 30
0.0
 10
84.963918
 20
236.053204
 30
0.0
  0
SPLINE
  5
2a8
100
AcDbEntity
  8
Capa_1
 62
7
100
AcDbSpline
 70
8
 71
3
 72
8
 73
4
 74
0
 40
0
 40
0
 40
0
 40
0
 40
1
 40
1
 40
1
 40
1
 10
84.963918
 20
236.053204
 30
0.0
 10
84.602177
 20
236.237440
 30
0.0
 10
84.196858
 20
236.344438
 30
0.0
 10
83.761423
 20
236.344438
 30
0.0
  0
SPLINE
  5
2a9
100
AcDbEntity
  8
Capa_1
 62
7
100
AcDbSpline
 70
8
 71
3
 72
8
 73
4
 74
0
 40
0
 40
0
 40
0
 40
0
 40
1
 40
1
 40
1
 40
1
 10
83.761423
 20
236.344438
 30
0.0
 10
83.349372
 20
236.344438
 30
0.0
 10
82.961059
 20
236.247360
 30
0.0
 10
82.612428
 20
236.079776
 30
0.0
  0
SPLINE
  5
2aa
100
AcDbEntity
  8
Capa_1
 62
7
100
AcDbSpline
 70
8
 71
3
 72
8
 73
4
 74
0
 40
0
 40
0
 40
0
 40
0
 40
1
 40
1
 40
1
 40
1
 10
82.612428
 20
236.079776
 30
0.0
 10
81.684516
 20
236.595637
 30
0.0
 10
80.716568
 20
236.883683
 30
0.0
 10
80.408681
 20
236.431596
 30
0.0
  0
SPLINE
  5
2ab
100
AcDbEntity
  8
Capa_1
 62
7
100
AcDbSpline
 70
8
 71
3
 72
8
 73
4
 74
0
 40
0
 40
0
 40
0
 40
0
 40
1
 40
1
 40
1
 40
1
 10
80.408681
 20
236.431596
 30
0.0
 10
80.311603
 20
236.287396
 30
0.0
 10
80.063593
 20
235.912546
 30
0.0
 10
81.346514
 20
234.777015
 30
0.0
  0
SPLINE
  5
2ac
100
AcDbEntity
  8
Capa_1
 62
7
100
AcDbSpline
 70
8
 71
3
 72
8
 73
4
 74
0
 40
0
 40
0
 40
0
 40
0
 40
1
 40
1
 40
1
 40
1
 10
81.346514
 20
234.777015
 30
0.0
 10
81.199125
 20
234.445390
 30
0.0
 10
81.115510
 20
234.083649
 30
0.0
 10
81.115510
 20
233.698525
 30
0.0
  0
SPLINE
  5
2ad
100
AcDbEntity
  8
Capa_1
 62
7
100
AcDbSpline
 70
8
 71
3
 72
8
 73
4
 74
0
 40
0
 40
0
 40
0
 40
0
 40
1
 40
1
 40
1
 40
1
 10
81.115510
 20
233.698525
 30
0.0
 10
81.115510
 20
233.631562
 30
0.0
 10
81.122242
 20
233.561057
 30
0.0
 10
81.125430
 20
233.494094
 30
0.0
  0
SPLINE
  5
2ae
100
AcDbEntity
  8
Capa_1
 62
7
100
AcDbSpline
 70
8
 71
3
 72
8
 73
4
 74
0
 40
0
 40
0
 40
0
 40
0
 40
1
 40
1
 40
1
 40
1
 10
81.125430
 20
233.494094
 30
0.0
 10
80.535875
 20
233.008348
 30
0.0
 10
80.046941
 20
232.469104
 30
0.0
 10
80.080599
 20
232.053864
 30
0.0
  0
SPLINE
  5
2af
100
AcDbEntity
  8
Capa_1
 62
7
100
AcDbSpline
 70
8
 71
3
 72
8
 73
4
 74
0
 40
0
 40
0
 40
0
 40
0
 40
1
 40
1
 40
1
 40
1
 10
80.080599
 20
232.053864
 30
0.0
 10
80.097251
 20
231.886280
 30
0.0
 10
80.194330
 20
231.745623
 30
0.0
 10
80.351993
 20
231.671928
 30
0.0
  0
SPLINE
  5
2b0
100
AcDbEntity
  8
Capa_1
 62
7
100
AcDbSpline
 70
8
 71
3
 72
8
 73
4
 74
0
 40
0
 40
0
 40
0
 40
0
 40
1
 40
1
 40
1
 40
1
 10
80.351993
 20
231.671928
 30
0.0
 10
80.439151
 20
231.631892
 30
0.0
 10
80.549693
 20
231.611697
 30
0.0
 10
80.680075
 20
231.611697
 30
0.0
  0
SPLINE
  5
2b1
100
AcDbEntity
  8
Capa_1
 62
7
100
AcDbSpline
 70
8
 71
3
 72
8
 73
4
 74
0
 40
0
 40
0
 40
0
 40
0
 40
1
 40
1
 40
1
 40
1
 10
80.680075
 20
231.611697
 30
0.0
 10
80.971310
 20
231.611697
 30
0.0
 10
81.359977
 20
231.712319
 30
0.0
 10
81.825527
 20
231.899743
 30
0.0
  0
SPLINE
  5
2b2
100
AcDbEntity
  8
Capa_1
 62
7
100
AcDbSpline
 70
8
 71
3
 72
8
 73
4
 74
0
 40
0
 40
0
 40
0
 40
0
 40
1
 40
1
 40
1
 40
1
 10
81.825527
 20
231.899743
 30
0.0
 10
82.230847
 20
231.464308
 30
0.0
 10
82.780012
 20
231.166342
 30
0.0
 10
83.396494
 20
231.079184
 30
0.0
  0
LWPOLYLINE
  5
2b3
100
AcDbEntity
  8
Capa_1
 62
7
100
AcDbPolyline
 90
3
 70
0
 10
83.577187
 20
224.551913
 30
0.0
 10
84.129895
 20
224.230209
 30
0.0
 10
84.129895
 20
231.079538
 30
0.0
  0
SPLINE
  5
2b4
100
AcDbEntity
  8
Capa_1
 62
7
100
AcDbSpline
 70
8
 71
3
 72
8
 73
4
 74
0
 40
0
 40
0
 40
0
 40
0
 40
1
 40
1
 40
1
 40
1
 10
83.396494
 20
225.522695
 30
0.0
 10
79.260040
 20
228.182072
 30
0.0
 10
76.717937
 20
232.804271
 30
0.0
 10
76.717937
 20
237.741089
 30
0.0
  0
SPLINE
  5
2b5
100
AcDbEntity
  8
Capa_1
 62
7
100
AcDbSpline
 70
8
 71
3
 72
8
 73
4
 74
0
 40
0
 40
0
 40
0
 40
0
 40
1
 40
1
 40
1
 40
1
 10
76.717937
 20
237.741089
 30
0.0
 10
76.717937
 20
245.742603
 30
0.0
 10
83.229264
 20
252.250742
 30
0.0
 10
91.230778
 20
252.250742
 30
0.0
  0
SPLINE
  5
2b6
100
AcDbEntity
  8
Capa_1
 62
7
100
AcDbSpline
 70
8
 71
3
 72
8
 73
4
 74
0
 40
0
 40
0
 40
0
 40
0
 40
1
 40
1
 40
1
 40
1
 10
91.230778
 20
252.250742
 30
0.0
 10
99.232292
 20
252.250742
 30
0.0
 10
105.740431
 20
245.742958
 30
0.0
 10
105.740431
 20
237.741089
 30
0.0
  0
SPLINE
  5
2b7
100
AcDbEntity
  8
Capa_1
 62
7
100
AcDbSpline
 70
8
 71
3
 72
8
 73
4
 74
0
 40
0
 40
0
 40
0
 40
0
 40
1
 40
1
 40
1
 40
1
 10
105.740431
 20
237.741089
 30
0.0
 10
105.740431
 20
232.804271
 30
0.0
 10
103.198328
 20
228.182072
 30
0.0
 10
99.065063
 20
225.522695
 30
0.0
  0
LWPOLYLINE
  5
2b8
100
AcDbEntity
  8
Capa_1
 62
7
100
AcDbPolyline
 90
2
 70
0
 10
83.396494
 20
231.079184
 30
0.0
 10
83.396494
 20
225.522695
 30
0.0
  0
SPLINE
  5
2b9
100
AcDbEntity
  8
Capa_1
 62
7
100
AcDbSpline
 70
8
 71
3
 72
8
 73
4
 74
0
 40
0
 40
0
 40
0
 40
0
 40
1
 40
1
 40
1
 40
1
 10
99.513961
 20
239.358824
 30
0.0
 10
99.684733
 20
239.415866
 30
0.0
 10
99.848774
 20
239.482829
 30
0.0
 10
100.006438
 20
239.576364
 30
0.0
  0
SPLINE
  5
2ba
100
AcDbEntity
  8
Capa_1
 62
7
100
AcDbSpline
 70
8
 71
3
 72
8
 73
4
 74
0
 40
0
 40
0
 40
0
 40
0
 40
1
 40
1
 40
1
 40
1
 10
100.006438
 20
239.576364
 30
0.0
 10
100.157016
 20
239.663522
 30
0.0
 10
100.291295
 20
239.760600
 30
0.0
 10
100.414946
 20
239.871142
 30
0.0
  0
LWPOLYLINE
  5
2bb
100
AcDbEntity
  8
Capa_1
 62
7
100
AcDbPolyline
 90
4
 70
0
 10
99.065063
 20
225.522695
 30
0.0
 10
99.065063
 20
238.089366
 30
0.0
 10
99.517150
 20
238.089366
 30
0.0
 10
99.513961
 20
239.358824
 30
0.0
  0
SPLINE
  5
2bc
100
AcDbEntity
  8
Capa_1
 62
7
100
AcDbSpline
 70
8
 71
3
 72
8
 73
4
 74
0
 40
0
 40
0
 40
0
 40
0
 40
1
 40
1
 40
1
 40
1
 10
101.242237
 20
241.294365
 30
0.0
 10
101.312743
 20
241.635911
 30
0.0
 10
101.315931
 20
241.994462
 30
0.0
 10
101.242237
 20
242.345928
 30
0.0
  0
LWPOLYLINE
  5
2bd
100
AcDbEntity
  8
Capa_1
 62
7
100
AcDbPolyline
 90
4
 70
0
 10
100.414946
 20
239.871142
 30
0.0
 10
101.506899
 20
239.244739
 30
0.0
 10
102.327458
 20
240.671506
 30
0.0
 10
101.242237
 20
241.294365
 30
0.0
  0
SPLINE
  5
2be
100
AcDbEntity
  8
Capa_1
 62
7
100
AcDbSpline
 70
8
 71
3
 72
8
 73
4
 74
0
 40
0
 40
0
 40
0
 40
0
 40
1
 40
1
 40
1
 40
1
 10
100.418489
 20
243.769506
 30
0.0
 10
100.147095
 20
244.004053
 30
0.0
 10
99.835665
 20
244.178014
 30
0.0
 10
99.500852
 20
244.285367
 30
0.0
  0
LWPOLYLINE
  5
2bf
100
AcDbEntity
  8
Capa_1
 62
7
100
AcDbPolyline
 90
4
 70
0
 10
101.242237
 20
242.345928
 30
0.0
 10
102.317538
 20
242.968788
 30
0.0
 10
101.490247
 20
244.392365
 30
0.0
 10
100.418489
 20
243.769506
 30
0.0
  0
SPLINE
  5
2c0
100
AcDbEntity
  8
Capa_1
 62
7
100
AcDbSpline
 70
8
 71
3
 72
8
 73
4
 74
0
 40
0
 40
0
 40
0
 40
0
 40
1
 40
1
 40
1
 40
1
 10
97.856191
 20
244.275446
 30
0.0
 10
97.698881
 20
244.221947
 30
0.0
 10
97.544761
 20
244.151441
 30
0.0
 10
97.397372
 20
244.064284
 30
0.0
  0
SPLINE
  5
2c1
100
AcDbEntity
  8
Capa_1
 62
7
100
AcDbSpline
 70
8
 71
3
 72
8
 73
4
 74
0
 40
0
 40
0
 40
0
 40
0
 40
1
 40
1
 40
1
 40
1
 10
97.397372
 20
244.064284
 30
0.0
 10
97.240063
 20
243.973937
 30
0.0
 10
97.092674
 20
243.866584
 30
0.0
 10
96.961937
 20
243.746122
 30
0.0
  0
LWPOLYLINE
  5
2c2
100
AcDbEntity
  8
Capa_1
 62
7
100
AcDbPolyline
 90
4
 70
0
 10
99.500852
 20
244.285367
 30
0.0
 10
99.497663
 20
245.538172
 30
0.0
 10
97.853002
 20
245.531440
 30
0.0
 10
97.856191
 20
244.275446
 30
0.0
  0
SPLINE
  5
2c3
100
AcDbEntity
  8
Capa_1
 62
7
100
AcDbSpline
 70
8
 71
3
 72
8
 73
4
 74
0
 40
0
 40
0
 40
0
 40
0
 40
1
 40
1
 40
1
 40
1
 10
96.154487
 20
242.312624
 30
0.0
 10
96.087524
 20
241.971078
 30
0.0
 10
96.090713
 20
241.625990
 30
0.0
 10
96.161219
 20
241.294365
 30
0.0
  0
LWPOLYLINE
  5
2c4
100
AcDbEntity
  8
Capa_1
 62
7
100
AcDbPolyline
 90
4
 70
0
 10
96.961937
 20
243.746122
 30
0.0
 10
95.863252
 20
244.375713
 30
0.0
 10
95.045882
 20
242.948947
 30
0.0
 10
96.154487
 20
242.312624
 30
0.0
  0
SPLINE
  5
2c5
100
AcDbEntity
  8
Capa_1
 62
7
100
AcDbSpline
 70
8
 71
3
 72
8
 73
4
 74
0
 40
0
 40
0
 40
0
 40
0
 40
1
 40
1
 40
1
 40
1
 10
96.985321
 20
239.871142
 30
0.0
 10
97.243251
 20
239.646870
 30
0.0
 10
97.541218
 20
239.475743
 30
0.0
 10
97.869654
 20
239.362012
 30
0.0
  0
LWPOLYLINE
  5
2c6
100
AcDbEntity
  8
Capa_1
 62
7
100
AcDbPolyline
 90
4
 70
0
 10
96.161219
 20
241.294365
 30
0.0
 10
95.055802
 20
240.651311
 30
0.0
 10
95.879904
 20
239.231276
 30
0.0
 10
96.985321
 20
239.871142
 30
0.0
  0
SPLINE
  5
2c7
100
AcDbEntity
  8
Capa_1
 62
7
100
AcDbSpline
 70
8
 71
3
 72
8
 73
4
 74
0
 40
0
 40
0
 40
0
 40
0
 40
1
 40
1
 40
1
 40
1
 10
98.881181
 20
224.551204
 30
0.0
 10
103.566800
 20
227.274355
 30
0.0
 10
106.474187
 20
232.328446
 30
0.0
 10
106.474187
 20
237.741089
 30
0.0
  0
SPLINE
  5
2c8
100
AcDbEntity
  8
Capa_1
 62
7
100
AcDbSpline
 70
8
 71
3
 72
8
 73
4
 74
0
 40
0
 40
0
 40
0
 40
0
 40
1
 40
1
 40
1
 40
1
 10
106.474187
 20
237.741089
 30
0.0
 10
106.474187
 20
246.144734
 30
0.0
 10
99.637966
 20
252.984143
 30
0.0
 10
91.231133
 20
252.984143
 30
0.0
  0
LWPOLYLINE
  5
2c9
100
AcDbEntity
  8
Capa_1
 62
7
100
AcDbPolyline
 90
5
 70
0
 10
97.869654
 20
239.362012
 30
0.0
 10
97.872843
 20
238.082635
 30
0.0
 10
98.328473
 20
238.085823
 30
0.0
 10
98.328473
 20
224.229500
 30
0.0
 10
98.881181
 20
224.551204
 30
0.0
  0
SPLINE
  5
2ca
100
AcDbEntity
  8
Capa_1
 62
7
100
AcDbSpline
 70
8
 71
3
 72
8
 73
4
 74
0
 40
0
 40
0
 40
0
 40
0
 40
1
 40
1
 40
1
 40
1
 10
86.310258
 20
232.989216
 30
0.0
 10
86.849503
 20
232.520123
 30
0.0
 10
87.017087
 20
232.228888
 30
0.0
 10
87.036928
 20
232.121889
 30
0.0
  0
SPLINE
  5
2cb
100
AcDbEntity
  8
Capa_1
 62
7
100
AcDbSpline
 70
8
 71
3
 72
8
 73
4
 74
0
 40
0
 40
0
 40
0
 40
0
 40
1
 40
1
 40
1
 40
1
 10
87.036928
 20
232.121889
 30
0.0
 10
86.936307
 20
232.094963
 30
0.0
 10
86.618145
 20
232.118701
 30
0.0
 10
86.035321
 20
232.349704
 30
0.0
  0
SPLINE
  5
2cc
100
AcDbEntity
  8
Capa_1
 62
7
100
AcDbSpline
 70
8
 71
3
 72
8
 73
4
 74
0
 40
0
 40
0
 40
0
 40
0
 40
1
 40
1
 40
1
 40
1
 10
86.035321
 20
232.349704
 30
0.0
 10
86.152595
 20
232.547404
 30
0.0
 10
86.246484
 20
232.761755
 30
0.0
 10
86.309904
 20
232.989570
 30
0.0
  0
LWPOLYLINE
  5
2cd
100
AcDbEntity
  8
Capa_1
 62
7
100
AcDbPolyline
 90
2
 70
0
 10
91.231133
 20
252.984143
 30
0.0
 10
91.230424
 20
252.984852
 30
0.0
  0
SPLINE
  5
2ce
100
AcDbEntity
  8
Capa_1
 62
7
100
AcDbSpline
 70
8
 71
3
 72
8
 73
4
 74
0
 40
0
 40
0
 40
0
 40
0
 40
1
 40
1
 40
1
 40
1
 10
86.782540
 20
236.147802
 30
0.0
 10
86.762345
 20
236.064187
 30
0.0
 10
86.641883
 20
235.776141
 30
0.0
 10
85.961981
 20
235.173122
 30
0.0
  0
SPLINE
  5
2cf
100
AcDbEntity
  8
Capa_1
 62
7
100
AcDbSpline
 70
8
 71
3
 72
8
 73
4
 74
0
 40
0
 40
0
 40
0
 40
0
 40
1
 40
1
 40
1
 40
1
 10
85.961981
 20
235.173122
 30
0.0
 10
85.818135
 20
235.384285
 30
0.0
 10
85.643820
 20
235.578441
 30
0.0
 10
85.446120
 20
235.739294
 30
0.0
  0
SPLINE
  5
2d0
100
AcDbEntity
  8
Capa_1
 62
7
100
AcDbSpline
 70
8
 71
3
 72
8
 73
4
 74
0
 40
0
 40
0
 40
0
 40
0
 40
1
 40
1
 40
1
 40
1
 10
85.446120
 20
235.739294
 30
0.0
 10
86.146217
 20
236.101034
 30
0.0
 10
86.638340
 20
236.184649
 30
0.0
 10
86.782540
 20
236.147802
 30
0.0
  0
LWPOLYLINE
  5
2d1
100
AcDbEntity
  8
Capa_1
 62
7
100
AcDbPolyline
 90
2
 70
0
 10
86.309904
 20
232.989570
 30
0.0
 10
86.310258
 20
232.989216
 30
0.0
  0
SPLINE
  5
2d2
100
AcDbEntity
  8
Capa_1
 62
7
100
AcDbSpline
 70
8
 71
3
 72
8
 73
4
 74
0
 40
0
 40
0
 40
0
 40
0
 40
1
 40
1
 40
1
 40
1
 10
85.131147
 20
233.866818
 30
0.0
 10
85.137879
 20
233.813318
 30
0.0
 10
85.147800
 20
233.756276
 30
0.0
 10
85.147800
 20
233.699234
 30
0.0
  0
SPLINE
  5
2d3
100
AcDbEntity
  8
Capa_1
 62
7
100
AcDbSpline
 70
8
 71
3
 72
8
 73
4
 74
0
 40
0
 40
0
 40
0
 40
0
 40
1
 40
1
 40
1
 40
1
 10
85.147800
 20
233.699234
 30
0.0
 10
85.147800
 20
233.404456
 30
0.0
 10
85.050721
 20
233.129873
 30
0.0
 10
84.893412
 20
232.905601
 30
0.0
  0
SPLINE
  5
2d4
100
AcDbEntity
  8
Capa_1
 62
7
100
AcDbSpline
 70
8
 71
3
 72
8
 73
4
 74
0
 40
0
 40
0
 40
0
 40
0
 40
1
 40
1
 40
1
 40
1
 10
84.893412
 20
232.905601
 30
0.0
 10
84.702444
 20
233.012954
 30
0.0
 10
84.494824
 20
233.136605
 30
0.0
 10
84.273741
 20
233.270530
 30
0.0
  0
SPLINE
  5
2d5
100
AcDbEntity
  8
Capa_1
 62
7
100
AcDbSpline
 70
8
 71
3
 72
8
 73
4
 74
0
 40
0
 40
0
 40
0
 40
0
 40
1
 40
1
 40
1
 40
1
 10
84.273741
 20
233.270530
 30
0.0
 10
84.404478
 20
233.357688
 30
0.0
 10
84.531672
 20
233.441303
 30
0.0
 10
84.665597
 20
233.535193
 30
0.0
  0
SPLINE
  5
2d6
100
AcDbEntity
  8
Capa_1
 62
7
100
AcDbSpline
 70
8
 71
3
 72
8
 73
4
 74
0
 40
0
 40
0
 40
0
 40
0
 40
1
 40
1
 40
1
 40
1
 10
84.665597
 20
233.535193
 30
0.0
 10
84.829638
 20
233.652466
 30
0.0
 10
84.983759
 20
233.759465
 30
0.0
 10
85.131147
 20
233.866818
 30
0.0
  0
LWPOLYLINE
  5
2d7
100
AcDbEntity
  8
Capa_1
 62
7
100
AcDbPolyline
 90
1
 70
1
 10
86.782540
 20
236.147802
 30
0.0
  0
SPLINE
  5
2d8
100
AcDbEntity
  8
Capa_1
 62
7
100
AcDbSpline
 70
8
 71
3
 72
8
 73
4
 74
0
 40
0
 40
0
 40
0
 40
0
 40
1
 40
1
 40
1
 40
1
 10
83.761069
 20
235.082776
 30
0.0
 10
84.280119
 20
235.082776
 30
0.0
 10
84.725828
 20
234.794730
 30
0.0
 10
84.963563
 20
234.372758
 30
0.0
  0
SPLINE
  5
2d9
100
AcDbEntity
  8
Capa_1
 62
7
100
AcDbSpline
 70
8
 71
3
 72
8
 73
4
 74
0
 40
0
 40
0
 40
0
 40
0
 40
1
 40
1
 40
1
 40
1
 10
84.963563
 20
234.372758
 30
0.0
 10
84.786059
 20
234.238833
 30
0.0
 10
84.591903
 20
234.101364
 30
0.0
 10
84.374008
 20
233.950787
 30
0.0
  0
SPLINE
  5
2da
100
AcDbEntity
  8
Capa_1
 62
7
100
AcDbSpline
 70
8
 71
3
 72
8
 73
4
 74
0
 40
0
 40
0
 40
0
 40
0
 40
1
 40
1
 40
1
 40
1
 10
84.374008
 20
233.950787
 30
0.0
 10
84.176309
 20
233.810130
 30
0.0
 10
83.992073
 20
233.686124
 30
0.0
 10
83.811379
 20
233.568851
 30
0.0
  0
SPLINE
  5
2db
100
AcDbEntity
  8
Capa_1
 62
7
100
AcDbSpline
 70
8
 71
3
 72
8
 73
4
 74
0
 40
0
 40
0
 40
0
 40
0
 40
1
 40
1
 40
1
 40
1
 10
83.811379
 20
233.568851
 30
0.0
 10
83.630332
 20
233.686124
 30
0.0
 10
83.442907
 20
233.810130
 30
0.0
 10
83.245208
 20
233.950787
 30
0.0
  0
SPLINE
  5
2dc
100
AcDbEntity
  8
Capa_1
 62
7
100
AcDbSpline
 70
8
 71
3
 72
8
 73
4
 74
0
 40
0
 40
0
 40
0
 40
0
 40
1
 40
1
 40
1
 40
1
 10
83.245208
 20
233.950787
 30
0.0
 10
83.003930
 20
234.118371
 30
0.0
 10
82.786389
 20
234.275680
 30
0.0
 10
82.588690
 20
234.423069
 30
0.0
  0
SPLINE
  5
2dd
100
AcDbEntity
  8
Capa_1
 62
7
100
AcDbSpline
 70
8
 71
3
 72
8
 73
4
 74
0
 40
0
 40
0
 40
0
 40
0
 40
1
 40
1
 40
1
 40
1
 10
82.588690
 20
234.423069
 30
0.0
 10
82.833157
 20
234.818468
 30
0.0
 10
83.265403
 20
235.082776
 30
0.0
 10
83.761069
 20
235.082776
 30
0.0
  0
LWPOLYLINE
  5
2de
100
AcDbEntity
  8
Capa_1
 62
7
100
AcDbPolyline
 90
1
 70
1
 10
85.131147
 20
233.866818
 30
0.0
  0
SPLINE
  5
2df
100
AcDbEntity
  8
Capa_1
 62
7
100
AcDbSpline
 70
8
 71
3
 72
8
 73
4
 74
0
 40
0
 40
0
 40
0
 40
0
 40
1
 40
1
 40
1
 40
1
 10
80.585831
 20
232.121889
 30
0.0
 10
80.602483
 20
232.225699
 30
0.0
 10
80.753415
 20
232.493550
 30
0.0
 10
81.232429
 20
232.922253
 30
0.0
  0
SPLINE
  5
2e0
100
AcDbEntity
  8
Capa_1
 62
7
100
AcDbSpline
 70
8
 71
3
 72
8
 73
4
 74
0
 40
0
 40
0
 40
0
 40
0
 40
1
 40
1
 40
1
 40
1
 10
81.232429
 20
232.922253
 30
0.0
 10
81.299392
 20
232.707902
 30
0.0
 10
81.393281
 20
232.507014
 30
0.0
 10
81.507012
 20
232.319235
 30
0.0
  0
SPLINE
  5
2e1
100
AcDbEntity
  8
Capa_1
 62
7
100
AcDbSpline
 70
8
 71
3
 72
8
 73
4
 74
0
 40
0
 40
0
 40
0
 40
0
 40
1
 40
1
 40
1
 40
1
 10
81.507012
 20
232.319235
 30
0.0
 10
80.974498
 20
232.114803
 30
0.0
 10
80.682909
 20
232.094963
 30
0.0
 10
80.585831
 20
232.121535
 30
0.0
  0
LWPOLYLINE
  5
2e2
100
AcDbEntity
  8
Capa_1
 62
7
100
AcDbPolyline
 90
1
 70
1
 10
83.761069
 20
235.082776
 30
0.0
  0
SPLINE
  5
2e3
100
AcDbEntity
  8
Capa_1
 62
7
100
AcDbSpline
 70
8
 71
3
 72
8
 73
4
 74
0
 40
0
 40
0
 40
0
 40
0
 40
1
 40
1
 40
1
 40
1
 10
81.604090
 20
235.223433
 30
0.0
 10
80.974498
 20
235.792793
 30
0.0
 10
80.860414
 20
236.064187
 30
0.0
 10
80.840573
 20
236.147802
 30
0.0
  0
SPLINE
  5
2e4
100
AcDbEntity
  8
Capa_1
 62
7
100
AcDbSpline
 70
8
 71
3
 72
8
 73
4
 74
0
 40
0
 40
0
 40
0
 40
0
 40
1
 40
1
 40
1
 40
1
 10
80.840573
 20
236.147802
 30
0.0
 10
80.981230
 20
236.184649
 30
0.0
 10
81.446780
 20
236.107766
 30
0.0
 10
82.119951
 20
235.769409
 30
0.0
  0
SPLINE
  5
2e5
100
AcDbEntity
  8
Capa_1
 62
7
100
AcDbSpline
 70
8
 71
3
 72
8
 73
4
 74
0
 40
0
 40
0
 40
0
 40
0
 40
1
 40
1
 40
1
 40
1
 10
82.119951
 20
235.769409
 30
0.0
 10
81.922251
 20
235.615289
 30
0.0
 10
81.748290
 20
235.431053
 30
0.0
 10
81.604090
 20
235.223433
 30
0.0
  0
LWPOLYLINE
  5
2e6
100
AcDbEntity
  8
Capa_1
 62
7
100
AcDbPolyline
 90
2
 70
0
 10
80.585831
 20
232.121535
 30
0.0
 10
80.585831
 20
232.121889
 30
0.0
  0
SPLINE
  5
2e7
100
AcDbEntity
  8
Capa_1
 62
7
100
AcDbSpline
 70
8
 71
3
 72
8
 73
4
 74
0
 40
0
 40
0
 40
0
 40
0
 40
1
 40
1
 40
1
 40
1
 10
82.377881
 20
233.699588
 30
0.0
 10
82.377881
 20
233.780014
 30
0.0
 10
82.387802
 20
233.856897
 30
0.0
 10
82.401265
 20
233.934135
 30
0.0
  0
SPLINE
  5
2e8
100
AcDbEntity
  8
Capa_1
 62
7
100
AcDbSpline
 70
8
 71
3
 72
8
 73
4
 74
0
 40
0
 40
0
 40
0
 40
0
 40
1
 40
1
 40
1
 40
1
 10
82.401265
 20
233.934135
 30
0.0
 10
82.572038
 20
233.806941
 30
0.0
 10
82.756274
 20
233.676204
 30
0.0
 10
82.957162
 20
233.535547
 30
0.0
  0
SPLINE
  5
2e9
100
AcDbEntity
  8
Capa_1
 62
7
100
AcDbSpline
 70
8
 71
3
 72
8
 73
4
 74
0
 40
0
 40
0
 40
0
 40
0
 40
1
 40
1
 40
1
 40
1
 10
82.957162
 20
233.535547
 30
0.0
 10
83.091087
 20
233.441657
 30
0.0
 10
83.218281
 20
233.358043
 30
0.0
 10
83.349018
 20
233.270885
 30
0.0
  0
SPLINE
  5
2ea
100
AcDbEntity
  8
Capa_1
 62
7
100
AcDbSpline
 70
8
 71
3
 72
8
 73
4
 74
0
 40
0
 40
0
 40
0
 40
0
 40
1
 40
1
 40
1
 40
1
 10
83.349018
 20
233.270885
 30
0.0
 10
83.101008
 20
233.120307
 30
0.0
 10
82.873547
 20
232.986027
 30
0.0
 10
82.662384
 20
232.869108
 30
0.0
  0
SPLINE
  5
2eb
100
AcDbEntity
  8
Capa_1
 62
7
100
AcDbSpline
 70
8
 71
3
 72
8
 73
4
 74
0
 40
0
 40
0
 40
0
 40
0
 40
1
 40
1
 40
1
 40
1
 10
82.662384
 20
232.869108
 30
0.0
 10
82.488069
 20
233.100112
 30
0.0
 10
82.377527
 20
233.384969
 30
0.0
 10
82.377527
 20
233.699588
 30
0.0
  0
LWPOLYLINE
  5
2ec
100
AcDbEntity
  8
Capa_1
 62
7
100
AcDbPolyline
 90
1
 70
1
 10
81.604090
 20
235.223433
 30
0.0
  0
SPLINE
  5
2ed
100
AcDbEntity
  8
Capa_1
 62
7
100
AcDbSpline
 70
8
 71
3
 72
8
 73
4
 74
0
 40
0
 40
0
 40
0
 40
0
 40
1
 40
1
 40
1
 40
1
 10
83.057783
 20
232.513745
 30
0.0
 10
83.299062
 20
232.651214
 30
0.0
 10
83.550260
 20
232.801791
 30
0.0
 10
83.811379
 20
232.969375
 30
0.0
  0
SPLINE
  5
2ee
100
AcDbEntity
  8
Capa_1
 62
7
100
AcDbSpline
 70
8
 71
3
 72
8
 73
4
 74
0
 40
0
 40
0
 40
0
 40
0
 40
1
 40
1
 40
1
 40
1
 10
83.811379
 20
232.969375
 30
0.0
 10
84.055847
 20
232.815255
 30
0.0
 10
84.290393
 20
232.671409
 30
0.0
 10
84.518208
 20
232.543861
 30
0.0
  0
SPLINE
  5
2ef
100
AcDbEntity
  8
Capa_1
 62
7
100
AcDbSpline
 70
8
 71
3
 72
8
 73
4
 74
0
 40
0
 40
0
 40
0
 40
0
 40
1
 40
1
 40
1
 40
1
 10
84.518208
 20
232.543861
 30
0.0
 10
84.300314
 20
232.400015
 30
0.0
 10
84.042737
 20
232.316046
 30
0.0
 10
83.761423
 20
232.316046
 30
0.0
  0
SPLINE
  5
2f0
100
AcDbEntity
  8
Capa_1
 62
7
100
AcDbSpline
 70
8
 71
3
 72
8
 73
4
 74
0
 40
0
 40
0
 40
0
 40
0
 40
1
 40
1
 40
1
 40
1
 10
83.761423
 20
232.316046
 30
0.0
 10
83.503493
 20
232.316046
 30
0.0
 10
83.265757
 20
232.389740
 30
0.0
 10
83.058137
 20
232.513745
 30
0.0
  0
LWPOLYLINE
  5
2f1
100
AcDbEntity
  8
Capa_1
 62
7
100
AcDbPolyline
 90
2
 70
0
 10
82.377527
 20
233.699588
 30
0.0
 10
82.377881
 20
233.699588
 30
0.0
  0
SPLINE
  5
2f2
100
AcDbEntity
  8
Capa_1
 62
7
100
AcDbSpline
 70
8
 71
3
 72
8
 73
4
 74
0
 40
0
 40
0
 40
0
 40
0
 40
1
 40
1
 40
1
 40
1
 10
98.702614
 20
240.488687
 30
0.0
 10
98.588883
 20
240.488687
 30
0.0
 10
98.474799
 20
240.502150
 30
0.0
 10
98.361068
 20
240.532266
 30
0.0
  0
SPLINE
  5
2f3
100
AcDbEntity
  8
Capa_1
 62
7
100
AcDbSpline
 70
8
 71
3
 72
8
 73
4
 74
0
 40
0
 40
0
 40
0
 40
0
 40
1
 40
1
 40
1
 40
1
 10
98.361068
 20
240.532266
 30
0.0
 10
98.015980
 20
240.622612
 30
0.0
 10
97.727934
 20
240.843695
 30
0.0
 10
97.547241
 20
241.151937
 30
0.0
  0
SPLINE
  5
2f4
100
AcDbEntity
  8
Capa_1
 62
7
100
AcDbSpline
 70
8
 71
3
 72
8
 73
4
 74
0
 40
0
 40
0
 40
0
 40
0
 40
1
 40
1
 40
1
 40
1
 10
97.547241
 20
241.151937
 30
0.0
 10
97.369736
 20
241.460178
 30
0.0
 10
97.319426
 20
241.818375
 30
0.0
 10
97.413315
 20
242.163463
 30
0.0
  0
SPLINE
  5
2f5
100
AcDbEntity
  8
Capa_1
 62
7
100
AcDbSpline
 70
8
 71
3
 72
8
 73
4
 74
0
 40
0
 40
0
 40
0
 40
0
 40
1
 40
1
 40
1
 40
1
 10
97.413315
 20
242.163463
 30
0.0
 10
97.503662
 20
242.508552
 30
0.0
 10
97.724745
 20
242.796598
 30
0.0
 10
98.029443
 20
242.974102
 30
0.0
  0
SPLINE
  5
2f6
100
AcDbEntity
  8
Capa_1
 62
7
100
AcDbSpline
 70
8
 71
3
 72
8
 73
4
 74
0
 40
0
 40
0
 40
0
 40
0
 40
1
 40
1
 40
1
 40
1
 10
98.029443
 20
242.974102
 30
0.0
 10
98.237063
 20
243.094564
 30
0.0
 10
98.468067
 20
243.158338
 30
0.0
 10
98.699425
 20
243.158338
 30
0.0
  0
SPLINE
  5
2f7
100
AcDbEntity
  8
Capa_1
 62
7
100
AcDbSpline
 70
8
 71
3
 72
8
 73
4
 74
0
 40
0
 40
0
 40
0
 40
0
 40
1
 40
1
 40
1
 40
1
 10
98.699425
 20
243.158338
 30
0.0
 10
98.813155
 20
243.158338
 30
0.0
 10
98.930429
 20
243.141686
 30
0.0
 10
99.044513
 20
243.111571
 30
0.0
  0
SPLINE
  5
2f8
100
AcDbEntity
  8
Capa_1
 62
7
100
AcDbSpline
 70
8
 71
3
 72
8
 73
4
 74
0
 40
0
 40
0
 40
0
 40
0
 40
1
 40
1
 40
1
 40
1
 10
99.044513
 20
243.111571
 30
0.0
 10
99.386058
 20
243.021224
 30
0.0
 10
99.677647
 20
242.800141
 30
0.0
 10
99.855152
 20
242.491900
 30
0.0
  0
SPLINE
  5
2f9
100
AcDbEntity
  8
Capa_1
 62
7
100
AcDbSpline
 70
8
 71
3
 72
8
 73
4
 74
0
 40
0
 40
0
 40
0
 40
0
 40
1
 40
1
 40
1
 40
1
 10
99.855152
 20
242.491900
 30
0.0
 10
100.223624
 20
241.855577
 30
0.0
 10
100.009272
 20
241.038206
 30
0.0
 10
99.372949
 20
240.669734
 30
0.0
  0
SPLINE
  5
2fa
100
AcDbEntity
  8
Capa_1
 62
7
100
AcDbSpline
 70
8
 71
3
 72
8
 73
4
 74
0
 40
0
 40
0
 40
0
 40
0
 40
1
 40
1
 40
1
 40
1
 10
99.372949
 20
240.669734
 30
0.0
 10
99.165329
 20
240.549272
 30
0.0
 10
98.937515
 20
240.489041
 30
0.0
 10
98.702968
 20
240.489041
 30
0.0
  0
LWPOLYLINE
  5
2fb
100
AcDbEntity
  8
Capa_1
 62
7
100
AcDbPolyline
 90
2
 70
0
 10
83.058137
 20
232.513745
 30
0.0
 10
83.057783
 20
232.513745
 30
0.0
  0
SPLINE
  5
2fc
100
AcDbEntity
  8
Capa_1
 62
7
100
AcDbSpline
 70
8
 71
3
 72
8
 73
4
 74
0
 40
0
 40
0
 40
0
 40
0
 40
1
 40
1
 40
1
 40
1
 10
91.230424
 20
240.387711
 30
0.0
 10
89.769999
 20
240.387711
 30
0.0
 10
88.580968
 20
239.198680
 30
0.0
 10
88.580968
 20
237.741798
 30
0.0
  0
SPLINE
  5
2fd
100
AcDbEntity
  8
Capa_1
 62
7
100
AcDbSpline
 70
8
 71
3
 72
8
 73
4
 74
0
 40
0
 40
0
 40
0
 40
0
 40
1
 40
1
 40
1
 40
1
 10
88.580968
 20
237.741798
 30
0.0
 10
88.580968
 20
236.405378
 30
0.0
 10
89.575842
 20
235.299962
 30
0.0
 10
90.861952
 20
235.122457
 30
0.0
  0
LWPOLYLINE
  5
2fe
100
AcDbEntity
  8
Capa_1
 62
7
100
AcDbPolyline
 90
2
 70
0
 10
98.702968
 20
240.489041
 30
0.0
 10
98.702614
 20
240.488687
 30
0.0
  0
SPLINE
  5
2ff
100
AcDbEntity
  8
Capa_1
 62
7
100
AcDbSpline
 70
8
 71
3
 72
8
 73
4
 74
0
 40
0
 40
0
 40
0
 40
0
 40
1
 40
1
 40
1
 40
1
 10
91.595353
 20
235.122457
 30
0.0
 10
92.881463
 20
235.299962
 30
0.0
 10
93.876337
 20
236.405378
 30
0.0
 10
93.876337
 20
237.741798
 30
0.0
  0
SPLINE
  5
300
100
AcDbEntity
  8
Capa_1
 62
7
100
AcDbSpline
 70
8
 71
3
 72
8
 73
4
 74
0
 40
0
 40
0
 40
0
 40
0
 40
1
 40
1
 40
1
 40
1
 10
93.876337
 20
237.741798
 30
0.0
 10
93.876337
 20
239.198680
 30
0.0
 10
92.687306
 20
240.387711
 30
0.0
 10
91.230424
 20
240.387711
 30
0.0
  0
LWPOLYLINE
  5
301
100
AcDbEntity
  8
Capa_1
 62
7
100
AcDbPolyline
 90
4
 70
0
 10
90.861952
 20
235.122457
 30
0.0
 10
90.861952
 20
222.391391
 30
0.0
 10
91.595353
 20
222.391391
 30
0.0
 10
91.595353
 20
235.122457
 30
0.0
  0
SPLINE
  5
302
100
AcDbEntity
  8
Capa_1
 62
7
100
AcDbSpline
 70
8
 71
3
 72
8
 73
4
 74
0
 40
0
 40
0
 40
0
 40
0
 40
1
 40
1
 40
1
 40
1
 10
91.230424
 20
236.355067
 30
0.0
 10
90.466907
 20
236.355067
 30
0.0
 10
89.843693
 20
236.977927
 30
0.0
 10
89.843693
 20
237.741798
 30
0.0
  0
SPLINE
  5
303
100
AcDbEntity
  8
Capa_1
 62
7
100
AcDbSpline
 70
8
 71
3
 72
8
 73
4
 74
0
 40
0
 40
0
 40
0
 40
0
 40
1
 40
1
 40
1
 40
1
 10
89.843693
 20
237.741798
 30
0.0
 10
89.843693
 20
238.505669
 30
0.0
 10
90.466553
 20
239.124986
 30
0.0
 10
91.230424
 20
239.124986
 30
0.0
  0
SPLINE
  5
304
100
AcDbEntity
  8
Capa_1
 62
7
100
AcDbSpline
 70
8
 71
3
 72
8
 73
4
 74
0
 40
0
 40
0
 40
0
 40
0
 40
1
 40
1
 40
1
 40
1
 10
91.230424
 20
239.124986
 30
0.0
 10
91.994295
 20
239.124986
 30
0.0
 10
92.613612
 20
238.502126
 30
0.0
 10
92.613612
 20
237.741798
 30
0.0
  0
SPLINE
  5
305
100
AcDbEntity
  8
Capa_1
 62
7
100
AcDbSpline
 70
8
 71
3
 72
8
 73
4
 74
0
 40
0
 40
0
 40
0
 40
0
 40
1
 40
1
 40
1
 40
1
 10
92.613612
 20
237.741798
 30
0.0
 10
92.613612
 20
236.981470
 30
0.0
 10
91.993941
 20
236.355067
 30
0.0
 10
91.230424
 20
236.355067
 30
0.0
  0
LWPOLYLINE
  5
306
100
AcDbEntity
  8
Capa_1
 62
7
100
AcDbPolyline
 90
1
 70
1
 10
91.230424
 20
240.387711
 30
0.0
  0
LWPOLYLINE
  5
307
100
AcDbEntity
  8
Capa_1
 62
7
100
AcDbPolyline
 90
1
 70
1
 10
91.230424
 20
236.355067
 30
0.0
  0
SPLINE
  5
308
100
AcDbEntity
  8
Capa_1
 62
7
100
AcDbSpline
 70
8
 71
3
 72
8
 73
4
 74
0
 40
0
 40
0
 40
0
 40
0
 40
1
 40
1
 40
1
 40
1
 10
84.244334
 20
221.268614
 30
0.0
 10
83.351498
 20
221.268614
 30
0.0
 10
82.625183
 20
220.545842
 30
0.0
 10
82.625183
 20
219.653005
 30
0.0
  0
LWPOLYLINE
  5
309
100
AcDbEntity
  8
Capa_1
 62
7
100
AcDbPolyline
 90
2
 70
0
 10
98.214388
 20
221.268614
 30
0.0
 10
84.244334
 20
221.268614
 30
0.0
  0
SPLINE
  5
30a
100
AcDbEntity
  8
Capa_1
 62
7
100
AcDbSpline
 70
8
 71
3
 72
8
 73
4
 74
0
 40
0
 40
0
 40
0
 40
0
 40
1
 40
1
 40
1
 40
1
 10
82.625183
 20
219.376651
 30
0.0
 10
82.625183
 20
218.483815
 30
0.0
 10
83.351498
 20
217.757500
 30
0.0
 10
84.244334
 20
217.757500
 30
0.0
  0
LWPOLYLINE
  5
30b
100
AcDbEntity
  8
Capa_1
 62
7
100
AcDbPolyline
 90
2
 70
0
 10
82.625183
 20
219.653005
 30
0.0
 10
82.625183
 20
219.376651
 30
0.0
  0
SPLINE
  5
30c
100
AcDbEntity
  8
Capa_1
 62
7
100
AcDbSpline
 70
8
 71
3
 72
8
 73
4
 74
0
 40
0
 40
0
 40
0
 40
0
 40
1
 40
1
 40
1
 40
1
 10
98.214388
 20
217.757500
 30
0.0
 10
99.107224
 20
217.757500
 30
0.0
 10
99.829997
 20
218.483815
 30
0.0
 10
99.829997
 20
219.376651
 30
0.0
  0
LWPOLYLINE
  5
30d
100
AcDbEntity
  8
Capa_1
 62
7
100
AcDbPolyline
 90
2
 70
0
 10
84.244334
 20
217.757500
 30
0.0
 10
98.214388
 20
217.757500
 30
0.0
  0
SPLINE
  5
30e
100
AcDbEntity
  8
Capa_1
 62
7
100
AcDbSpline
 70
8
 71
3
 72
8
 73
4
 74
0
 40
0
 40
0
 40
0
 40
0
 40
1
 40
1
 40
1
 40
1
 10
99.829997
 20
219.653005
 30
0.0
 10
99.829997
 20
220.545842
 30
0.0
 10
99.107224
 20
221.268614
 30
0.0
 10
98.214388
 20
221.268614
 30
0.0
  0
LWPOLYLINE
  5
30f
100
AcDbEntity
  8
Capa_1
 62
7
100
AcDbPolyline
 90
2
 70
0
 10
99.829997
 20
219.376651
 30
0.0
 10
99.829997
 20
219.653005
 30
0.0
  0
SPLINE
  5
310
100
AcDbEntity
  8
Capa_1
 62
7
100
AcDbSpline
 70
8
 71
3
 72
8
 73
4
 74
0
 40
0
 40
0
 40
0
 40
0
 40
1
 40
1
 40
1
 40
1
 10
99.128482
 20
219.376651
 30
0.0
 10
99.128482
 20
218.870002
 30
0.0
 10
98.717494
 20
218.462557
 30
0.0
 10
98.214388
 20
218.462557
 30
0.0
  0
LWPOLYLINE
  5
311
100
AcDbEntity
  8
Capa_1
 62
7
100
AcDbPolyline
 90
1
 70
1
 10
98.214388
 20
221.268614
 30
0.0
  0
SPLINE
  5
312
100
AcDbEntity
  8
Capa_1
 62
7
100
AcDbSpline
 70
8
 71
3
 72
8
 73
4
 74
0
 40
0
 40
0
 40
0
 40
0
 40
1
 40
1
 40
1
 40
1
 10
84.244334
 20
218.462557
 30
0.0
 10
83.737685
 20
218.462557
 30
0.0
 10
83.330240
 20
218.870002
 30
0.0
 10
83.330240
 20
219.376651
 30
0.0
  0
LWPOLYLINE
  5
313
100
AcDbEntity
  8
Capa_1
 62
7
100
AcDbPolyline
 90
2
 70
0
 10
98.214388
 20
218.462557
 30
0.0
 10
84.244334
 20
218.462557
 30
0.0
  0
SPLINE
  5
314
100
AcDbEntity
  8
Capa_1
 62
7
100
AcDbSpline
 70
8
 71
3
 72
8
 73
4
 74
0
 40
0
 40
0
 40
0
 40
0
 40
1
 40
1
 40
1
 40
1
 10
83.330240
 20
219.653005
 30
0.0
 10
83.330240
 20
220.156111
 30
0.0
 10
83.737685
 20
220.567100
 30
0.0
 10
84.244334
 20
220.567100
 30
0.0
  0
LWPOLYLINE
  5
315
100
AcDbEntity
  8
Capa_1
 62
7
100
AcDbPolyline
 90
2
 70
0
 10
83.330240
 20
219.376651
 30
0.0
 10
83.330240
 20
219.653005
 30
0.0
  0
SPLINE
  5
316
100
AcDbEntity
  8
Capa_1
 62
7
100
AcDbSpline
 70
8
 71
3
 72
8
 73
4
 74
0
 40
0
 40
0
 40
0
 40
0
 40
1
 40
1
 40
1
 40
1
 10
98.214388
 20
220.567100
 30
0.0
 10
98.717494
 20
220.567100
 30
0.0
 10
99.128482
 20
220.156111
 30
0.0
 10
99.128482
 20
219.653005
 30
0.0
  0
LWPOLYLINE
  5
317
100
AcDbEntity
  8
Capa_1
 62
7
100
AcDbPolyline
 90
2
 70
0
 10
84.244334
 20
220.567100
 30
0.0
 10
98.214388
 20
220.567100
 30
0.0
  0
LWPOLYLINE
  5
318
100
AcDbEntity
  8
Capa_1
 62
7
100
AcDbPolyline
 90
2
 70
0
 10
99.128482
 20
219.653005
 30
0.0
 10
99.128482
 20
219.376651
 30
0.0
  0
SPLINE
  5
319
100
AcDbEntity
  8
Capa_1
 62
7
100
AcDbSpline
 70
8
 71
3
 72
8
 73
4
 74
0
 40
0
 40
0
 40
0
 40
0
 40
1
 40
1
 40
1
 40
1
 10
81.769194
 20
211.401001
 30
0.0
 10
80.309831
 20
211.401001
 30
0.0
 10
79.122217
 20
212.588615
 30
0.0
 10
79.122217
 20
214.047977
 30
0.0
  0
SPLINE
  5
31a
100
AcDbEntity
  8
Capa_1
 62
7
100
AcDbSpline
 70
8
 71
3
 72
8
 73
4
 74
0
 40
0
 40
0
 40
0
 40
0
 40
1
 40
1
 40
1
 40
1
 10
79.122217
 20
214.047977
 30
0.0
 10
79.122217
 20
215.507340
 30
0.0
 10
80.309831
 20
216.694954
 30
0.0
 10
81.769194
 20
216.694954
 30
0.0
  0
LWPOLYLINE
  5
31b
100
AcDbEntity
  8
Capa_1
 62
7
100
AcDbPolyline
 90
2
 70
0
 10
100.754011
 20
211.401001
 30
0.0
 10
81.769194
 20
211.401001
 30
0.0
  0
SPLINE
  5
31c
100
AcDbEntity
  8
Capa_1
 62
7
100
AcDbSpline
 70
8
 71
3
 72
8
 73
4
 74
0
 40
0
 40
0
 40
0
 40
0
 40
1
 40
1
 40
1
 40
1
 10
100.754011
 20
216.694954
 30
0.0
 10
102.213373
 20
216.694954
 30
0.0
 10
103.400987
 20
215.507340
 30
0.0
 10
103.400987
 20
214.047977
 30
0.0
  0
SPLINE
  5
31d
100
AcDbEntity
  8
Capa_1
 62
7
100
AcDbSpline
 70
8
 71
3
 72
8
 73
4
 74
0
 40
0
 40
0
 40
0
 40
0
 40
1
 40
1
 40
1
 40
1
 10
103.400987
 20
214.047977
 30
0.0
 10
103.400987
 20
212.588615
 30
0.0
 10
102.213373
 20
211.401001
 30
0.0
 10
100.754011
 20
211.401001
 30
0.0
  0
LWPOLYLINE
  5
31e
100
AcDbEntity
  8
Capa_1
 62
7
100
AcDbPolyline
 90
2
 70
0
 10
81.769194
 20
216.694954
 30
0.0
 10
100.754011
 20
216.694954
 30
0.0
  0
SPLINE
  5
31f
100
AcDbEntity
  8
Capa_1
 62
7
100
AcDbSpline
 70
8
 71
3
 72
8
 73
4
 74
0
 40
0
 40
0
 40
0
 40
0
 40
1
 40
1
 40
1
 40
1
 10
81.769194
 20
215.991668
 30
0.0
 10
80.697436
 20
215.991668
 30
0.0
 10
79.825503
 20
215.119735
 30
0.0
 10
79.825503
 20
214.047977
 30
0.0
  0
SPLINE
  5
320
100
AcDbEntity
  8
Capa_1
 62
7
100
AcDbSpline
 70
8
 71
3
 72
8
 73
4
 74
0
 40
0
 40
0
 40
0
 40
0
 40
1
 40
1
 40
1
 40
1
 10
79.825503
 20
214.047977
 30
0.0
 10
79.825503
 20
212.976220
 30
0.0
 10
80.697436
 20
212.104287
 30
0.0
 10
81.769194
 20
212.104287
 30
0.0
  0
LWPOLYLINE
  5
321
100
AcDbEntity
  8
Capa_1
 62
7
100
AcDbPolyline
 90
1
 70
1
 10
100.754011
 20
211.401001
 30
0.0
  0
SPLINE
  5
322
100
AcDbEntity
  8
Capa_1
 62
7
100
AcDbSpline
 70
8
 71
3
 72
8
 73
4
 74
0
 40
0
 40
0
 40
0
 40
0
 40
1
 40
1
 40
1
 40
1
 10
100.754011
 20
212.104287
 30
0.0
 10
101.825769
 20
212.104287
 30
0.0
 10
102.697702
 20
212.976220
 30
0.0
 10
102.697702
 20
214.047977
 30
0.0
  0
SPLINE
  5
323
100
AcDbEntity
  8
Capa_1
 62
7
100
AcDbSpline
 70
8
 71
3
 72
8
 73
4
 74
0
 40
0
 40
0
 40
0
 40
0
 40
1
 40
1
 40
1
 40
1
 10
102.697702
 20
214.047977
 30
0.0
 10
102.697702
 20
215.119735
 30
0.0
 10
101.825769
 20
215.991668
 30
0.0
 10
100.754011
 20
215.991668
 30
0.0
  0
LWPOLYLINE
  5
324
100
AcDbEntity
  8
Capa_1
 62
7
100
AcDbPolyline
 90
2
 70
0
 10
81.769194
 20
212.104287
 30
0.0
 10
100.754011
 20
212.104287
 30
0.0
  0
LWPOLYLINE
  5
325
100
AcDbEntity
  8
Capa_1
 62
7
100
AcDbPolyline
 90
2
 70
0
 10
100.754011
 20
215.991668
 30
0.0
 10
81.769194
 20
215.991668
 30
0.0
  0
SPLINE
  5
326
100
AcDbEntity
  8
Capa_1
 62
4
100
AcDbSpline
 70
8
 71
3
 72
8
 73
4
 74
0
 40
0
 40
0
 40
0
 40
0
 40
1
 40
1
 40
1
 40
1
 10
91.235384
 20
203.605336
 30
0.0
 10
85.362860
 20
203.605336
 30
0.0
 10
82.940155
 20
206.513785
 30
0.0
 10
82.940155
 20
210.020294
 30
0.0
  0
LWPOLYLINE
  5
327
100
AcDbEntity
  8
Capa_1
 62
4
100
AcDbPolyline
 90
1
 70
1
 10
91.235384
 20
203.605336
 30
0.0
  0
SPLINE
  5
328
100
AcDbEntity
  8
Capa_1
 62
4
100
AcDbSpline
 70
8
 71
3
 72
8
 73
4
 74
0
 40
0
 40
0
 40
0
 40
0
 40
1
 40
1
 40
1
 40
1
 10
99.189068
 20
210.020294
 30
0.0
 10
99.189068
 20
205.827860
 30
0.0
 10
95.550760
 20
203.605336
 30
0.0
 10
91.235739
 20
203.605336
 30
0.0
  0
LWPOLYLINE
  5
329
100
AcDbEntity
  8
Capa_1
 62
4
100
AcDbPolyline
 90
4
 70
0
 10
82.940155
 20
210.020294
 30
0.0
 10
82.940155
 20
210.020294
 30
0.0
 10
99.189068
 20
210.020294
 30
0.0
 10
99.189068
 20
210.020294
 30
0.0
  0
SPLINE
  5
32a
100
AcDbEntity
  8
Capa_1
 62
3
100
AcDbSpline
 70
8
 71
3
 72
8
 73
4
 74
0
 40
0
 40
0
 40
0
 40
0
 40
1
 40
1
 40
1
 40
1
 10
121.471002
 20
233.275136
 30
0.0
 10
121.208820
 20
231.928796
 30
0.0
 10
120.858063
 20
230.617885
 30
0.0
 10
120.425817
 20
229.342405
 30
0.0
  0
SPLINE
  5
32b
100
AcDbEntity
  8
Capa_1
 62
3
100
AcDbSpline
 70
8
 71
3
 72
8
 73
4
 74
0
 40
0
 40
0
 40
0
 40
0
 40
1
 40
1
 40
1
 40
1
 10
120.425817
 20
229.342405
 30
0.0
 10
121.176933
 20
229.987231
 30
0.0
 10
122.137086
 20
230.348617
 30
0.0
 10
123.136213
 20
230.348617
 30
0.0
  0
SPLINE
  5
32c
100
AcDbEntity
  8
Capa_1
 62
3
100
AcDbSpline
 70
8
 71
3
 72
8
 73
4
 74
0
 40
0
 40
0
 40
0
 40
0
 40
1
 40
1
 40
1
 40
1
 10
123.136213
 20
230.348617
 30
0.0
 10
123.593260
 20
230.348617
 30
0.0
 10
124.057393
 20
230.274214
 30
0.0
 10
124.510897
 20
230.114779
 30
0.0
  0
LWPOLYLINE
  5
32d
100
AcDbEntity
  8
Capa_1
 62
4
100
AcDbPolyline
 90
2
 70
0
 10
91.235739
 20
203.605336
 30
0.0
 10
91.235384
 20
203.605336
 30
0.0
  0
SPLINE
  5
32e
100
AcDbEntity
  8
Capa_1
 62
3
100
AcDbSpline
 70
8
 71
3
 72
8
 73
4
 74
0
 40
0
 40
0
 40
0
 40
0
 40
1
 40
1
 40
1
 40
1
 10
124.921885
 20
229.260916
 30
0.0
 10
124.163683
 20
227.081970
 30
0.0
 10
121.782786
 20
225.930495
 30
0.0
 10
119.603841
 20
226.688697
 30
0.0
  0
SPLINE
  5
32f
100
AcDbEntity
  8
Capa_1
 62
3
100
AcDbSpline
 70
8
 71
3
 72
8
 73
4
 74
0
 40
0
 40
0
 40
0
 40
0
 40
1
 40
1
 40
1
 40
1
 10
119.603841
 20
226.688697
 30
0.0
 10
119.540066
 20
226.713498
 30
0.0
 10
119.479835
 20
226.745385
 30
0.0
 10
119.426690
 20
226.784358
 30
0.0
  0
SPLINE
  5
330
100
AcDbEntity
  8
Capa_1
 62
3
100
AcDbSpline
 70
8
 71
3
 72
8
 73
4
 74
0
 40
0
 40
0
 40
0
 40
0
 40
1
 40
1
 40
1
 40
1
 10
119.426690
 20
226.784358
 30
0.0
 10
118.920041
 20
225.639969
 30
0.0
 10
118.349618
 20
224.534552
 30
0.0
 10
117.711878
 20
223.471652
 30
0.0
  0
SPLINE
  5
331
100
AcDbEntity
  8
Capa_1
 62
3
100
AcDbSpline
 70
8
 71
3
 72
8
 73
4
 74
0
 40
0
 40
0
 40
0
 40
0
 40
1
 40
1
 40
1
 40
1
 10
117.711878
 20
223.471652
 30
0.0
 10
118.300016
 20
223.758635
 30
0.0
 10
118.944842
 20
223.903898
 30
0.0
 10
119.596755
 20
223.903898
 30
0.0
  0
SPLINE
  5
332
100
AcDbEntity
  8
Capa_1
 62
3
100
AcDbSpline
 70
8
 71
3
 72
8
 73
4
 74
0
 40
0
 40
0
 40
0
 40
0
 40
1
 40
1
 40
1
 40
1
 10
119.596755
 20
223.903898
 30
0.0
 10
120.408102
 20
223.903898
 30
0.0
 10
121.230078
 20
223.677146
 30
0.0
 10
121.959936
 20
223.202384
 30
0.0
  0
LWPOLYLINE
  5
333
100
AcDbEntity
  8
Capa_1
 62
3
100
AcDbPolyline
 90
3
 70
0
 10
124.510897
 20
230.114779
 30
0.0
 10
125.141551
 20
229.895113
 30
0.0
 10
124.921885
 20
229.260916
 30
0.0
  0
SPLINE
  5
334
100
AcDbEntity
  8
Capa_1
 62
3
100
AcDbSpline
 70
8
 71
3
 72
8
 73
4
 74
0
 40
0
 40
0
 40
0
 40
0
 40
1
 40
1
 40
1
 40
1
 10
122.161887
 20
222.242231
 30
0.0
 10
120.854520
 20
220.233349
 30
0.0
 10
118.168925
 20
219.662926
 30
0.0
 10
116.160043
 20
220.970293
 30
0.0
  0
LWPOLYLINE
  5
335
100
AcDbEntity
  8
Capa_1
 62
3
100
AcDbPolyline
 90
3
 70
0
 10
121.959936
 20
223.202384
 30
0.0
 10
122.540989
 20
222.823283
 30
0.0
 10
122.161887
 20
222.242231
 30
0.0
  0
SPLINE
  5
336
100
AcDbEntity
  8
Capa_1
 62
3
100
AcDbSpline
 70
8
 71
3
 72
8
 73
4
 74
0
 40
0
 40
0
 40
0
 40
0
 40
1
 40
1
 40
1
 40
1
 10
116.085640
 20
221.023438
 30
0.0
 10
115.299094
 20
219.942823
 30
0.0
 10
114.438145
 20
218.918895
 30
0.0
 10
113.520507
 20
217.955199
 30
0.0
  0
SPLINE
  5
337
100
AcDbEntity
  8
Capa_1
 62
3
100
AcDbSpline
 70
8
 71
3
 72
8
 73
4
 74
0
 40
0
 40
0
 40
0
 40
0
 40
1
 40
1
 40
1
 40
1
 10
113.520507
 20
217.955199
 30
0.0
 10
113.913781
 20
218.068575
 30
0.0
 10
114.324769
 20
218.125263
 30
0.0
 10
114.732214
 20
218.125263
 30
0.0
  0
SPLINE
  5
338
100
AcDbEntity
  8
Capa_1
 62
3
100
AcDbSpline
 70
8
 71
3
 72
8
 73
4
 74
0
 40
0
 40
0
 40
0
 40
0
 40
1
 40
1
 40
1
 40
1
 10
114.732214
 20
218.125263
 30
0.0
 10
115.876603
 20
218.125263
 30
0.0
 10
117.020993
 20
217.689474
 30
0.0
 10
117.896114
 20
216.817896
 30
0.0
  0
LWPOLYLINE
  5
339
100
AcDbEntity
  8
Capa_1
 62
3
100
AcDbPolyline
 90
2
 70
0
 10
116.160043
 20
220.970293
 30
0.0
 10
116.085640
 20
221.023438
 30
0.0
  0
SPLINE
  5
33a
100
AcDbEntity
  8
Capa_1
 62
3
100
AcDbSpline
 70
8
 71
3
 72
8
 73
4
 74
0
 40
0
 40
0
 40
0
 40
0
 40
1
 40
1
 40
1
 40
1
 10
117.899657
 20
215.801054
 30
0.0
 10
116.149414
 20
214.043726
 30
0.0
 10
113.307927
 20
214.036640
 30
0.0
 10
111.550599
 20
215.786882
 30
0.0
  0
SPLINE
  5
33b
100
AcDbEntity
  8
Capa_1
 62
3
100
AcDbSpline
 70
8
 71
3
 72
8
 73
4
 74
0
 40
0
 40
0
 40
0
 40
0
 40
1
 40
1
 40
1
 40
1
 10
111.550599
 20
215.786882
 30
0.0
 10
111.500997
 20
215.836484
 30
0.0
 10
111.458481
 20
215.893172
 30
0.0
 10
111.430137
 20
215.956946
 30
0.0
  0
SPLINE
  5
33c
100
AcDbEntity
  8
Capa_1
 62
3
100
AcDbSpline
 70
8
 71
3
 72
8
 73
4
 74
0
 40
0
 40
0
 40
0
 40
0
 40
1
 40
1
 40
1
 40
1
 10
111.430137
 20
215.956946
 30
0.0
 10
110.338892
 20
215.010965
 30
0.0
 10
109.180331
 20
214.139387
 30
0.0
 10
107.965082
 20
213.349298
 30
0.0
  0
SPLINE
  5
33d
100
AcDbEntity
  8
Capa_1
 62
3
100
AcDbSpline
 70
8
 71
3
 72
8
 73
4
 74
0
 40
0
 40
0
 40
0
 40
0
 40
1
 40
1
 40
1
 40
1
 10
107.965082
 20
213.349298
 30
0.0
 10
108.050114
 20
213.352841
 30
0.0
 10
108.135146
 20
213.356384
 30
0.0
 10
108.220178
 20
213.356384
 30
0.0
  0
SPLINE
  5
33e
100
AcDbEntity
  8
Capa_1
 62
3
100
AcDbSpline
 70
8
 71
3
 72
8
 73
4
 74
0
 40
0
 40
0
 40
0
 40
0
 40
1
 40
1
 40
1
 40
1
 10
108.220178
 20
213.356384
 30
0.0
 10
109.754297
 20
213.356384
 30
0.0
 10
111.252987
 20
212.591095
 30
0.0
 10
112.128108
 20
211.198696
 30
0.0
  0
LWPOLYLINE
  5
33f
100
AcDbEntity
  8
Capa_1
 62
3
100
AcDbPolyline
 90
3
 70
0
 10
117.896114
 20
216.817896
 30
0.0
 10
118.406306
 20
216.307704
 30
0.0
 10
117.899657
 20
215.801054
 30
0.0
  0
SPLINE
  5
340
100
AcDbEntity
  8
Capa_1
 62
3
100
AcDbSpline
 70
8
 71
3
 72
8
 73
4
 74
0
 40
0
 40
0
 40
0
 40
0
 40
1
 40
1
 40
1
 40
1
 10
111.897813
 20
210.181855
 30
0.0
 10
109.740125
 20
208.821342
 30
0.0
 10
106.891552
 20
209.469711
 30
0.0
 10
105.534583
 20
211.627399
 30
0.0
  0
SPLINE
  5
341
100
AcDbEntity
  8
Capa_1
 62
3
100
AcDbSpline
 70
8
 71
3
 72
8
 73
4
 74
0
 40
0
 40
0
 40
0
 40
0
 40
1
 40
1
 40
1
 40
1
 10
105.534583
 20
211.627399
 30
0.0
 10
105.484981
 20
211.705345
 30
0.0
 10
105.453094
 20
211.790377
 30
0.0
 10
105.438922
 20
211.875409
 30
0.0
  0
SPLINE
  5
342
100
AcDbEntity
  8
Capa_1
 62
3
100
AcDbSpline
 70
8
 71
3
 72
8
 73
4
 74
0
 40
0
 40
0
 40
0
 40
0
 40
1
 40
1
 40
1
 40
1
 10
105.438922
 20
211.875409
 30
0.0
 10
104.142183
 20
211.195153
 30
0.0
 10
102.788757
 20
210.607015
 30
0.0
 10
101.389271
 20
210.118080
 30
0.0
  0
SPLINE
  5
343
100
AcDbEntity
  8
Capa_1
 62
3
100
AcDbSpline
 70
8
 71
3
 72
8
 73
4
 74
0
 40
0
 40
0
 40
0
 40
0
 40
1
 40
1
 40
1
 40
1
 10
101.389271
 20
210.118080
 30
0.0
 10
103.132428
 20
209.668119
 30
0.0
 10
104.581515
 20
208.307607
 30
0.0
 10
105.049192
 20
206.436902
 30
0.0
  0
LWPOLYLINE
  5
344
100
AcDbEntity
  8
Capa_1
 62
3
100
AcDbPolyline
 90
3
 70
0
 10
112.128108
 20
211.198696
 30
0.0
 10
112.524924
 20
210.575128
 30
0.0
 10
111.897813
 20
210.181855
 30
0.0
  0
SPLINE
  5
345
100
AcDbEntity
  8
Capa_1
 62
3
100
AcDbSpline
 70
8
 71
3
 72
8
 73
4
 74
0
 40
0
 40
0
 40
0
 40
0
 40
1
 40
1
 40
1
 40
1
 10
104.461053
 20
205.455491
 30
0.0
 10
102.349425
 20
204.927584
 30
0.0
 10
100.216538
 20
205.806248
 30
0.0
 10
99.050891
 20
207.503346
 30
0.0
  0
SPLINE
  5
346
100
AcDbEntity
  8
Capa_1
 62
3
100
AcDbSpline
 70
8
 71
3
 72
8
 73
4
 74
0
 40
0
 40
0
 40
0
 40
0
 40
1
 40
1
 40
1
 40
1
 10
99.050891
 20
207.503346
 30
0.0
 10
98.417756
 20
204.803224
 30
0.0
 10
94.137102
 20
203.187970
 30
0.0
 10
91.100396
 20
203.187970
 30
0.0
  0
SPLINE
  5
347
100
AcDbEntity
  8
Capa_1
 62
3
100
AcDbSpline
 70
8
 71
3
 72
8
 73
4
 74
0
 40
0
 40
0
 40
0
 40
0
 40
1
 40
1
 40
1
 40
1
 10
91.100396
 20
203.187970
 30
0.0
 10
87.791233
 20
203.187970
 30
0.0
 10
84.113597
 20
204.445736
 30
0.0
 10
83.234933
 20
207.188018
 30
0.0
  0
SPLINE
  5
348
100
AcDbEntity
  8
Capa_1
 62
3
100
AcDbSpline
 70
8
 71
3
 72
8
 73
4
 74
0
 40
0
 40
0
 40
0
 40
0
 40
1
 40
1
 40
1
 40
1
 10
83.234933
 20
207.188018
 30
0.0
 10
82.037399
 20
205.699958
 30
0.0
 10
80.039146
 20
204.959471
 30
0.0
 10
78.062151
 20
205.455491
 30
0.0
  0
LWPOLYLINE
  5
349
100
AcDbEntity
  8
Capa_1
 62
3
100
AcDbPolyline
 90
3
 70
0
 10
105.049192
 20
206.436902
 30
0.0
 10
105.247600
 20
205.650356
 30
0.0
 10
104.461053
 20
205.455491
 30
0.0
  0
SPLINE
  5
34a
100
AcDbEntity
  8
Capa_1
 62
3
100
AcDbSpline
 70
8
 71
3
 72
8
 73
4
 74
0
 40
0
 40
0
 40
0
 40
0
 40
1
 40
1
 40
1
 40
1
 10
77.474013
 20
206.436902
 30
0.0
 10
77.931060
 20
208.265091
 30
0.0
 10
79.327003
 20
209.607888
 30
0.0
 10
81.020557
 20
210.082650
 30
0.0
  0
SPLINE
  5
34b
100
AcDbEntity
  8
Capa_1
 62
3
100
AcDbSpline
 70
8
 71
3
 72
8
 73
4
 74
0
 40
0
 40
0
 40
0
 40
0
 40
1
 40
1
 40
1
 40
1
 10
81.020557
 20
210.082650
 30
0.0
 10
79.652959
 20
210.557413
 30
0.0
 10
78.331420
 20
211.124293
 30
0.0
 10
77.059482
 20
211.776205
 30
0.0
  0
SPLINE
  5
34c
100
AcDbEntity
  8
Capa_1
 62
3
100
AcDbSpline
 70
8
 71
3
 72
8
 73
4
 74
0
 40
0
 40
0
 40
0
 40
0
 40
1
 40
1
 40
1
 40
1
 10
77.059482
 20
211.776205
 30
0.0
 10
77.041767
 20
211.726603
 30
0.0
 10
77.020509
 20
211.677001
 30
0.0
 10
76.988622
 20
211.627399
 30
0.0
  0
SPLINE
  5
34d
100
AcDbEntity
  8
Capa_1
 62
3
100
AcDbSpline
 70
8
 71
3
 72
8
 73
4
 74
0
 40
0
 40
0
 40
0
 40
0
 40
1
 40
1
 40
1
 40
1
 10
76.988622
 20
211.627399
 30
0.0
 10
75.631653
 20
209.469711
 30
0.0
 10
72.783080
 20
208.821342
 30
0.0
 10
70.625392
 20
210.181855
 30
0.0
  0
LWPOLYLINE
  5
34e
100
AcDbEntity
  8
Capa_1
 62
3
100
AcDbPolyline
 90
3
 70
0
 10
78.062151
 20
205.455491
 30
0.0
 10
77.275605
 20
205.650356
 30
0.0
 10
77.474013
 20
206.436902
 30
0.0
  0
SPLINE
  5
34f
100
AcDbEntity
  8
Capa_1
 62
3
100
AcDbSpline
 70
8
 71
3
 72
8
 73
4
 74
0
 40
0
 40
0
 40
0
 40
0
 40
1
 40
1
 40
1
 40
1
 10
70.395097
 20
211.198696
 30
0.0
 10
71.270218
 20
212.591095
 30
0.0
 10
72.768908
 20
213.356384
 30
0.0
 10
74.303027
 20
213.356384
 30
0.0
  0
LWPOLYLINE
  5
350
100
AcDbEntity
  8
Capa_1
 62
3
100
AcDbPolyline
 90
3
 70
0
 10
70.625392
 20
210.181855
 30
0.0
 10
70.001824
 20
210.575128
 30
0.0
 10
70.395097
 20
211.198696
 30
0.0
  0
SPLINE
  5
351
100
AcDbEntity
  8
Capa_1
 62
3
100
AcDbSpline
 70
8
 71
3
 72
8
 73
4
 74
0
 40
0
 40
0
 40
0
 40
0
 40
1
 40
1
 40
1
 40
1
 10
74.342000
 20
213.356384
 30
0.0
 10
73.176353
 20
214.107500
 30
0.0
 10
72.067393
 20
214.940105
 30
0.0
 10
71.018665
 20
215.843570
 30
0.0
  0
SPLINE
  5
352
100
AcDbEntity
  8
Capa_1
 62
3
100
AcDbSpline
 70
8
 71
3
 72
8
 73
4
 74
0
 40
0
 40
0
 40
0
 40
0
 40
1
 40
1
 40
1
 40
1
 10
71.018665
 20
215.843570
 30
0.0
 10
71.008036
 20
215.822312
 30
0.0
 10
70.990321
 20
215.804597
 30
0.0
 10
70.972606
 20
215.786882
 30
0.0
  0
SPLINE
  5
353
100
AcDbEntity
  8
Capa_1
 62
3
100
AcDbSpline
 70
8
 71
3
 72
8
 73
4
 74
0
 40
0
 40
0
 40
0
 40
0
 40
1
 40
1
 40
1
 40
1
 10
70.972606
 20
215.786882
 30
0.0
 10
69.215277
 20
214.036640
 30
0.0
 10
66.373790
 20
214.043726
 30
0.0
 10
64.623548
 20
215.801054
 30
0.0
  0
LWPOLYLINE
  5
354
100
AcDbEntity
  8
Capa_1
 62
3
100
AcDbPolyline
 90
2
 70
0
 10
74.303027
 20
213.356384
 30
0.0
 10
74.342000
 20
213.356384
 30
0.0
  0
SPLINE
  5
355
100
AcDbEntity
  8
Capa_1
 62
3
100
AcDbSpline
 70
8
 71
3
 72
8
 73
4
 74
0
 40
0
 40
0
 40
0
 40
0
 40
1
 40
1
 40
1
 40
1
 10
64.627091
 20
216.817896
 30
0.0
 10
65.502212
 20
217.689474
 30
0.0
 10
66.650145
 20
218.125263
 30
0.0
 10
67.794534
 20
218.125263
 30
0.0
  0
SPLINE
  5
356
100
AcDbEntity
  8
Capa_1
 62
3
100
AcDbSpline
 70
8
 71
3
 72
8
 73
4
 74
0
 40
0
 40
0
 40
0
 40
0
 40
1
 40
1
 40
1
 40
1
 10
67.794534
 20
218.125263
 30
0.0
 10
68.106318
 20
218.125263
 30
0.0
 10
68.421645
 20
218.093376
 30
0.0
 10
68.729886
 20
218.026059
 30
0.0
  0
SPLINE
  5
357
100
AcDbEntity
  8
Capa_1
 62
3
100
AcDbSpline
 70
8
 71
3
 72
8
 73
4
 74
0
 40
0
 40
0
 40
0
 40
0
 40
1
 40
1
 40
1
 40
1
 10
68.729886
 20
218.026059
 30
0.0
 10
67.858308
 20
218.940153
 30
0.0
 10
67.046961
 20
219.910936
 30
0.0
 10
66.295844
 20
220.927777
 30
0.0
  0
SPLINE
  5
358
100
AcDbEntity
  8
Capa_1
 62
3
100
AcDbSpline
 70
8
 71
3
 72
8
 73
4
 74
0
 40
0
 40
0
 40
0
 40
0
 40
1
 40
1
 40
1
 40
1
 10
66.295844
 20
220.927777
 30
0.0
 10
64.294049
 20
219.677098
 30
0.0
 10
61.654513
 20
220.254607
 30
0.0
 10
60.361317
 20
222.242231
 30
0.0
  0
LWPOLYLINE
  5
359
100
AcDbEntity
  8
Capa_1
 62
3
100
AcDbPolyline
 90
3
 70
0
 10
64.623548
 20
215.801054
 30
0.0
 10
64.116899
 20
216.307704
 30
0.0
 10
64.627091
 20
216.817896
 30
0.0
  0
SPLINE
  5
35a
100
AcDbEntity
  8
Capa_1
 62
3
100
AcDbSpline
 70
8
 71
3
 72
8
 73
4
 74
0
 40
0
 40
0
 40
0
 40
0
 40
1
 40
1
 40
1
 40
1
 10
60.563269
 20
223.202384
 30
0.0
 10
61.293127
 20
223.677146
 30
0.0
 10
62.115103
 20
223.903898
 30
0.0
 10
62.926450
 20
223.903898
 30
0.0
  0
SPLINE
  5
35b
100
AcDbEntity
  8
Capa_1
 62
3
100
AcDbSpline
 70
8
 71
3
 72
8
 73
4
 74
0
 40
0
 40
0
 40
0
 40
0
 40
1
 40
1
 40
1
 40
1
 10
62.926450
 20
223.903898
 30
0.0
 10
63.475616
 20
223.903898
 30
0.0
 10
64.017695
 20
223.801151
 30
0.0
 10
64.527887
 20
223.599200
 30
0.0
  0
SPLINE
  5
35c
100
AcDbEntity
  8
Capa_1
 62
3
100
AcDbSpline
 70
8
 71
3
 72
8
 73
4
 74
0
 40
0
 40
0
 40
0
 40
0
 40
1
 40
1
 40
1
 40
1
 10
64.527887
 20
223.599200
 30
0.0
 10
63.932663
 20
224.594783
 30
0.0
 10
63.401212
 20
225.629340
 30
0.0
 10
62.922907
 20
226.692240
 30
0.0
  0
LWPOLYLINE
  5
35d
100
AcDbEntity
  8
Capa_1
 62
3
100
AcDbPolyline
 90
3
 70
0
 10
60.361317
 20
222.242231
 30
0.0
 10
59.982216
 20
222.823283
 30
0.0
 10
60.563269
 20
223.202384
 30
0.0
  0
SPLINE
  5
35e
100
AcDbEntity
  8
Capa_1
 62
3
100
AcDbSpline
 70
8
 71
3
 72
8
 73
4
 74
0
 40
0
 40
0
 40
0
 40
0
 40
1
 40
1
 40
1
 40
1
 10
62.919364
 20
226.688697
 30
0.0
 10
60.740419
 20
225.930495
 30
0.0
 10
58.359522
 20
227.081970
 30
0.0
 10
57.601320
 20
229.260916
 30
0.0
  0
LWPOLYLINE
  5
35f
100
AcDbEntity
  8
Capa_1
 62
3
100
AcDbPolyline
 90
2
 70
0
 10
62.922907
 20
226.692240
 30
0.0
 10
62.919364
 20
226.688697
 30
0.0
  0
SPLINE
  5
360
100
AcDbEntity
  8
Capa_1
 62
3
100
AcDbSpline
 70
8
 71
3
 72
8
 73
4
 74
0
 40
0
 40
0
 40
0
 40
0
 40
1
 40
1
 40
1
 40
1
 10
58.012308
 20
230.114779
 30
0.0
 10
58.465812
 20
230.274214
 30
0.0
 10
58.929945
 20
230.348617
 30
0.0
 10
59.386992
 20
230.348617
 30
0.0
  0
SPLINE
  5
361
100
AcDbEntity
  8
Capa_1
 62
3
100
AcDbSpline
 70
8
 71
3
 72
8
 73
4
 74
0
 40
0
 40
0
 40
0
 40
0
 40
1
 40
1
 40
1
 40
1
 10
59.386992
 20
230.348617
 30
0.0
 10
60.262113
 20
230.348617
 30
0.0
 10
61.105348
 20
230.072263
 30
0.0
 10
61.806862
 20
229.572700
 30
0.0
  0
SPLINE
  5
362
100
AcDbEntity
  8
Capa_1
 62
3
100
AcDbSpline
 70
8
 71
3
 72
8
 73
4
 74
0
 40
0
 40
0
 40
0
 40
0
 40
1
 40
1
 40
1
 40
1
 10
61.806862
 20
229.572700
 30
0.0
 10
61.413589
 20
230.766691
 30
0.0
 10
61.087633
 20
231.996113
 30
0.0
 10
60.843166
 20
233.250335
 30
0.0
  0
SPLINE
  5
363
100
AcDbEntity
  8
Capa_1
 62
3
100
AcDbSpline
 70
8
 71
3
 72
8
 73
4
 74
0
 40
0
 40
0
 40
0
 40
0
 40
1
 40
1
 40
1
 40
1
 10
60.843166
 20
233.250335
 30
0.0
 10
58.720908
 20
233.030669
 30
0.0
 10
56.782886
 20
234.525816
 30
0.0
 10
56.467559
 20
236.658702
 30
0.0
  0
LWPOLYLINE
  5
364
100
AcDbEntity
  8
Capa_1
 62
3
100
AcDbPolyline
 90
3
 70
0
 10
57.601320
 20
229.260916
 30
0.0
 10
57.381653
 20
229.895113
 30
0.0
 10
58.012308
 20
230.114779
 30
0.0
  0
SPLINE
  5
365
100
AcDbEntity
  8
Capa_1
 62
3
100
AcDbSpline
 70
8
 71
3
 72
8
 73
4
 74
0
 40
0
 40
0
 40
0
 40
0
 40
1
 40
1
 40
1
 40
1
 10
57.009638
 20
237.385018
 30
0.0
 10
57.204503
 20
237.413362
 30
0.0
 10
57.399368
 20
237.427534
 30
0.0
 10
57.594234
 20
237.427534
 30
0.0
  0
SPLINE
  5
366
100
AcDbEntity
  8
Capa_1
 62
3
100
AcDbSpline
 70
8
 71
3
 72
8
 73
4
 74
0
 40
0
 40
0
 40
0
 40
0
 40
1
 40
1
 40
1
 40
1
 10
57.594234
 20
237.427534
 30
0.0
 10
58.667763
 20
237.427534
 30
0.0
 10
59.666889
 20
236.998831
 30
0.0
 10
60.396747
 20
236.283144
 30
0.0
  0
SPLINE
  5
367
100
AcDbEntity
  8
Capa_1
 62
3
100
AcDbSpline
 70
8
 71
3
 72
8
 73
4
 74
0
 40
0
 40
0
 40
0
 40
0
 40
1
 40
1
 40
1
 40
1
 10
60.396747
 20
236.283144
 30
0.0
 10
60.301086
 20
237.271642
 30
0.0
 10
60.251484
 20
238.270768
 30
0.0
 10
60.251484
 20
239.284066
 30
0.0
  0
SPLINE
  5
368
100
AcDbEntity
  8
Capa_1
 62
3
100
AcDbSpline
 70
8
 71
3
 72
8
 73
4
 74
0
 40
0
 40
0
 40
0
 40
0
 40
1
 40
1
 40
1
 40
1
 10
60.251484
 20
239.284066
 30
0.0
 10
60.251484
 20
239.588764
 30
0.0
 10
60.255027
 20
239.893463
 30
0.0
 10
60.265656
 20
240.194618
 30
0.0
  0
SPLINE
  5
369
100
AcDbEntity
  8
Capa_1
 62
3
100
AcDbSpline
 70
8
 71
3
 72
8
 73
4
 74
0
 40
0
 40
0
 40
0
 40
0
 40
1
 40
1
 40
1
 40
1
 10
60.265656
 20
240.194618
 30
0.0
 10
58.295748
 20
240.470972
 30
0.0
 10
56.867918
 20
242.249558
 30
0.0
 10
57.048611
 20
244.258440
 30
0.0
  0
LWPOLYLINE
  5
36a
100
AcDbEntity
  8
Capa_1
 62
3
100
AcDbPolyline
 90
3
 70
0
 10
56.467559
 20
236.658702
 30
0.0
 10
56.375441
 20
237.292900
 30
0.0
 10
57.009638
 20
237.385018
 30
0.0
  0
SPLINE
  5
36b
100
AcDbEntity
  8
Capa_1
 62
3
100
AcDbSpline
 70
8
 71
3
 72
8
 73
4
 74
0
 40
0
 40
0
 40
0
 40
0
 40
1
 40
1
 40
1
 40
1
 10
57.704067
 20
244.804062
 30
0.0
 10
58.880343
 20
244.697772
 30
0.0
 10
59.879469
 20
244.060032
 30
0.0
 10
60.492408
 20
243.145938
 30
0.0
  0
SPLINE
  5
36c
100
AcDbEntity
  8
Capa_1
 62
3
100
AcDbSpline
 70
8
 71
3
 72
8
 73
4
 74
0
 40
0
 40
0
 40
0
 40
0
 40
1
 40
1
 40
1
 40
1
 10
60.492408
 20
243.145938
 30
0.0
 10
60.634129
 20
244.300956
 30
0.0
 10
60.843166
 20
245.434716
 30
0.0
 10
61.112434
 20
246.543676
 30
0.0
  0
SPLINE
  5
36d
100
AcDbEntity
  8
Capa_1
 62
3
100
AcDbSpline
 70
8
 71
3
 72
8
 73
4
 74
0
 40
0
 40
0
 40
0
 40
0
 40
1
 40
1
 40
1
 40
1
 10
61.112434
 20
246.543676
 30
0.0
 10
59.422422
 20
247.121185
 30
0.0
 10
58.483527
 20
248.942288
 30
0.0
 10
59.007891
 20
250.664186
 30
0.0
  0
LWPOLYLINE
  5
36e
100
AcDbEntity
  8
Capa_1
 62
3
100
AcDbPolyline
 90
3
 70
0
 10
57.048611
 20
244.258440
 30
0.0
 10
57.101756
 20
244.857207
 30
0.0
 10
57.704067
 20
244.804062
 30
0.0
  0
SPLINE
  5
36f
100
AcDbEntity
  8
Capa_1
 62
3
100
AcDbSpline
 70
8
 71
3
 72
8
 73
4
 74
0
 40
0
 40
0
 40
0
 40
0
 40
1
 40
1
 40
1
 40
1
 10
59.673975
 20
251.018486
 30
0.0
 10
60.697903
 20
250.710245
 30
0.0
 10
61.463191
 20
249.952043
 30
0.0
 10
61.817491
 20
249.023777
 30
0.0
  0
SPLINE
  5
370
100
AcDbEntity
  8
Capa_1
 62
3
100
AcDbSpline
 70
8
 71
3
 72
8
 73
4
 74
0
 40
0
 40
0
 40
0
 40
0
 40
1
 40
1
 40
1
 40
1
 10
61.817491
 20
249.023777
 30
0.0
 10
62.196592
 20
250.164623
 30
0.0
 10
62.639467
 20
251.277125
 30
0.0
 10
63.142573
 20
252.350655
 30
0.0
  0
SPLINE
  5
371
100
AcDbEntity
  8
Capa_1
 62
3
100
AcDbSpline
 70
8
 71
3
 72
8
 73
4
 74
0
 40
0
 40
0
 40
0
 40
0
 40
1
 40
1
 40
1
 40
1
 10
63.142573
 20
252.350655
 30
0.0
 10
61.750174
 20
253.186803
 30
0.0
 10
61.197466
 20
254.961847
 30
0.0
 10
61.909609
 20
256.460536
 30
0.0
  0
LWPOLYLINE
  5
372
100
AcDbEntity
  8
Capa_1
 62
3
100
AcDbPolyline
 90
3
 70
0
 10
59.007891
 20
250.664186
 30
0.0
 10
59.163783
 20
251.174378
 30
0.0
 10
59.673975
 20
251.018486
 30
0.0
  0
SPLINE
  5
373
100
AcDbEntity
  8
Capa_1
 62
3
100
AcDbSpline
 70
8
 71
3
 72
8
 73
4
 74
0
 40
0
 40
0
 40
0
 40
0
 40
1
 40
1
 40
1
 40
1
 10
62.593408
 20
256.701460
 30
0.0
 10
63.486245
 20
256.279843
 30
0.0
 10
64.088555
 20
255.496840
 30
0.0
 10
64.315307
 20
254.607547
 30
0.0
  0
SPLINE
  5
374
100
AcDbEntity
  8
Capa_1
 62
3
100
AcDbSpline
 70
8
 71
3
 72
8
 73
4
 74
0
 40
0
 40
0
 40
0
 40
0
 40
1
 40
1
 40
1
 40
1
 10
64.315307
 20
254.607547
 30
0.0
 10
64.914074
 20
255.656275
 30
0.0
 10
65.576615
 20
256.669573
 30
0.0
 10
66.292301
 20
257.636813
 30
0.0
  0
SPLINE
  5
375
100
AcDbEntity
  8
Capa_1
 62
3
100
AcDbSpline
 70
8
 71
3
 72
8
 73
4
 74
0
 40
0
 40
0
 40
0
 40
0
 40
1
 40
1
 40
1
 40
1
 10
66.292301
 20
257.636813
 30
0.0
 10
65.162084
 20
258.657197
 30
0.0
 10
64.960133
 20
260.386182
 30
0.0
 10
65.874227
 20
261.647490
 30
0.0
  0
LWPOLYLINE
  5
376
100
AcDbEntity
  8
Capa_1
 62
3
100
AcDbPolyline
 90
3
 70
0
 10
61.909609
 20
256.460536
 30
0.0
 10
62.132818
 20
256.924669
 30
0.0
 10
62.593408
 20
256.701460
 30
0.0
  0
SPLINE
  5
377
100
AcDbEntity
  8
Capa_1
 62
3
100
AcDbSpline
 70
8
 71
3
 72
8
 73
4
 74
0
 40
0
 40
0
 40
0
 40
0
 40
1
 40
1
 40
1
 40
1
 10
66.547398
 20
261.753780
 30
0.0
 10
67.305600
 20
261.201072
 30
0.0
 10
67.730760
 20
260.368467
 30
0.0
 10
67.787448
 20
259.500431
 30
0.0
  0
SPLINE
  5
378
100
AcDbEntity
  8
Capa_1
 62
3
100
AcDbSpline
 70
8
 71
3
 72
8
 73
4
 74
0
 40
0
 40
0
 40
0
 40
0
 40
1
 40
1
 40
1
 40
1
 10
67.787448
 20
259.500431
 30
0.0
 10
68.673198
 20
260.524359
 30
0.0
 10
69.626266
 20
261.491598
 30
0.0
 10
70.639564
 20
262.391520
 30
0.0
  0
SPLINE
  5
379
100
AcDbEntity
  8
Capa_1
 62
3
100
AcDbSpline
 70
8
 71
3
 72
8
 73
4
 74
0
 40
0
 40
0
 40
0
 40
0
 40
1
 40
1
 40
1
 40
1
 10
70.639564
 20
262.391520
 30
0.0
 10
70.030168
 20
263.298529
 30
0.0
 10
70.150630
 20
264.542122
 30
0.0
 10
70.976149
 20
265.318039
 30
0.0
  0
LWPOLYLINE
  5
37a
100
AcDbEntity
  8
Capa_1
 62
3
100
AcDbPolyline
 90
3
 70
0
 10
65.874227
 20
261.647490
 30
0.0
 10
66.157667
 20
262.037220
 30
0.0
 10
66.547398
 20
261.753780
 30
0.0
  0
SPLINE
  5
37b
100
AcDbEntity
  8
Capa_1
 62
3
100
AcDbSpline
 70
8
 71
3
 72
8
 73
4
 74
0
 40
0
 40
0
 40
0
 40
0
 40
1
 40
1
 40
1
 40
1
 10
71.493427
 20
265.303867
 30
0.0
 10
71.907958
 20
264.864535
 30
0.0
 10
72.113452
 20
264.297655
 30
0.0
 10
72.113452
 20
263.734318
 30
0.0
  0
SPLINE
  5
37c
100
AcDbEntity
  8
Capa_1
 62
3
100
AcDbSpline
 70
8
 71
3
 72
8
 73
4
 74
0
 40
0
 40
0
 40
0
 40
0
 40
1
 40
1
 40
1
 40
1
 10
72.113452
 20
263.734318
 30
0.0
 10
72.113452
 20
263.695345
 30
0.0
 10
72.113452
 20
263.656372
 30
0.0
 10
72.106366
 20
263.617399
 30
0.0
  0
SPLINE
  5
37d
100
AcDbEntity
  8
Capa_1
 62
3
100
AcDbSpline
 70
8
 71
3
 72
8
 73
4
 74
0
 40
0
 40
0
 40
0
 40
0
 40
1
 40
1
 40
1
 40
1
 10
72.106366
 20
263.617399
 30
0.0
 10
73.194068
 20
264.467719
 30
0.0
 10
74.338457
 20
265.247179
 30
0.0
 10
75.532449
 20
265.952236
 30
0.0
  0
SPLINE
  5
37e
100
AcDbEntity
  8
Capa_1
 62
3
100
AcDbSpline
 70
8
 71
3
 72
8
 73
4
 74
0
 40
0
 40
0
 40
0
 40
0
 40
1
 40
1
 40
1
 40
1
 10
75.532449
 20
265.952236
 30
0.0
 10
75.263180
 20
266.699810
 30
0.0
 10
75.507648
 20
267.546587
 30
0.0
 10
76.145388
 20
268.035521
 30
0.0
  0
SPLINE
  5
37f
100
AcDbEntity
  8
Capa_1
 62
3
100
AcDbSpline
 70
8
 71
3
 72
8
 73
4
 74
0
 40
0
 40
0
 40
0
 40
0
 40
1
 40
1
 40
1
 40
1
 10
76.145388
 20
268.035521
 30
0.0
 10
76.148931
 20
269.612157
 30
0.0
 10
77.133885
 20
271.582065
 30
0.0
 10
78.090495
 20
272.017854
 30
0.0
  0
SPLINE
  5
380
100
AcDbEntity
  8
Capa_1
 62
3
100
AcDbSpline
 70
8
 71
3
 72
8
 73
4
 74
0
 40
0
 40
0
 40
0
 40
0
 40
1
 40
1
 40
1
 40
1
 10
78.090495
 20
272.017854
 30
0.0
 10
78.108210
 20
272.028483
 30
0.0
 10
78.125925
 20
272.035569
 30
0.0
 10
78.143640
 20
272.042655
 30
0.0
  0
SPLINE
  5
381
100
AcDbEntity
  8
Capa_1
 62
3
100
AcDbSpline
 70
8
 71
3
 72
8
 73
4
 74
0
 40
0
 40
0
 40
0
 40
0
 40
1
 40
1
 40
1
 40
1
 10
78.143640
 20
272.042655
 30
0.0
 10
78.352678
 20
272.127687
 30
0.0
 10
78.565258
 20
272.209177
 30
0.0
 10
78.777838
 20
272.287123
 30
0.0
  0
SPLINE
  5
382
100
AcDbEntity
  8
Capa_1
 62
3
100
AcDbSpline
 70
8
 71
3
 72
8
 73
4
 74
0
 40
0
 40
0
 40
0
 40
0
 40
1
 40
1
 40
1
 40
1
 10
78.777838
 20
272.287123
 30
0.0
 10
78.781381
 20
272.290666
 30
0.0
 10
78.784924
 20
272.290666
 30
0.0
 10
78.788467
 20
272.290666
 30
0.0
  0
SPLINE
  5
383
100
AcDbEntity
  8
Capa_1
 62
3
100
AcDbSpline
 70
8
 71
3
 72
8
 73
4
 74
0
 40
0
 40
0
 40
0
 40
0
 40
1
 40
1
 40
1
 40
1
 10
78.788467
 20
272.290666
 30
0.0
 10
82.434215
 20
273.672436
 30
0.0
 10
86.620625
 20
274.466068
 30
0.0
 10
90.726964
 20
274.551100
 30
0.0
  0
LWPOLYLINE
  5
384
100
AcDbEntity
  8
Capa_1
 62
3
100
AcDbPolyline
 90
3
 70
0
 10
70.976149
 20
265.318039
 30
0.0
 10
71.241874
 20
265.569592
 30
0.0
 10
71.493427
 20
265.303867
 30
0.0
  0
SPLINE
  5
385
100
AcDbEntity
  8
Capa_1
 62
3
100
AcDbSpline
 70
8
 71
3
 72
8
 73
4
 74
0
 40
0
 40
0
 40
0
 40
0
 40
1
 40
1
 40
1
 40
1
 10
90.726964
 20
272.240709
 30
0.0
 10
87.339854
 20
272.169849
 30
0.0
 10
83.713238
 20
271.510851
 30
0.0
 10
80.499736
 20
270.270801
 30
0.0
  0
SPLINE
  5
386
100
AcDbEntity
  8
Capa_1
 62
3
100
AcDbSpline
 70
8
 71
3
 72
8
 73
4
 74
0
 40
0
 40
0
 40
0
 40
0
 40
1
 40
1
 40
1
 40
1
 10
80.499736
 20
270.270801
 30
0.0
 10
80.127721
 20
270.129081
 30
0.0
 10
79.950571
 20
269.700377
 30
0.0
 10
80.102920
 20
269.331905
 30
0.0
  0
SPLINE
  5
387
100
AcDbEntity
  8
Capa_1
 62
3
100
AcDbSpline
 70
8
 71
3
 72
8
 73
4
 74
0
 40
0
 40
0
 40
0
 40
0
 40
1
 40
1
 40
1
 40
1
 10
80.102920
 20
269.331905
 30
0.0
 10
80.156065
 20
269.207900
 30
0.0
 10
80.209210
 20
269.080352
 30
0.0
 10
80.258812
 20
268.956347
 30
0.0
  0
SPLINE
  5
388
100
AcDbEntity
  8
Capa_1
 62
3
100
AcDbSpline
 70
8
 71
3
 72
8
 73
4
 74
0
 40
0
 40
0
 40
0
 40
0
 40
1
 40
1
 40
1
 40
1
 10
80.258812
 20
268.956347
 30
0.0
 10
80.411161
 20
268.594961
 30
0.0
 10
80.818606
 20
268.424897
 30
0.0
 10
81.187079
 20
268.566617
 30
0.0
  0
SPLINE
  5
389
100
AcDbEntity
  8
Capa_1
 62
3
100
AcDbSpline
 70
8
 71
3
 72
8
 73
4
 74
0
 40
0
 40
0
 40
0
 40
0
 40
1
 40
1
 40
1
 40
1
 10
81.187079
 20
268.566617
 30
0.0
 10
87.564481
 20
271.018374
 30
0.0
 10
94.629225
 20
271.018374
 30
0.0
 10
101.006627
 20
268.566617
 30
0.0
  0
SPLINE
  5
38a
100
AcDbEntity
  8
Capa_1
 62
3
100
AcDbSpline
 70
8
 71
3
 72
8
 73
4
 74
0
 40
0
 40
0
 40
0
 40
0
 40
1
 40
1
 40
1
 40
1
 10
101.006627
 20
268.566617
 30
0.0
 10
101.375099
 20
268.424897
 30
0.0
 10
101.786087
 20
268.594961
 30
0.0
 10
101.934894
 20
268.956347
 30
0.0
  0
LWPOLYLINE
  5
38b
100
AcDbEntity
  8
Capa_1
 62
3
100
AcDbPolyline
 90
2
 70
0
 10
90.726964
 20
274.551100
 30
0.0
 10
90.726964
 20
272.240709
 30
0.0
  0
SPLINE
  5
38c
100
AcDbEntity
  8
Capa_1
 62
3
100
AcDbSpline
 70
8
 71
3
 72
8
 73
4
 74
0
 40
0
 40
0
 40
0
 40
0
 40
1
 40
1
 40
1
 40
1
 10
102.090786
 20
269.331905
 30
0.0
 10
102.243135
 20
269.700377
 30
0.0
 10
102.065985
 20
270.129081
 30
0.0
 10
101.693969
 20
270.270801
 30
0.0
  0
SPLINE
  5
38d
100
AcDbEntity
  8
Capa_1
 62
3
100
AcDbSpline
 70
8
 71
3
 72
8
 73
4
 74
0
 40
0
 40
0
 40
0
 40
0
 40
1
 40
1
 40
1
 40
1
 10
101.693969
 20
270.270801
 30
0.0
 10
98.565499
 20
271.475421
 30
0.0
 10
95.029584
 20
272.130876
 30
0.0
 10
91.731050
 20
272.230080
 30
0.0
  0
LWPOLYLINE
  5
38e
100
AcDbEntity
  8
Capa_1
 62
3
100
AcDbPolyline
 90
2
 70
0
 10
101.934894
 20
268.956347
 30
0.0
 10
102.090786
 20
269.331905
 30
0.0
  0
SPLINE
  5
38f
100
AcDbEntity
  8
Capa_1
 62
3
100
AcDbSpline
 70
8
 71
3
 72
8
 73
4
 74
0
 40
0
 40
0
 40
0
 40
0
 40
1
 40
1
 40
1
 40
1
 10
91.731050
 20
274.551100
 30
0.0
 10
96.429070
 20
274.451896
 30
0.0
 10
101.148347
 20
273.431512
 30
0.0
 10
105.219256
 20
271.660011
 30
0.0
  0
SPLINE
  5
390
100
AcDbEntity
  8
Capa_1
 62
3
100
AcDbSpline
 70
8
 71
3
 72
8
 73
4
 74
0
 40
0
 40
0
 40
0
 40
0
 40
1
 40
1
 40
1
 40
1
 10
105.219256
 20
271.660011
 30
0.0
 10
105.952657
 20
271.178163
 30
0.0
 10
106.558510
 20
269.194082
 30
0.0
 10
106.508908
 20
267.893801
 30
0.0
  0
SPLINE
  5
391
100
AcDbEntity
  8
Capa_1
 62
3
100
AcDbSpline
 70
8
 71
3
 72
8
 73
4
 74
0
 40
0
 40
0
 40
0
 40
0
 40
1
 40
1
 40
1
 40
1
 10
106.508908
 20
267.893801
 30
0.0
 10
107.146648
 20
267.390695
 30
0.0
 10
107.376943
 20
266.522660
 30
0.0
 10
107.079331
 20
265.768000
 30
0.0
  0
SPLINE
  5
392
100
AcDbEntity
  8
Capa_1
 62
3
100
AcDbSpline
 70
8
 71
3
 72
8
 73
4
 74
0
 40
0
 40
0
 40
0
 40
0
 40
1
 40
1
 40
1
 40
1
 10
107.079331
 20
265.768000
 30
0.0
 10
108.248522
 20
265.066486
 30
0.0
 10
109.368110
 20
264.287026
 30
0.0
 10
110.431010
 20
263.436706
 30
0.0
  0
SPLINE
  5
393
100
AcDbEntity
  8
Capa_1
 62
3
100
AcDbSpline
 70
8
 71
3
 72
8
 73
4
 74
0
 40
0
 40
0
 40
0
 40
0
 40
1
 40
1
 40
1
 40
1
 10
110.431010
 20
263.436706
 30
0.0
 10
110.416838
 20
263.535910
 30
0.0
 10
110.409752
 20
263.635114
 30
0.0
 10
110.409752
 20
263.737861
 30
0.0
  0
SPLINE
  5
394
100
AcDbEntity
  8
Capa_1
 62
3
100
AcDbSpline
 70
8
 71
3
 72
8
 73
4
 74
0
 40
0
 40
0
 40
0
 40
0
 40
1
 40
1
 40
1
 40
1
 10
110.409752
 20
263.737861
 30
0.0
 10
110.409752
 20
264.301198
 30
0.0
 10
110.615246
 20
264.864535
 30
0.0
 10
111.029778
 20
265.303867
 30
0.0
  0
LWPOLYLINE
  5
395
100
AcDbEntity
  8
Capa_1
 62
3
100
AcDbPolyline
 90
2
 70
0
 10
91.731050
 20
272.230080
 30
0.0
 10
91.731050
 20
274.551100
 30
0.0
  0
SPLINE
  5
396
100
AcDbEntity
  8
Capa_1
 62
3
100
AcDbSpline
 70
8
 71
3
 72
8
 73
4
 74
0
 40
0
 40
0
 40
0
 40
0
 40
1
 40
1
 40
1
 40
1
 10
111.547056
 20
265.318039
 30
0.0
 10
112.408005
 20
264.510235
 30
0.0
 10
112.500123
 20
263.188695
 30
0.0
 10
111.802152
 20
262.271058
 30
0.0
  0
SPLINE
  5
397
100
AcDbEntity
  8
Capa_1
 62
3
100
AcDbSpline
 70
8
 71
3
 72
8
 73
4
 74
0
 40
0
 40
0
 40
0
 40
0
 40
1
 40
1
 40
1
 40
1
 10
111.802152
 20
262.271058
 30
0.0
 10
112.847337
 20
261.335706
 30
0.0
 10
113.828749
 20
260.329493
 30
0.0
 10
114.735757
 20
259.255964
 30
0.0
  0
LWPOLYLINE
  5
398
100
AcDbEntity
  8
Capa_1
 62
3
100
AcDbPolyline
 90
3
 70
0
 10
111.029778
 20
265.303867
 30
0.0
 10
111.281331
 20
265.569592
 30
0.0
 10
111.547056
 20
265.318039
 30
0.0
  0
SPLINE
  5
399
100
AcDbEntity
  8
Capa_1
 62
3
100
AcDbSpline
 70
8
 71
3
 72
8
 73
4
 74
0
 40
0
 40
0
 40
0
 40
0
 40
1
 40
1
 40
1
 40
1
 10
114.735757
 20
259.312652
 30
0.0
 10
114.735757
 20
260.244461
 30
0.0
 10
115.164460
 20
261.162099
 30
0.0
 10
115.975807
 20
261.753780
 30
0.0
  0
LWPOLYLINE
  5
39a
100
AcDbEntity
  8
Capa_1
 62
3
100
AcDbPolyline
 90
2
 70
0
 10
114.735757
 20
259.255964
 30
0.0
 10
114.735757
 20
259.312652
 30
0.0
  0
SPLINE
  5
39b
100
AcDbEntity
  8
Capa_1
 62
3
100
AcDbSpline
 70
8
 71
3
 72
8
 73
4
 74
0
 40
0
 40
0
 40
0
 40
0
 40
1
 40
1
 40
1
 40
1
 10
116.648978
 20
261.647490
 30
0.0
 10
117.598502
 20
260.340123
 30
0.0
 10
117.346949
 20
258.522563
 30
0.0
 10
116.099812
 20
257.523437
 30
0.0
  0
SPLINE
  5
39c
100
AcDbEntity
  8
Capa_1
 62
3
100
AcDbSpline
 70
8
 71
3
 72
8
 73
4
 74
0
 40
0
 40
0
 40
0
 40
0
 40
1
 40
1
 40
1
 40
1
 10
116.099812
 20
257.523437
 30
0.0
 10
116.847386
 20
256.506595
 30
0.0
 10
117.534728
 20
255.440152
 30
0.0
 10
118.154753
 20
254.331192
 30
0.0
  0
SPLINE
  5
39d
100
AcDbEntity
  8
Capa_1
 62
3
100
AcDbSpline
 70
8
 71
3
 72
8
 73
4
 74
0
 40
0
 40
0
 40
0
 40
0
 40
1
 40
1
 40
1
 40
1
 10
118.154753
 20
254.331192
 30
0.0
 10
118.314188
 20
255.330319
 30
0.0
 10
118.948385
 20
256.237327
 30
0.0
 10
119.929797
 20
256.701460
 30
0.0
  0
LWPOLYLINE
  5
39e
100
AcDbEntity
  8
Capa_1
 62
3
100
AcDbPolyline
 90
3
 70
0
 10
115.975807
 20
261.753780
 30
0.0
 10
116.365537
 20
262.037220
 30
0.0
 10
116.648978
 20
261.647490
 30
0.0
  0
SPLINE
  5
39f
100
AcDbEntity
  8
Capa_1
 62
3
100
AcDbSpline
 70
8
 71
3
 72
8
 73
4
 74
0
 40
0
 40
0
 40
0
 40
0
 40
1
 40
1
 40
1
 40
1
 10
120.613596
 20
256.460536
 30
0.0
 10
121.354083
 20
254.905159
 30
0.0
 10
120.726972
 20
253.048626
 30
0.0
 10
119.214110
 20
252.254994
 30
0.0
  0
SPLINE
  5
3a0
100
AcDbEntity
  8
Capa_1
 62
3
100
AcDbSpline
 70
8
 71
3
 72
8
 73
4
 74
0
 40
0
 40
0
 40
0
 40
0
 40
1
 40
1
 40
1
 40
1
 10
119.214110
 20
252.254994
 30
0.0
 10
119.745561
 20
251.107061
 30
0.0
 10
120.209694
 20
249.920156
 30
0.0
 10
120.595881
 20
248.697821
 30
0.0
  0
SPLINE
  5
3a1
100
AcDbEntity
  8
Capa_1
 62
3
100
AcDbSpline
 70
8
 71
3
 72
8
 73
4
 74
0
 40
0
 40
0
 40
0
 40
0
 40
1
 40
1
 40
1
 40
1
 10
120.595881
 20
248.697821
 30
0.0
 10
120.886407
 20
249.771350
 30
0.0
 10
121.708383
 20
250.674815
 30
0.0
 10
122.849230
 20
251.018486
 30
0.0
  0
LWPOLYLINE
  5
3a2
100
AcDbEntity
  8
Capa_1
 62
3
100
AcDbPolyline
 90
3
 70
0
 10
119.929797
 20
256.701460
 30
0.0
 10
120.390387
 20
256.924669
 30
0.0
 10
120.613596
 20
256.460536
 30
0.0
  0
SPLINE
  5
3a3
100
AcDbEntity
  8
Capa_1
 62
3
100
AcDbSpline
 70
8
 71
3
 72
8
 73
4
 74
0
 40
0
 40
0
 40
0
 40
0
 40
1
 40
1
 40
1
 40
1
 10
123.515314
 20
250.664186
 30
0.0
 10
124.050307
 20
248.899772
 30
0.0
 10
123.054724
 20
247.036153
 30
0.0
 10
121.290309
 20
246.501160
 30
0.0
  0
SPLINE
  5
3a4
100
AcDbEntity
  8
Capa_1
 62
3
100
AcDbSpline
 70
8
 71
3
 72
8
 73
4
 74
0
 40
0
 40
0
 40
0
 40
0
 40
1
 40
1
 40
1
 40
1
 10
121.290309
 20
246.501160
 30
0.0
 10
121.261965
 20
246.494074
 30
0.0
 10
121.237164
 20
246.486988
 30
0.0
 10
121.212363
 20
246.483445
 30
0.0
  0
SPLINE
  5
3a5
100
AcDbEntity
  8
Capa_1
 62
3
100
AcDbSpline
 70
8
 71
3
 72
8
 73
4
 74
0
 40
0
 40
0
 40
0
 40
0
 40
1
 40
1
 40
1
 40
1
 10
121.212363
 20
246.483445
 30
0.0
 10
121.499346
 20
245.296539
 30
0.0
 10
121.715469
 20
244.081290
 30
0.0
 10
121.853646
 20
242.848326
 30
0.0
  0
SPLINE
  5
3a6
100
AcDbEntity
  8
Capa_1
 62
3
100
AcDbSpline
 70
8
 71
3
 72
8
 73
4
 74
0
 40
0
 40
0
 40
0
 40
0
 40
1
 40
1
 40
1
 40
1
 10
121.853646
 20
242.848326
 30
0.0
 10
122.431155
 20
243.918312
 30
0.0
 10
123.518857
 20
244.687143
 30
0.0
 10
124.819138
 20
244.804062
 30
0.0
  0
LWPOLYLINE
  5
3a7
100
AcDbEntity
  8
Capa_1
 62
3
100
AcDbPolyline
 90
3
 70
0
 10
122.849230
 20
251.018486
 30
0.0
 10
123.359422
 20
251.174378
 30
0.0
 10
123.515314
 20
250.664186
 30
0.0
  0
SPLINE
  5
3a8
100
AcDbEntity
  8
Capa_1
 62
3
100
AcDbSpline
 70
8
 71
3
 72
8
 73
4
 74
0
 40
0
 40
0
 40
0
 40
0
 40
1
 40
1
 40
1
 40
1
 10
125.474594
 20
244.258440
 30
0.0
 10
125.662373
 20
242.185784
 30
0.0
 10
124.135339
 20
240.357596
 30
0.0
 10
122.066226
 20
240.169817
 30
0.0
  0
LWPOLYLINE
  5
3a9
100
AcDbEntity
  8
Capa_1
 62
3
100
AcDbPolyline
 90
3
 70
0
 10
124.819138
 20
244.804062
 30
0.0
 10
125.421448
 20
244.857207
 30
0.0
 10
125.474594
 20
244.258440
 30
0.0
  0
SPLINE
  5
3aa
100
AcDbEntity
  8
Capa_1
 62
3
100
AcDbSpline
 70
8
 71
3
 72
8
 73
4
 74
0
 40
0
 40
0
 40
0
 40
0
 40
1
 40
1
 40
1
 40
1
 10
122.044968
 20
240.169817
 30
0.0
 10
122.055597
 20
239.875748
 30
0.0
 10
122.059140
 20
239.581678
 30
0.0
 10
122.059140
 20
239.284066
 30
0.0
  0
SPLINE
  5
3ab
100
AcDbEntity
  8
Capa_1
 62
3
100
AcDbSpline
 70
8
 71
3
 72
8
 73
4
 74
0
 40
0
 40
0
 40
0
 40
0
 40
1
 40
1
 40
1
 40
1
 10
122.059140
 20
239.284066
 30
0.0
 10
122.059140
 20
238.185736
 30
0.0
 10
122.002452
 20
237.098035
 30
0.0
 10
121.889076
 20
236.028048
 30
0.0
  0
SPLINE
  5
3ac
100
AcDbEntity
  8
Capa_1
 62
3
100
AcDbSpline
 70
8
 71
3
 72
8
 73
4
 74
0
 40
0
 40
0
 40
0
 40
0
 40
1
 40
1
 40
1
 40
1
 10
121.889076
 20
236.028048
 30
0.0
 10
122.633107
 20
236.896084
 30
0.0
 10
123.734980
 20
237.427534
 30
0.0
 10
124.928971
 20
237.427534
 30
0.0
  0
SPLINE
  5
3ad
100
AcDbEntity
  8
Capa_1
 62
3
100
AcDbSpline
 70
8
 71
3
 72
8
 73
4
 74
0
 40
0
 40
0
 40
0
 40
0
 40
1
 40
1
 40
1
 40
1
 10
124.928971
 20
237.427534
 30
0.0
 10
125.123836
 20
237.427534
 30
0.0
 10
125.318701
 20
237.413362
 30
0.0
 10
125.513567
 20
237.385018
 30
0.0
  0
LWPOLYLINE
  5
3ae
100
AcDbEntity
  8
Capa_1
 62
3
100
AcDbPolyline
 90
2
 70
0
 10
122.066226
 20
240.169817
 30
0.0
 10
122.044968
 20
240.169817
 30
0.0
  0
SPLINE
  5
3af
100
AcDbEntity
  8
Capa_1
 62
3
100
AcDbSpline
 70
8
 71
3
 72
8
 73
4
 74
0
 40
0
 40
0
 40
0
 40
0
 40
1
 40
1
 40
1
 40
1
 10
126.055646
 20
236.658702
 30
0.0
 10
125.733233
 20
234.465585
 30
0.0
 10
123.699550
 20
232.949180
 30
0.0
 10
121.506432
 20
233.268050
 30
0.0
  0
SPLINE
  5
3b0
100
AcDbEntity
  8
Capa_1
 62
3
100
AcDbSpline
 70
8
 71
3
 72
8
 73
4
 74
0
 40
0
 40
0
 40
0
 40
0
 40
1
 40
1
 40
1
 40
1
 10
121.506432
 20
233.268050
 30
0.0
 10
121.495803
 20
233.271593
 30
0.0
 10
121.481631
 20
233.271593
 30
0.0
 10
121.471002
 20
233.275136
 30
0.0
  0
LWPOLYLINE
  5
3b1
100
AcDbEntity
  8
Capa_1
 62
3
100
AcDbPolyline
 90
3
 70
0
 10
125.513567
 20
237.385018
 30
0.0
 10
126.147764
 20
237.292900
 30
0.0
 10
126.055646
 20
236.658702
 30
0.0
  0
LWPOLYLINE
  5
3b2
100
AcDbEntity
  8
Capa_1
 62
3
100
AcDbPolyline
 90
1
 70
1
 10
121.471002
 20
233.275136
 30
0.0
  0
ENDSEC
  0
SECTION
  2
OBJECTS
  0
DICTIONARY
  5
C
330
0
100
AcDbDictionary
  3
ACAD_GROUP
350
D
  3
ACAD_MLINESTYLE
350
17
  0
DICTIONARY
  5
D
330
C
100
AcDbDictionary
  0
DICTIONARY
  5
1A
330
C
100
AcDbDictionary
  0
DICTIONARY
  5
17
330
C
100
AcDbDictionary
  3
STANDARD
350
18
  0
DICTIONARY
  5
19
330
C
100
AcDbDictionary
  0
ENDSEC
  0
EOF
